<svg xmlns="http://www.w3.org/2000/svg" width="106.813" height="133.036" viewBox="0 0 106.813 133.036">
  <g id="Grupo_133070" data-name="Grupo 133070" transform="translate(1291.611 160.357)">
    <path id="Trazado_189861" data-name="Trazado 189861" d="M-1285.193,131.658c-.1-.393-.486-.316-.738-.412-3.462-1.318-5.436-3.8-5.576-7.5-.124-3.282-.163-6.581.032-9.857.309-5.21,3.044-8.857,7.748-11.058.223-.1.442-.22.677-.338-5.344-5.94-3.428-13.088.462-16.512a11.343,11.343,0,0,1,15.13.073c3.841,3.466,5.679,10.5.366,16.459a13.613,13.613,0,0,1,5.532,3.916,12.761,12.761,0,0,1,2.98,8.234c.022,2.9.063,5.8-.005,8.694-.1,4.316-2.54,7.187-6.751,8.106-.052.011-.081.131-.12.2Zm10-3.9v-.016c2.769,0,5.539.023,8.307-.007a4.148,4.148,0,0,0,4.351-4.19c.065-3.07.094-6.146-.015-9.214a8.822,8.822,0,0,0-8.91-8.623c-2.336-.031-4.673-.03-7.009-.017a8.893,8.893,0,0,0-9.158,8.93c-.078,2.9-.053,5.8-.007,8.7a4.228,4.228,0,0,0,4.522,4.437C-1280.475,127.775-1277.835,127.761-1275.2,127.761Zm7.517-33.312a7.394,7.394,0,0,0-7.244-7.461,7.4,7.4,0,0,0-7.549,7.415,7.4,7.4,0,0,0,7.309,7.4A7.4,7.4,0,0,0-1267.679,94.449Z" transform="translate(0 -158.978)" fill="#6836bf"/>
    <path id="Trazado_189862" data-name="Trazado 189862" d="M-1178.939,131.658c-.1-.393-.486-.316-.738-.412-3.462-1.318-5.436-3.8-5.576-7.5-.124-3.282-.162-6.581.032-9.857.309-5.21,3.044-8.857,7.748-11.058.224-.1.442-.22.677-.338-5.344-5.94-3.428-13.088.462-16.512a11.343,11.343,0,0,1,15.13.073c3.842,3.466,5.679,10.505.366,16.459a13.612,13.612,0,0,1,5.532,3.916,12.76,12.76,0,0,1,2.98,8.234c.021,2.9.063,5.8-.005,8.694-.1,4.316-2.54,7.187-6.751,8.106-.052.011-.08.131-.12.2Zm10.149-3.893v-.015c2.723,0,5.445.023,8.168-.007a4.152,4.152,0,0,0,4.344-4.191c.067-3.11.1-6.226-.024-9.332a8.809,8.809,0,0,0-8.868-8.512c-2.333-.033-4.668-.028-7-.017a8.9,8.9,0,0,0-9.216,8.991c-.073,2.85-.046,5.7-.006,8.556a4.251,4.251,0,0,0,4.564,4.523C-1174.149,127.777-1171.469,127.765-1168.79,127.765Zm7.367-33.375a7.393,7.393,0,0,0-7.434-7.4,7.392,7.392,0,0,0-7.36,7.345,7.4,7.4,0,0,0,7.366,7.471A7.4,7.4,0,0,0-1161.423,94.39Z" transform="translate(-69.378 -158.978)" fill="#6836bf"/>
    <path id="Trazado_189863" data-name="Trazado 189863" d="M-1072.686,131.658c-.1-.393-.486-.316-.738-.412-3.463-1.317-5.436-3.8-5.576-7.5-.125-3.281-.163-6.581.031-9.857.308-5.21,3.044-8.857,7.747-11.057.224-.1.442-.221.677-.339-5.345-5.941-3.427-13.089.462-16.512a11.343,11.343,0,0,1,15.13.073c3.843,3.467,5.678,10.507.366,16.459a13.616,13.616,0,0,1,5.532,3.916,12.759,12.759,0,0,1,2.98,8.234c.022,2.9.063,5.8-.005,8.694-.1,4.316-2.54,7.188-6.751,8.106-.052.011-.081.131-.12.2h-5.453a2.634,2.634,0,0,1-1.491-1.866c.465-1.669.905-2.015,2.635-2.037.994-.012,1.989.017,2.982-.01a4.143,4.143,0,0,0,4.243-4.158c.063-3.154.09-6.313-.025-9.463a8.58,8.58,0,0,0-7.168-8.2c-3.035-.533-6.123-.23-9.185-.2a8.741,8.741,0,0,0-8.657,8.307c-.147,3.191-.1,6.4-.034,9.592a4.157,4.157,0,0,0,4.272,4.136c1.339.031,2.68,0,4.019.008,1.653.008,2.109.355,2.579,1.94a2.516,2.516,0,0,1-1.443,1.956Zm17.421-37.2a7.3,7.3,0,0,0-7.232-7.42,7.294,7.294,0,0,0-7.426,7.357,7.3,7.3,0,0,0,7.3,7.357A7.308,7.308,0,0,0-1055.265,94.458Z" transform="translate(-138.756 -158.979)" fill="#6836bf"/>
    <path id="Trazado_189864" data-name="Trazado 189864" d="M-1225.451-87.351a2.133,2.133,0,0,1-2.472,1.9c-5.5-.034-10.991.008-16.486-.035-.967-.007-1.422.168-1.3,1.249a16.555,16.555,0,0,1,0,2.723,1.884,1.884,0,0,1-1.91,2.018,1.845,1.845,0,0,1-1.95-1.968q-.088-2.918,0-5.84c.041-1.4.8-2.044,2.293-2.054,3.072-.019,6.146-.058,9.216.024,1.029.027,1.217-.306,1.172-1.232a17.934,17.934,0,0,1,.273-4.909,11.337,11.337,0,0,1,11.288-8.878c2.553-.033,5.107-.042,7.659.014.859.018,1-.271,1.1-1.081.235-1.892-.4-2.772-2.255-3.561a18.289,18.289,0,0,1-10.024-10.653c-.269-.693-.482-1.049-1.338-.964a4.4,4.4,0,0,1-3.2-1.189,9.818,9.818,0,0,1-2.8-9.931,5.2,5.2,0,0,1,2.194-2.963,1.6,1.6,0,0,0,.823-2.081A21.841,21.841,0,0,1-1232.2-149a15.183,15.183,0,0,1,10.267-9.678,38.111,38.111,0,0,1,22.477.039,16.7,16.7,0,0,1,2.952,1.306c1.659.876,1.875,1.482,1.314,3.242a2.3,2.3,0,0,1-3.064.272,11.719,11.719,0,0,0-3.092-1.306,34.714,34.714,0,0,0-19.066.059,11.734,11.734,0,0,0-8.611,8.988,14.7,14.7,0,0,0-.593,3.043c-.092,3.264-.575,6.67,2.535,9.253.171-1.838.351-3.549.484-5.263a10.8,10.8,0,0,1,3.363-7.492c1.923-1.754,4.378-1.862,6.037-.032,2.625,2.9,5.956,4.478,9.5,5.835,4.785,1.833,9.781,3.365,12.87,8.1a5.069,5.069,0,0,1,1.349-2.186,3.332,3.332,0,0,0,1.194-2.181,18.41,18.41,0,0,0-.857-10.943,2.378,2.378,0,0,1,.627-3.021c1.775-.374,2.39-.045,3.058,1.68a21.94,21.94,0,0,1,1.113,12.478c-.18.9-.189,1.52.764,2.1a5.621,5.621,0,0,1,2.527,4.2,9.806,9.806,0,0,1-2.066,7.662,5.027,5.027,0,0,1-4.309,2.244c-.807-.042-.985.295-1.233.924a19.068,19.068,0,0,1-11.171,11.228,1.471,1.471,0,0,0-1.106,1.687c.051,2.4.014,2.4,2.465,2.4,2.034,0,4.068-.014,6.1,0,6.839.054,11.641,4.831,11.747,11.681.013.822.047,1.647-.011,2.465-.05.7.2.868.872.861,3.072-.034,6.145-.02,9.218-.013,1.932,0,2.585.638,2.6,2.546.016,1.688.027,3.376-.005,5.063-.028,1.468-.735,2.254-1.941,2.257s-1.9-.786-1.949-2.249a26.486,26.486,0,0,1,.008-2.725c.058-.8-.2-1.046-1.01-1.014-1.642.064-3.288.019-4.932.019-8.612,0-17.224.017-25.836-.023-.959,0-1.32.2-1.218,1.2a17.716,17.716,0,0,1,.006,2.724c-.071,1.344-.829,2.1-2,2.065a1.889,1.889,0,0,1-1.874-2.052c-.044-.993-.056-1.992,0-2.985.041-.735-.2-.972-.942-.948-1.643.052-3.29-.03-4.933.03a2.161,2.161,0,0,1-2.493-1.894c.434-1.63.926-2.016,2.648-2.017q13.235-.009,26.47-.008c3.525,0,3.525,0,3.413-3.516a7.45,7.45,0,0,0-7.706-7.565c-1.9-.027-3.806-.032-5.709,0-.941.015-2.117-.4-2.76.2-.6.559-.122,1.728-.212,2.624-.017.172-.028.345-.049.516a4.516,4.516,0,0,1-4.374,4.159,25.98,25.98,0,0,1-2.982-.01,4.469,4.469,0,0,1-4.227-4.155,18.966,18.966,0,0,1-.037-2.463c.029-.682-.228-.9-.9-.891-2.725.031-5.452-.059-8.174.035a7.345,7.345,0,0,0-7.322,7.127c-.076,1.032.014,2.077-.045,3.112-.041.726.282.865.918.849,1.383-.036,2.768-.02,4.152-.009C-1226.349-89.349-1225.817-88.914-1225.451-87.351Zm30.013-38.131c.059-1.36.06-1.361-1.094-2.23a3.561,3.561,0,0,1-1.1-1.572,9.336,9.336,0,0,0-2.9-3.747c-2.137-1.712-4.681-2.575-7.176-3.531-4.37-1.675-8.766-3.285-11.93-7.006-.524-.617-.922-.2-1.272.2a7.529,7.529,0,0,0-1.8,4.618,66.071,66.071,0,0,1-1.043,8.747,2.865,2.865,0,0,1-1.512,2.293c-.958.389-.959,1.035-.929,1.856a15.49,15.49,0,0,0,16.82,14.713C-1201.926-111.948-1195.76-118.082-1195.438-125.482Zm-13.384,26.8c0-1.762,0-1.762-1.414-1.765-2.453,0-2.453,0-2.456,1.364-.006,2.245-.006,2.245,1.73,2.249C-1208.826-96.833-1208.826-96.833-1208.823-98.686Zm-21.4-25.771c0-1.093.015-2.026,0-2.959a18.181,18.181,0,0,0-.178-3.613c-.234-1.06-.739-1.009-1.409-.4a3.209,3.209,0,0,0-.752,3.015A4.806,4.806,0,0,0-1230.219-124.457Zm38.694-.076c2.292-.921,3.417-4.886,2.053-6.614-.3-.382-.7-.793-1.164-.707s-.5.688-.555,1.087C-1191.478-128.725-1191.149-126.664-1191.526-124.533Zm-19.29,19.944c.667-.371,2.006.716,2-1.128-.005-1.189-.3-1.666-1.508-1.4a2.121,2.121,0,0,1-.9,0c-1.244-.288-1.474.264-1.492,1.416C-1212.746-103.971-1211.5-104.9-1210.815-104.589Z" transform="translate(-27.421 0)" fill="#6836bf"/>
  </g>
</svg>
