<svg xmlns="http://www.w3.org/2000/svg" width="133.037" height="133.037" viewBox="0 0 133.037 133.037">
  <g id="equipo_1_" data-name="equipo (1)" transform="translate(0 0)">
    <path id="Trazado_189545" data-name="Trazado 189545" d="M133.037,55.79h-4.822l-7.186,3.781a10.667,10.667,0,0,0-2.558-1.052l-9.04-2.262V55.229a15.069,15.069,0,0,0,6.439-12.314V39.164c0-8.336-6.532-15.312-14.559-15.555-.408-.01-.809,0-1.212.024l2.344-5.487L91.08,6.787l-6.7,4.36A36.3,36.3,0,0,0,76.35,7.815L74.7,0H58.343L56.689,7.817a36.254,36.254,0,0,0-8.032,3.332l-6.7-4.36L30.605,18.143l2.3,5.491c-.088,0-.172-.02-.26-.022A15.027,15.027,0,0,0,17.166,38.624v4.292A15.063,15.063,0,0,0,23.6,55.227v1.03l-5.9,1.474L7.019,51.5H0V95.961L21.11,103h4.111l.513-1.8,6.471,3.884a6.681,6.681,0,0,0,6.443,6.473,6.68,6.68,0,0,0,6.437,6.437,6.68,6.68,0,0,0,6.437,6.437,6.673,6.673,0,0,0,10.434,5.3l1.9,1.678a6.534,6.534,0,0,0,4.318,1.63h.4a6.533,6.533,0,0,0,6.521-6.446,6.527,6.527,0,0,0,6.437-6.437,6.527,6.527,0,0,0,6.437-6.444,6.6,6.6,0,0,0,6.446-6.584,6.283,6.283,0,0,0-.032-.643l38.656-19.327ZM111.579,39.164v3.751a10.77,10.77,0,0,1-5.371,9.285l-1.073.62.008,6.79,10.72,2.678-23.6,12.42v-5.78a10.676,10.676,0,0,0-3.073-7.478l7.365-1.84v-6.8L95.488,52.2a10.759,10.759,0,0,1-5.367-9.281V38.624A10.728,10.728,0,0,1,101.183,27.9c5.732.172,10.4,5.225,10.4,11.263ZM69.754,73.022l-9.714-3.1a26.5,26.5,0,0,0-13.749-.627l-1.23.272v-.635a6.433,6.433,0,0,1,4.875-6.247l12.291-3.071v-6.8L61.156,52.2a10.759,10.759,0,0,1-5.366-9.281V38.624A10.728,10.728,0,0,1,66.85,27.9c5.732.172,10.4,5.225,10.4,11.263v3.751A10.77,10.77,0,0,1,71.876,52.2l-1.073.62.008,6.79L83.1,62.682a6.433,6.433,0,0,1,4.875,6.247v8.04l-.53.279H86.131l-13.192-3.77a13.526,13.526,0,0,0-3.185-.456ZM45.542,32.115a23.587,23.587,0,0,1,41.865-.173,14.923,14.923,0,0,0-1.577,6.681v4.292a15.063,15.063,0,0,0,6.437,12.312v1.03l-8.583,2.149L75.1,56.257V55.229a15.069,15.069,0,0,0,6.439-12.314V39.164c0-8.336-6.532-15.312-14.559-15.555A15.023,15.023,0,0,0,51.5,38.623v4.292a15.063,15.063,0,0,0,6.437,12.312v1.03l-8.583,2.149-8.585-2.149V55.229a15.068,15.068,0,0,0,6.439-12.314V39.164a15.815,15.815,0,0,0-1.665-7.049ZM35.673,19.138l6.855-6.855,6.034,3.927,1.155-.708a32.02,32.02,0,0,1,9.291-3.854l1.32-.316,1.493-7.04h9.4l1.489,7.038,1.32.315A32.051,32.051,0,0,1,83.318,15.5l1.155.708,6.034-3.927,6.847,6.849-2.434,5.7a15,15,0,0,0-4.529,3.011c-.088.086-.163.178-.249.266a27.866,27.866,0,0,0-47.326.129,15.135,15.135,0,0,0-4.734-3.356ZM27.895,59.611v-6.8L26.824,52.2a10.759,10.759,0,0,1-5.366-9.281V38.624A10.728,10.728,0,0,1,32.518,27.9c5.732.172,10.4,5.225,10.4,11.263v3.751A10.77,10.77,0,0,1,37.544,52.2l-1.073.62.008,6.79,7.362,1.84a10.676,10.676,0,0,0-3.073,7.478v1.589l-6.693,1.488.174-.608.082-3.966-11.317-6.6ZM4.291,55.79H5.855l15.432,9L13.5,95.937l-9.21-3.071ZM21.805,98.7,17.582,97.3l7.565-30.256L30.04,69.9v.613L21.985,98.7Zm14.672,6.177a2.422,2.422,0,0,1,.7-1.7l3.772-3.772a2.406,2.406,0,0,1,3.4,3.4l-3.772,3.772a2.406,2.406,0,0,1-4.107-1.7Zm6.437,6.437a2.422,2.422,0,0,1,.7-1.7l3.772-3.772a2.406,2.406,0,0,1,3.4,3.4l-3.772,3.772a2.406,2.406,0,0,1-4.107-1.7Zm6.437,6.437a2.422,2.422,0,0,1,.7-1.7l3.772-3.772a2.406,2.406,0,0,1,3.4,3.4l-3.772,3.772a2.406,2.406,0,0,1-4.107-1.7ZM58.2,126.6a2.406,2.406,0,0,1-1.7-4.107l3.772-3.772a2.406,2.406,0,0,1,3.4,3.4L59.9,125.9A2.422,2.422,0,0,1,58.2,126.6Zm10.377,2.146h-.4a2.224,2.224,0,0,1-1.478-.561l-1.605-1.415,1.611-1.611a6.671,6.671,0,0,0,1.352-1.994l1.951,1.624a2.238,2.238,0,0,1-1.433,3.957Zm19.243-19.312h-.371a2.3,2.3,0,0,1-1.476-.536L74.331,99.2l-2.749,3.3,11.3,9.415a2.24,2.24,0,0,1-1.435,3.957h-.468a2.238,2.238,0,0,1-1.431-.52L67.892,105.64l-2.749,3.3,11.3,9.416a2.236,2.236,0,0,1-1.433,3.954,3.544,3.544,0,0,1-2.258-.817L67.962,117.5a6.675,6.675,0,0,0-5.762-3.75,6.68,6.68,0,0,0-6.437-6.437,6.68,6.68,0,0,0-6.437-6.437,6.681,6.681,0,0,0-11.407-4.5l-3.772,3.772a6.613,6.613,0,0,0-.6.734l-6.591-3.955L32.733,76.7l14.486-3.221A22.1,22.1,0,0,1,58.732,74l3.161,1.011L51.176,80.372a7.153,7.153,0,0,0-3.97,6.429v.424a7.186,7.186,0,0,0,10.886,6.163l7.99-4.791a4.429,4.429,0,0,1,5.145.5l18.13,16.316a2.309,2.309,0,0,1-1.543,4.025ZM128.746,84.5,92.6,102.581c-.117-.125-.24-.243-.369-.358L74.1,85.906a8.635,8.635,0,0,0-10.227-.989L55.88,89.71A2.894,2.894,0,0,1,51.5,87.225V86.8a2.879,2.879,0,0,1,1.6-2.59l11.969-5.985a9.326,9.326,0,0,1,6.688-.62l13.484,3.851,3.266.082L128.746,60.36Zm0,0" transform="translate(0)" fill="#6836bf"/>
  </g>
</svg>
