<svg xmlns="http://www.w3.org/2000/svg" width="58.369" height="70" viewBox="0 0 58.369 70">
  <g id="Grupo_133093" data-name="Grupo 133093" transform="translate(-588.244 -370.508)">
    <path id="Trazado_188316" data-name="Trazado 188316" d="M631.952,370.508c.276.095.554.186.829.284a4.895,4.895,0,0,1,3.242,4.552c.01.245,0,.491,0,.853.766,0,1.469-.041,2.164.006a8.85,8.85,0,0,1,8.42,8.975q.015,15.413,0,30.824v6.766c0,1.175-.309,1.663-1.045,1.651-.713-.011-1.009-.486-1.009-1.617q0-18.727,0-37.454a6.748,6.748,0,0,0-4.1-6.538,8.888,8.888,0,0,0-4.386-.556v2.668c.393.057.776.089,1.149.171a5.806,5.806,0,0,1,4.6,5.842q.012,12.849,0,25.7,0,8.441,0,16.882a5.838,5.838,0,0,1-6.217,6.2q-18.185,0-36.37,0a5.83,5.83,0,0,1-6.182-6.165q0-8.885,0-17.77a2.97,2.97,0,0,1,.029-.68,1.017,1.017,0,0,1,1.993,0,3.2,3.2,0,0,1,.031.748q0,8.852,0,17.7a3.792,3.792,0,0,0,4.133,4.12q18.184,0,36.369,0a3.8,3.8,0,0,0,4.158-4.164q0-21.255,0-42.512a3.745,3.745,0,0,0-3.385-3.942,2.287,2.287,0,0,0-.3.021c-.041.531-.057,1.051-.126,1.564a4.769,4.769,0,0,1-4.675,4.181q-13.835.036-27.671,0a4.838,4.838,0,0,1-4.766-4.84c-.011-.29,0-.581,0-.865a3.593,3.593,0,0,0-3.727,3.518c-.034,1.138-.009,2.279-.009,3.417q0,8,0,15.993a3.247,3.247,0,0,1-.023.682,1.019,1.019,0,0,1-2.008-.006,3.252,3.252,0,0,1-.022-.682q0-9.4,0-18.795c0-3.549,1.928-5.756,5.456-6.255a2.748,2.748,0,0,0,.293-.078v-2.575a6.969,6.969,0,0,0-8.478,6.378c-.012.2-.011.41-.011.615q0,23.033,0,46.066a6.818,6.818,0,0,0,6,7,8.169,8.169,0,0,0,1.229.06q19.9,0,39.794,0a6.856,6.856,0,0,0,7.227-7.2c0-.979-.008-1.959,0-2.939.008-.731.431-1.2,1.041-1.184a1.026,1.026,0,0,1,1,1.15,33.12,33.12,0,0,1-.3,5.435,8.645,8.645,0,0,1-8.449,6.779q-20.41.033-40.821,0a8.833,8.833,0,0,1-8.774-8.77q-.031-23.374,0-46.749a8.879,8.879,0,0,1,8.893-8.8c.523-.01,1.046,0,1.633,0,.029-.44.041-.842.086-1.24a4.827,4.827,0,0,1,3.733-4.3,2.138,2.138,0,0,0,.3-.13h4.11c.424.378.774.8.524,1.409s-.8.659-1.375.645c-.707-.016-1.415,0-2.122,0a2.852,2.852,0,0,0-3.156,3.118q-.011,3.963,0,7.924a2.862,2.862,0,0,0,3.171,3.174q13.383,0,26.767,0a2.853,2.853,0,0,0,3.144-3.133q.01-3.963,0-7.924a2.862,2.862,0,0,0-3.186-3.159q-9.55,0-19.1,0c-.591,0-1.121-.083-1.336-.7s.144-1.035.643-1.351Z" fill="#6836bf"/>
    <path id="Trazado_188317" data-name="Trazado 188317" d="M610.669,412.218c-.883.9-1.691,1.732-2.513,2.55-.576.574-1.165.631-1.621.188s-.4-1.062.154-1.616c.822-.82,1.66-1.625,2.565-2.508l-2.168-2.148c-.178-.176-.364-.347-.53-.533a1.028,1.028,0,0,1-.031-1.469,1.016,1.016,0,0,1,1.469.027c.727.692,1.425,1.411,2.138,2.117.16.159.326.311.571.544.841-.851,1.638-1.719,2.507-2.507a1.65,1.65,0,0,1,1.135-.415c.808.085,1.026,1.093.395,1.745-.839.866-1.714,1.7-2.665,2.633.9.881,1.784,1.694,2.6,2.567a1.433,1.433,0,0,1,.386,1.009,1.062,1.062,0,0,1-.657.745,1.422,1.422,0,0,1-1.093-.286C612.42,414.051,611.6,413.161,610.669,412.218Z" transform="translate(-5.397 -10.761)" fill="#6836bf"/>
    <path id="Trazado_188318" data-name="Trazado 188318" d="M634.755,427.068c-3.034,0-6.067,0-9.1,0a1.032,1.032,0,0,1-1.144-1,1.068,1.068,0,0,1,1.128-1.038c.16-.008.319,0,.479,0H643.36a5.265,5.265,0,0,1,.547.008,1.014,1.014,0,0,1,.99,1.084.983.983,0,0,1-1.042.95c-.729.022-1.46.008-2.19.008Z" transform="translate(-10.88 -16.352)" fill="#6836bf"/>
    <path id="Trazado_188319" data-name="Trazado 188319" d="M634.687,443.669h-8.621a4.185,4.185,0,0,1-.683-.022.864.864,0,0,1-.82-.927,1.779,1.779,0,0,1,.655-.99c.186-.156.565-.107.858-.107q8.655-.007,17.311,0a2.813,2.813,0,0,1,.873.1.823.823,0,0,1,.615,1.061,2.144,2.144,0,0,1-.826.855c-.154.109-.443.034-.671.034Z" transform="translate(-10.894 -21.332)" fill="#6836bf"/>
    <path id="Trazado_188320" data-name="Trazado 188320" d="M634.689,407.589c2.966,0,5.932-.016,8.9.019a1.59,1.59,0,0,1,1.059.446.96.96,0,0,1-.6,1.537,3.2,3.2,0,0,1-.748.046q-8.624,0-17.249,0c-.137,0-.274,0-.41,0a1.069,1.069,0,0,1-1.129-1.039,1.032,1.032,0,0,1,1.145-1C628.666,407.584,631.677,407.589,634.689,407.589Z" transform="translate(-10.88 -11.123)" fill="#6836bf"/>
    <path id="Trazado_188321" data-name="Trazado 188321" d="M631.964,414.425q3.045,0,6.09,0c.85,0,1.338.391,1.32,1.037-.016.619-.5,1.009-1.3,1.009q-6.124.006-12.249,0c-.834,0-1.333-.412-1.318-1.054.015-.622.484-.991,1.3-.993Q628.885,414.42,631.964,414.425Z" transform="translate(-10.88 -13.175)" fill="#6836bf"/>
    <path id="Trazado_188322" data-name="Trazado 188322" d="M630.566,450.5c-1.6,0-3.191,0-4.786,0-.8,0-1.271-.392-1.27-1.018s.484-1.027,1.273-1.028q4.821-.008,9.641,0c.807,0,1.256.386,1.254,1.032s-.441,1.011-1.258,1.014C633.8,450.509,632.184,450.5,630.566,450.5Z" transform="translate(-10.88 -23.383)" fill="#6836bf"/>
    <path id="Trazado_188323" data-name="Trazado 188323" d="M609.938,429.761c1.168-1.176,2.234-2.26,3.315-3.329.559-.554,1.188-.575,1.607-.066a.964.964,0,0,1-.069,1.41q-2.018,2.039-4.067,4.045a.985.985,0,0,1-1.518-.016q-1.331-1.276-2.617-2.6a1.025,1.025,0,1,1,1.467-1.418C608.685,428.412,609.28,429.069,609.938,429.761Z" transform="translate(-5.395 -16.647)" fill="#6836bf"/>
    <path id="Trazado_188324" data-name="Trazado 188324" d="M609.969,446.358c1.135-1.151,2.169-2.21,3.213-3.256.591-.594,1.139-.655,1.613-.211.492.461.438,1.051-.17,1.66q-1.856,1.862-3.725,3.711c-.674.666-1.154.673-1.818.026q-1.222-1.192-2.422-2.407a1.057,1.057,0,0,1-.143-1.566,1.031,1.031,0,0,1,1.567.1C608.7,445.019,609.287,445.653,609.969,446.358Z" transform="translate(-5.396 -21.628)" fill="#6836bf"/>
    <path id="Trazado_188325" data-name="Trazado 188325" d="M627.863,433.9c-.752,0-1.5.013-2.254,0a1.024,1.024,0,0,1-1.1-.977,1.038,1.038,0,0,1,1.1-1.059q2.253-.031,4.507,0a1.02,1.02,0,1,1,0,2.036C629.365,433.914,628.614,433.9,627.863,433.9Z" transform="translate(-10.88 -18.401)" fill="#6836bf"/>
  </g>
</svg>
