<svg xmlns="http://www.w3.org/2000/svg" width="180.557" height="117.557" viewBox="0 0 180.557 117.557">
  <g id="Grupo_133078" data-name="Grupo 133078" transform="translate(3844.017 -975.682)">
    <g id="Grupo_133072" data-name="Grupo 133072" transform="translate(-3844.017 1035.969)">
      <path id="Trazado_189877" data-name="Trazado 189877" d="M-3815.382,2148.875a28.64,28.64,0,0,0-28.635,28.635,28.64,28.64,0,0,0,28.635,28.635,28.641,28.641,0,0,0,28.635-28.635A28.64,28.64,0,0,0-3815.382,2148.875Zm0,54.926a26.281,26.281,0,0,1-26.291-26.291,26.281,26.281,0,0,1,26.291-26.291,26.281,26.281,0,0,1,26.291,26.291A26.281,26.281,0,0,1-3815.382,2203.8Z" transform="translate(3844.017 -2148.875)" fill="#6836bf"/>
      <g id="Grupo_133071" data-name="Grupo 133071" transform="translate(15.183 10.957)">
        <path id="Trazado_189878" data-name="Trazado 189878" d="M-3535.461,2374.434v11.778h-6.2V2362.6l-2.825.694v22.919h-3.864v2.937h12.888v2.161h-12.888v2.651h12.888v1.794h-13.092v-20.243c2.11-3,2.949-6.709,2.989-12.26l4.433-1.158Z" transform="translate(3548.553 -2362.095)" fill="#6836bf"/>
        <path id="Trazado_189879" data-name="Trazado 189879" d="M-3279.786,2374.434v11.778h6.2V2362.6l2.825.694v22.919h3.863v2.937h-12.888v2.161h12.888v2.651h-12.888v1.794h13.093v-20.243c-2.111-3-2.949-6.709-2.989-12.26l-4.433-1.158Z" transform="translate(3293.597 -2362.095)" fill="#6836bf"/>
        <path id="Trazado_189880" data-name="Trazado 189880" d="M-3367.133,2393.388l-4.353-.986,4.353,9.385,4.353-9.385Z" transform="translate(3380.584 -2390.845)" fill="#6836bf"/>
      </g>
    </g>
    <g id="Grupo_133073" data-name="Grupo 133073" transform="translate(-3782.104 1035.969)">
      <path id="Trazado_189881" data-name="Trazado 189881" d="M-2610.529,2148.875a28.64,28.64,0,0,0-28.635,28.635,28.64,28.64,0,0,0,28.635,28.635,28.641,28.641,0,0,0,28.635-28.635A28.641,28.641,0,0,0-2610.529,2148.875Zm0,54.926a26.281,26.281,0,0,1-26.291-26.291,26.281,26.281,0,0,1,26.291-26.291,26.281,26.281,0,0,1,26.291,26.291A26.281,26.281,0,0,1-2610.529,2203.8Z" transform="translate(2639.164 -2148.875)" fill="#6836bf"/>
      <path id="Trazado_189882" data-name="Trazado 189882" d="M-2410.028,2299.453c-6.656-.088-13.422,3.87-15.743,13.156a3.391,3.391,0,0,1-2.41.818c-1.68.243-1.747,1.061-1.857,1.857h35.777c.2-9.685-7.717-15.7-15.766-15.832Zm-15.235,17.38-1.614,6.545c-.73,2.078.42,4.71,3.073,4.091v3.25c.133,2.676,1.791,4.334,5.417,4.688v3.1a2.552,2.552,0,0,0,3.162,2.7h12.25c2.034-.044,2.963-1.3,2.941-3.626v-4.091c.221-2.233.553-4.533,3.007-8.778a14.476,14.476,0,0,0,1.681-7.805h-1.3c-.354,2.609-.243,5.2-1.924,7.805-2.256,3.228-2.587,6.037-3.052,8.867v4.356c.044,1.15-.354,1.99-1.968,1.968H-2415c-1.57.133-1.946-.752-2.012-1.924l-.067-3.781c-2.565-.044-4.908-.42-5.24-3.56l-.044-4.4h-2.388c-1.039-.31-1.239-1.105-1.039-2.145l1.9-7.252Zm6.1.309a1.779,1.779,0,0,0-1.791,1.769,1.779,1.779,0,0,0,1.791,1.769,1.774,1.774,0,0,0,1.769-1.769,1.774,1.774,0,0,0-1.769-1.769Z" transform="translate(2440.785 -2291.714)" fill="#6836bf"/>
    </g>
    <g id="Grupo_133074" data-name="Grupo 133074" transform="translate(-3782.104 975.682)">
      <path id="Trazado_189883" data-name="Trazado 189883" d="M-2610.529,975.682a28.641,28.641,0,0,0-28.635,28.635,28.64,28.64,0,0,0,28.635,28.635,28.641,28.641,0,0,0,28.635-28.635A28.641,28.641,0,0,0-2610.529,975.682Zm0,54.925a26.281,26.281,0,0,1-26.291-26.291,26.281,26.281,0,0,1,26.291-26.291,26.281,26.281,0,0,1,26.291,26.291A26.281,26.281,0,0,1-2610.529,1030.607Z" transform="translate(2639.164 -975.682)" fill="#6836bf"/>
      <path id="Trazado_189884" data-name="Trazado 189884" d="M-2419.048,1128.438h-.31c-7.916.111-15.589,8.2-14.395,17.513-.641.022-2.543.265-2.742,2.919a13.994,13.994,0,0,0,2.985,7.85,3.125,3.125,0,0,0,2.7,1.128c.973,3.87,2.145,6.412,6.147,10.171,2.1,1.791,4.82,1.835,6.987,1.857a8.653,8.653,0,0,0,5.329-1.437c3.626-2.808,5.838-5.616,6.722-10.724a2.356,2.356,0,0,0,2.565-1.128c1.592-1.592,3.759-6.169,2.455-9.508a1.869,1.869,0,0,0-2.278-1.017c1.526-8.6-5.616-17.623-15.3-17.579-.287-.022-.575-.044-.862-.044Zm1.238,1.7c6.81.044,13.6,5.484,13.488,15.169a7.668,7.668,0,0,0-2.388,1.238v.708a8.212,8.212,0,0,1,2.255-1.194l-.177,1.017a.828.828,0,0,0,1.282.862c.2-.221.11-.531.73-.619.376-.022.951.265.906,1.327a11.343,11.343,0,0,1-2.012,6.324c-.487.619-1,1.725-2.211.973a.743.743,0,0,0-1.15.553,16.277,16.277,0,0,1-5.992,10.5,7.693,7.693,0,0,1-4.732,1.282c-1.924-.022-4.334-.066-6.191-1.636a19.2,19.2,0,0,1-5.594-10.127c-.044-.818-.751-.885-1.194-.508-.332.287-.663.575-1.481-.265a12.331,12.331,0,0,1-2.543-6.965c.066-.486.088-1.282.906-1.415.354.022.487.6.907.708.73.2,1.062-.4,1-.973-.044-.354-.089-.73-.111-1.083a9.276,9.276,0,0,1,2.322,1.327l-.022-.708a4.928,4.928,0,0,0-2.432-1.327c-.619-8.69,6.523-15.014,14.129-15.169Zm-13.046,14.682a3.322,3.322,0,0,1,1.3.752,22.145,22.145,0,0,1,3.1-.221c-1.393-.221-2.831-.42-4.4-.531Zm25.252,0c-1.548.11-2.985.31-4.378.531a22.15,22.15,0,0,1,3.1.221,3.393,3.393,0,0,1,1.282-.752Zm-18.109,1.3c-1.548.022-3.206.088-5.174.243l-.133,4.842c.066,2.985,2.233,4.334,5.019,4.091a3.933,3.933,0,0,0,3.914-4.024l-.155-5.064c-1.128-.044-2.255-.088-3.471-.088Zm10.857,0c-1.194,0-2.322.044-3.471.088l-.155,5.064a3.96,3.96,0,0,0,3.914,4.024c2.786.243,4.975-1.106,5.042-4.091l-.155-4.842c-1.946-.155-3.626-.221-5.174-.243Zm-5.4.354c-.442,0-.885.2-.973.442l-.022.73h1.946v-.73a1.153,1.153,0,0,0-.951-.442Zm-5.683.332c1.084,0,2.079.022,3.073.066l.111,4.312a3.362,3.362,0,0,1-3.339,3.449c-2.366.2-4.223-.951-4.29-3.494l-.111-4.135c1.681-.155,3.184-.2,4.555-.2Zm11.3,0c1.393,0,2.875.044,4.555.2l-.111,4.135c-.044,2.543-1.9,3.693-4.29,3.494a3.39,3.39,0,0,1-3.339-3.449l.133-4.312q1.459-.066,3.051-.066Zm-11.52.818c-1.083,0-2.233.044-3.515.155l.066,3.272c.044,2.012,1.526,2.941,3.405,2.764a2.676,2.676,0,0,0,2.653-2.72l-.111-3.427c-.663-.022-1.327-.044-2.056-.044Zm11.3,0c-.708,0-1.393.022-2.056.044l-.089,3.427a2.658,2.658,0,0,0,2.632,2.72c1.9.177,3.361-.752,3.405-2.764l.088-3.272a36.734,36.734,0,0,0-3.98-.155Zm-18.109.089c.243,1.327.31,3.007.818,3.914l.354.42-.066-3.56Zm25.34,0-1.106.774-.066,3.56.354-.42c.509-.907.575-2.587.818-3.914Zm-12.626.243c-.442,0-.885.2-.973.442l-.022.73h1.946v-.73a1.1,1.1,0,0,0-.951-.442Z" transform="translate(2446.908 -1120.588)" fill="#6836bf"/>
    </g>
    <g id="Grupo_133075" data-name="Grupo 133075" transform="translate(-3720.729 1035.969)">
      <path id="Trazado_189885" data-name="Trazado 189885" d="M-1416.166,2148.875a28.64,28.64,0,0,0-28.635,28.635,28.64,28.64,0,0,0,28.635,28.635,28.641,28.641,0,0,0,28.635-28.635A28.641,28.641,0,0,0-1416.166,2148.875Zm0,54.926a26.281,26.281,0,0,1-26.291-26.291,26.281,26.281,0,0,1,26.291-26.291,26.281,26.281,0,0,1,26.291,26.291A26.281,26.281,0,0,1-1416.166,2203.8Z" transform="translate(1444.801 -2148.875)" fill="#6836bf"/>
      <path id="Trazado_189886" data-name="Trazado 189886" d="M-1191.266,2264.195a2.685,2.685,0,0,0-2.255,1.216c-2.454-.8-3.494.133-3.98,1.769-2.3-.951-2.941.862-3.1,1.327l-.089,9.221a8.29,8.29,0,0,1,1.017.442l.177-9.11c-.022-1.437,1.946-1.172,1.924,0v5.24c.11,1.769,1.459,1.084,1.216,0v-6.678c-.243-1.26,2.233-2.277,2.432-.177l.066,4.533c.022,1.393,1.3,1.326,1.327-.044l-.11-5.373a1.261,1.261,0,0,1,2.521.066l.111,5.13c-.022,1.238.862,1.128.951.177l.111-3.383c.531-1.283,1.968-1.592,2.5.066a112.406,112.406,0,0,0,2.476,24.566l-7.805,2.1.509,1.105,8.889-2.366c-1.327-8-3.14-15.522-2.808-25.185.044-2.344-2.034-2.985-3.6-2.167a2.412,2.412,0,0,0-2.476-2.477Zm-13.555,13.8a1.312,1.312,0,0,0-1.26,1.769l2.653,6.368c.265,1.083-.509.929-.752.31l-2.454-5.683c-.818-1.482-2.609-.6-1.879,1.349l2.388,6.567c.376.84-.287,1.415-.663.265l-1.946-4.865a1.486,1.486,0,1,0-2.654,1.327l7.872,21.869a58.836,58.836,0,0,1,13.576-4.754L-1200,2279.231c-1.083-1.172-2.454-.288-2.012,1.039l1.791,4.688c.243.509-.287.84-.509.287l-2.786-6.567a1.281,1.281,0,0,0-1.3-.686Zm8.955,1.083a2.312,2.312,0,0,0-2.078,1.747l.708,1.592c.42-2.786,3.56-2.344,3.494.4l-1.172,6.014.951,1.99,1.26-6.523c.774-2.83-1.3-5.24-3.162-5.219Z" transform="translate(1223.527 -2258.269)" fill="#6836bf"/>
    </g>
    <g id="Grupo_133076" data-name="Grupo 133076" transform="translate(-3844.017 975.682)">
      <path id="Trazado_189887" data-name="Trazado 189887" d="M-3815.382,975.682a28.641,28.641,0,0,0-28.635,28.635,28.641,28.641,0,0,0,28.635,28.635,28.64,28.64,0,0,0,28.634-28.635A28.64,28.64,0,0,0-3815.382,975.682Zm0,54.925a26.281,26.281,0,0,1-26.291-26.291,26.281,26.281,0,0,1,26.291-26.291,26.281,26.281,0,0,1,26.291,26.291A26.281,26.281,0,0,1-3815.382,1030.607Z" transform="translate(3844.017 -975.682)" fill="#6836bf"/>
      <path id="Trazado_189888" data-name="Trazado 189888" d="M-3660.039,1134.463a33.616,33.616,0,0,0-4.467.243c-6.5.906-8.867,5.439-9.707,10.392h-.8v4.047c-2.167.044-5.262,2.786-4.6,5.727l1.614,7.319c.729,2.875,4.245,3.892,6.832,3.449,3.936,12.869,19.812,13.223,22.8,0,2.786-.11,5.815.708,7.429-3.494l1.526-6.877c.8-4.643-3.272-5.506-4.8-6.1l.133-4-.752-.067c-.177-4.466-3.206-10.238-11.609-10.547-1.282-.066-2.5-.088-3.6-.088Zm.42,1.349c1.15,0,2.255.044,3.074.11,7.673.553,9.95,6.479,10.039,9.486-7.1-13.046-21.537-9.375-26.114-.287.906-4.643,3.118-8.4,9.53-9.154,1.105-.11,2.322-.155,3.471-.155Zm-.221,2.786c12.427.332,14.461,11.83,12.67,16.783l-1.106.221-.6,2.9.929.553c-1.9,6.921-3.295,14.837-11.587,15.036-7.031.133-9.884-6.9-11.564-15.08l.6-.531-.354-2.764-.84-.442c-1.614-8.6,2.3-15.92,11.852-16.672Z" transform="translate(3688.143 -1126.304)" fill="#6836bf"/>
    </g>
    <g id="Grupo_133077" data-name="Grupo 133077" transform="translate(-3720.729 975.682)">
      <path id="Trazado_189889" data-name="Trazado 189889" d="M-1416.167,975.682a28.641,28.641,0,0,0-28.635,28.635,28.641,28.641,0,0,0,28.635,28.635,28.641,28.641,0,0,0,28.635-28.635A28.641,28.641,0,0,0-1416.167,975.682Zm0,54.925a26.281,26.281,0,0,1-26.291-26.291,26.281,26.281,0,0,1,26.291-26.291,26.281,26.281,0,0,1,26.291,26.291A26.281,26.281,0,0,1-1416.167,1030.607Z" transform="translate(1444.802 -975.682)" fill="#6836bf"/>
      <path id="Trazado_189890" data-name="Trazado 189890" d="M-1198.06,1144.351a15.635,15.635,0,0,0-10.525,4.356c-3.582,3.449-4.6,8.049-5.616,13.577h-.686a.733.733,0,0,0-.73.575c-.818,5.329-.487,10.481,2.631,15.213a.892.892,0,0,0,.951.31l5.749-.774.089,2.963a2.75,2.75,0,0,0,2.366,2.83h13.8c1.481-.133,2.366-1.415,2.366-3.118.066-3.516-.044-6.921,2.521-12.4,2.565-3.494,2.919-7.584,1.968-12.029-.973-3.25-2.255-6.457-6.412-9.088a16.792,16.792,0,0,0-8.469-2.41Zm.641,1.548c.354,0,.73.022,1.083.044,9.243,1.26,12.029,9.574,12.25,12.913l-19.812,5.815c-.73-1.105-1.393-2.277-3.6-2.189l-5.262-.133,1.636-6.479a13.582,13.582,0,0,1,13.709-9.972Zm-9.619,11.166a1.8,1.8,0,0,0-1.791,1.791,1.784,1.784,0,0,0,1.791,1.791,1.779,1.779,0,0,0,1.769-1.791,1.793,1.793,0,0,0-1.769-1.791Zm23.018,3.67a11.666,11.666,0,0,1-1.769,5.484,18.9,18.9,0,0,0-2.653,5.926h-14.129l-.929-5.594Zm-18.286,13.112h13.488a56.21,56.21,0,0,0-.287,6.412c-.066,1.327-.73,1.791-1.459,1.813H-1203.3c-.73-.243-1.57-.2-1.548-2.1l-.044-2.653c1.614-.133,2.72-.973,2.587-3.472Z" transform="translate(1227.756 -1135.683)" fill="#6836bf"/>
    </g>
  </g>
</svg>
