<svg xmlns="http://www.w3.org/2000/svg" width="71.589" height="71.591" viewBox="0 0 71.589 71.591">
  <g id="Grupo_133095" data-name="Grupo 133095" transform="translate(1004.779 -1143.358)">
    <path id="Trazado_188737" data-name="Trazado 188737" d="M-953.622,1213.949h-49.329a1.833,1.833,0,0,1-.828-1.715q.025-24.869.013-49.738v-.74c4.111,0,8.118,0,12.125,0a4.974,4.974,0,0,0,5.268-5.287q.006-5.674,0-11.347v-.762h.554q15.727,0,31.454,0c1.128,0,1.546.451,1.546,1.652q0,12.3.011,24.6a1.048,1.048,0,0,1-.53.982q-12.63,8.714-25.234,17.466a4.978,4.978,0,0,0-1.229,1.234c-2.457,3.557-4.883,7.135-7.316,10.708-.165.243-.425.493-.442.752-.074,1.169-.856,1.073-1.661,1.034-.678-.032-1.358-.007-2.038-.006-2.083,0-4.167-.009-6.25.006a1.176,1.176,0,0,0-1.269,1.208,1.223,1.223,0,0,0,1.241,1.254c.09.006.181,0,.272,0,3.918,0,7.835,0,11.753-.007a5.314,5.314,0,0,0,1.2-.165c3.935-.944,7.864-1.913,11.8-2.843a8.573,8.573,0,0,0,3.009-1.326c5.324-3.72,10.674-7.4,16.017-11.1.188-.13.386-.246.66-.42v.815c0,7.316-.009,14.632.014,21.947A1.939,1.939,0,0,1-953.622,1213.949Zm-24.657-47.209h-18.206c-.362,0-.726-.013-1.087.009a1.183,1.183,0,0,0-1.206,1.2,1.228,1.228,0,0,0,1.172,1.257,5.754,5.754,0,0,0,.611.011q18.716,0,37.431,0a2.9,2.9,0,0,0,1-.127,1.114,1.114,0,0,0,.735-1.3,1.114,1.114,0,0,0-1.02-1.019,5.176,5.176,0,0,0-.746-.025Zm-4.527,8.7q7.1,0,14.193,0a3.985,3.985,0,0,0,.876-.069,1.121,1.121,0,0,0,.938-1.165,1.125,1.125,0,0,0-.9-1.2,3.155,3.155,0,0,0-.805-.077q-14.294-.005-28.589,0a3.226,3.226,0,0,0-.74.063,1.16,1.16,0,0,0-.938,1.238,1.129,1.129,0,0,0,.966,1.144,4.337,4.337,0,0,0,.877.062Q-989.868,1175.441-982.806,1175.439Zm-4.472,6.186h6.656c1.2,0,2.4.013,3.6-.009a1.21,1.21,0,0,0,1.244-1.177,1.247,1.247,0,0,0-1.223-1.28c-.158-.012-.317,0-.475,0H-997.1a4.047,4.047,0,0,0-.61.017,1.2,1.2,0,0,0-.8,1.952,1.907,1.907,0,0,0,1.251.48C-993.933,1181.642-990.605,1181.625-987.278,1181.625Zm28.232,26.1h-.9c-1.336,0-2.672-.018-4.008.012a1.241,1.241,0,0,0-1.287,1.222,1.18,1.18,0,0,0,1.177,1.245q3.157.06,6.315,0a1.085,1.085,0,0,0,1.157-1.1q.048-3.226,0-6.453a1.12,1.12,0,0,0-1.154-1.1,1.209,1.209,0,0,0-1.266,1,3.538,3.538,0,0,0-.034.676C-959.047,1204.689-959.046,1206.157-959.046,1207.721Zm-3.715-57.135q2.241,0,4.481,0a3.894,3.894,0,0,0,.609-.026,1.216,1.216,0,0,0,1.1-1.253,1.192,1.192,0,0,0-1.078-1.194,3.26,3.26,0,0,0-.54-.036q-4.583,0-9.167,0a2.668,2.668,0,0,0-.737.085,1.139,1.139,0,0,0-.869,1.09,1.131,1.131,0,0,0,.788,1.214,2.653,2.653,0,0,0,.866.115C-965.794,1150.592-964.277,1150.586-962.761,1150.586Zm-30.132,42.25c1.446,0,2.892.007,4.339,0,1.006-.006,1.6-.495,1.58-1.277-.016-.758-.6-1.22-1.559-1.231-.5-.006-.994,0-1.491,0-2.418,0-4.836-.005-7.253,0-.959,0-1.513.49-1.5,1.276.013.758.544,1.219,1.478,1.229C-995.83,1192.847-994.361,1192.836-992.892,1192.836Zm31.983-37.309c1.019,0,2.038.014,3.057,0a1.184,1.184,0,0,0,1.279-1.2,1.209,1.209,0,0,0-1.3-1.259q-3.023-.023-6.046,0a1.233,1.233,0,0,0-1.321,1.247,1.221,1.221,0,0,0,1.342,1.215C-962.9,1155.538-961.906,1155.528-960.909,1155.527Zm-34.1,43.494c.836,0,1.672.014,2.508,0a1.186,1.186,0,0,0,1.28-1.2,1.209,1.209,0,0,0-1.29-1.264q-2.474-.026-4.948,0a1.212,1.212,0,0,0-1.313,1.241,1.2,1.2,0,0,0,1.323,1.22C-996.64,1199.033-995.827,1199.021-995.013,1199.021Z" fill="none" stroke="#6836bf" stroke-width="2"/>
    <path id="Trazado_188738" data-name="Trazado 188738" d="M-678.4,1268.327a4.674,4.674,0,0,1-1.859,1.975c-1.766,1.182-3.5,2.41-5.34,3.684l-5.654-8.171,2.151-1.493c1.3-.9,2.6-1.814,3.906-2.7a2.434,2.434,0,0,1,3.564.65c1.1,1.594,2.156,3.22,3.231,4.833Z" transform="translate(-255.79 -95.562)" fill="none" stroke="#6836bf" stroke-width="2"/>
    <path id="Trazado_188739" data-name="Trazado 188739" d="M-848.872,1337.8l-5.655-8.171,22.465-15.555,5.658,8.169Z" transform="translate(-122.156 -138.904)" fill="none" stroke="#6836bf" stroke-width="2"/>
    <path id="Trazado_188740" data-name="Trazado 188740" d="M-979.7,1155.451v.5q0,4.756,0,9.511a2.579,2.579,0,0,1-2.882,2.9q-4.755.006-9.51,0h-.512Z" transform="translate(-9.146 -9.079)" fill="none" stroke="#6836bf" stroke-width="2"/>
    <path id="Trazado_188741" data-name="Trazado 188741" d="M-710.786,1302.818l-3.062,2.121-5.655-8.167,3.06-2.122Z" transform="translate(-232.668 -123.007)" fill="none" stroke="#6836bf" stroke-width="2"/>
    <path id="Trazado_188742" data-name="Trazado 188742" d="M-880.5,1414.651l3-4.4,5,7.237c-1.431.352-2.795.631-4.12,1.036a1.25,1.25,0,0,1-1.691-.663C-878.972,1416.761-879.757,1415.733-880.5,1414.651Z" transform="translate(-100.895 -217.624)" fill="none" stroke="#6836bf" stroke-width="2"/>
    <path id="Trazado_188743" data-name="Trazado 188743" d="M-899.634,1446.6l1.743,2.526-4.151,1.006Z" transform="translate(-83.267 -247.369)" fill="none" stroke="#6836bf" stroke-width="2"/>
  </g>
</svg>
