<svg xmlns="http://www.w3.org/2000/svg" xmlns:xlink="http://www.w3.org/1999/xlink" width="190" height="113" viewBox="0 0 190 113">
  <defs>
    <linearGradient id="linear-gradient" x1="0.5" x2="0.5" y2="1" gradientUnits="objectBoundingBox">
      <stop offset="0" stop-color="#f7ca2e" stop-opacity="0"/>
      <stop offset="0.091" stop-color="#f7ca2e" stop-opacity="0.129"/>
      <stop offset="0.283" stop-color="#f7ca2e" stop-opacity="0.388"/>
      <stop offset="0.465" stop-color="#f7ca2e" stop-opacity="0.612"/>
      <stop offset="0.633" stop-color="#f7ca2e" stop-opacity="0.78"/>
      <stop offset="0.784" stop-color="#f7ca2e" stop-opacity="0.902"/>
      <stop offset="0.911" stop-color="#f7ca2e" stop-opacity="0.969"/>
      <stop offset="1" stop-color="#f7ca2e"/>
    </linearGradient>
    <linearGradient id="linear-gradient-2" x1="0.5" x2="0.5" y2="1" gradientUnits="objectBoundingBox">
      <stop offset="0" stop-color="#b13e8d" stop-opacity="0"/>
      <stop offset="0.091" stop-color="#b13e8d" stop-opacity="0.129"/>
      <stop offset="0.283" stop-color="#b13e8d" stop-opacity="0.388"/>
      <stop offset="0.465" stop-color="#b13e8d" stop-opacity="0.612"/>
      <stop offset="0.633" stop-color="#b13e8d" stop-opacity="0.78"/>
      <stop offset="0.784" stop-color="#b13e8d"/>
      <stop offset="0.911" stop-color="#b13e8d" stop-opacity="0.969"/>
      <stop offset="1" stop-color="#b13e8d"/>
    </linearGradient>
    <filter id="Rectángulo_40719" x="41" y="5" width="108" height="108" filterUnits="userSpaceOnUse">
      <feOffset dy="3" input="SourceAlpha"/>
      <feGaussianBlur stdDeviation="3" result="blur"/>
      <feFlood flood-opacity="0.161"/>
      <feComposite operator="in" in2="blur"/>
      <feComposite in="SourceGraphic"/>
    </filter>
  </defs>
  <g id="Grupo_133100" data-name="Grupo 133100" transform="translate(6736 9282)">
    <g id="Grupo_128644" data-name="Grupo 128644" transform="translate(-6920 -10186)">
      <rect id="Rectángulo_40586" data-name="Rectángulo 40586" width="190" height="20" transform="translate(184 950)" fill="none"/>
      <g id="Grupo_108405" data-name="Grupo 108405" transform="translate(213.5 968)">
        <path id="Rectángulo_5242" data-name="Rectángulo 5242" d="M0,0H12a0,0,0,0,1,0,0V43.333a3,3,0,0,1-3,3H3a3,3,0,0,1-3-3V0A0,0,0,0,1,0,0Z" transform="translate(0 0)" fill="url(#linear-gradient)"/>
      </g>
      <g id="Grupo_108406" data-name="Grupo 108406" transform="translate(344 956) rotate(180)">
        <path id="Rectángulo_5242-2" data-name="Rectángulo 5242" d="M0,0H12a0,0,0,0,1,0,0V49a3,3,0,0,1-3,3H3a3,3,0,0,1-3-3V0A0,0,0,0,1,0,0Z" transform="translate(0 0)" fill="url(#linear-gradient-2)"/>
      </g>
      <g id="Grupo_128318" data-name="Grupo 128318">
        <g transform="matrix(1, 0, 0, 1, 184, 904)" filter="url(#Rectángulo_40719)">
          <path id="Rectángulo_40719-2" data-name="Rectángulo 40719" d="M10,0H80A10,10,0,0,1,90,10V90a0,0,0,0,1,0,0H10A10,10,0,0,1,0,80V10A10,10,0,0,1,10,0Z" transform="translate(50 11)" fill="#f6f6f6"/>
        </g>
      </g>
    </g>
    <g id="Grupo_133061" data-name="Grupo 133061" transform="translate(-6221.232 -9297.919)">
      <path id="Trazado_189817" data-name="Trazado 189817" d="M-382.829,235.067c-.086.209-.174.417-.256.627a3.563,3.563,0,0,1-1.714,2q-14.083,7.165-28.158,14.345a5.891,5.891,0,0,1-6.186-.269c-3.037-1.9-6.088-3.779-9.119-5.688a1.8,1.8,0,0,0-1.567-.234c-2.336.648-4.684,1.253-7.116,1.9,0,.572.007,1.142,0,1.711a2.162,2.162,0,0,1-2.281,2.333q-6.211.042-12.422,0a2.171,2.171,0,0,1-2.258-2.363q-.008-10.376,0-20.751a2.2,2.2,0,0,1,2.387-2.368q6-.01,12.006,0a2.231,2.231,0,0,1,2.573,2.457c0,.09.018.18.037.359.75-.321,1.465-.623,2.177-.933,1.758-.764,3.52-1.519,5.271-2.3a6.076,6.076,0,0,1,5.1-.025c5.811,2.5,11.635,4.977,17.437,7.5a2.667,2.667,0,0,1,1.107,1.048,9.344,9.344,0,0,1,.634,1.727c1.579-.51,3.18-1.022,4.778-1.544,4.105-1.34,8.236-2.609,12.3-4.061a4.031,4.031,0,0,1,5.115,2.638,3.693,3.693,0,0,0,.157.368ZM-436.944,245.4c.3-.053.478-.072.653-.119,1.9-.5,3.808-.96,5.686-1.526a4.145,4.145,0,0,1,3.681.536c2.935,1.887,5.925,3.688,8.873,5.553a3.878,3.878,0,0,0,4.129.206q13.945-7.125,27.9-14.23a1.663,1.663,0,0,0,.824-2.213,1.645,1.645,0,0,0-2.166-.931q-8.692,2.835-17.385,5.663a1.909,1.909,0,0,0-1.221.981c-1.139,2.106-4.184,3.128-6.1,2.051a44.213,44.213,0,0,0-4.316-1.879c-1.252-.537-2.508-1.066-3.751-1.623a1.081,1.081,0,0,1-.649-1.468,1.106,1.106,0,0,1,1.514-.559c.13.046.255.108.383.163,2.611,1.119,5.219,2.241,7.834,3.35a2.177,2.177,0,0,0,.924.226,2.854,2.854,0,0,0,2.549-3.664,1.209,1.209,0,0,0-.59-.681q-8.615-3.725-17.249-7.4a3.662,3.662,0,0,0-3.026.043c-2.645,1.156-5.288,2.316-7.942,3.45a.8.8,0,0,0-.567.875c.02,4.163.012,8.327.012,12.49Zm-14.693-16.848v20.976h12.417V228.551Z" transform="translate(0 -150.797)" fill="#6836bf"/>
      <path id="Trazado_189818" data-name="Trazado 189818" d="M-346.674,58.911c0,.291,0,.519,0,.748a1.083,1.083,0,0,1-.9,1.149c-.583.147-1.164.312-1.756.4-.561.084-.97.3-1.043.893a1.554,1.554,0,0,0,.081.864c.313.59.71,1.136,1.075,1.7a1.148,1.148,0,0,1-.134,1.574q-1.359,1.389-2.728,2.769a1.139,1.139,0,0,1-1.568.174c-.468-.3-.941-.588-1.412-.882-1.068-.667-1.8-.356-2.061.867-.119.565-.25,1.128-.378,1.691a1.076,1.076,0,0,1-1.124.93q-2.013.023-4.025.024a1.077,1.077,0,0,1-1.131-.922c-.166-.7-.317-1.4-.494-2.091a1.167,1.167,0,0,0-1.631-.643c-.587.369-1.168.748-1.75,1.126a1.141,1.141,0,0,1-1.569-.163q-1.386-1.362-2.766-2.731a1.113,1.113,0,0,1-.18-1.509c.353-.57.712-1.136,1.065-1.706a1.148,1.148,0,0,0-.709-1.742c-.653-.15-1.31-.283-1.964-.428a1.132,1.132,0,0,1-.98-1.231q0-1.909-.023-3.818a1.148,1.148,0,0,1,1.015-1.271c.542-.114,1.079-.257,1.619-.381,1.172-.269,1.481-1.023.83-2.032q-.47-.729-.94-1.457a1.107,1.107,0,0,1,.143-1.512q1.381-1.416,2.777-2.818a1.107,1.107,0,0,1,1.511-.156c.488.309.981.611,1.472.917,1.023.639,1.78.314,2.025-.865.117-.565.242-1.129.368-1.693a1.106,1.106,0,0,1,1.175-.959c1.3-.008,2.591-.009,3.887-.022a1.145,1.145,0,0,1,1.255,1.035c.112.543.291,1.074.37,1.621s.3.971.887,1.045a1.548,1.548,0,0,0,.864-.076c.61-.325,1.175-.735,1.76-1.108a1.111,1.111,0,0,1,1.51.162q1.389,1.36,2.769,2.728a1.134,1.134,0,0,1,.182,1.565c-.3.468-.587.942-.882,1.412-.672,1.074-.366,1.809.859,2.065q.679.142,1.356.29c1.033.223,1.265.506,1.279,1.555,0,.183,0,.365,0,.6h3.538v-.834q0-4.477,0-8.954c0-1.97.93-2.9,2.881-2.9,1.434,0,2.869-.018,4.3.01a.69.69,0,0,0,.794-.537,4.79,4.79,0,0,1,5.468-3.117,4.893,4.893,0,0,1,3.94,4.656,4.882,4.882,0,0,1-3.867,4.857,4.817,4.817,0,0,1-5.543-3.1.692.692,0,0,0-.782-.556c-1.457.031-2.915.019-4.373.007-.389,0-.606.1-.6.539.011,3.239.009,6.478.014,9.718a1.074,1.074,0,0,0,.061.23h5.456c1.279-2.923,3.249-4.131,5.834-3.582a4.883,4.883,0,0,1,3.807,4.765,4.869,4.869,0,0,1-3.94,4.723c-2.468.508-4.472-.759-5.7-3.607h-5.53v.716c0,2.985.014,5.97-.012,8.954-.005.62.15.855.816.834,1.57-.049,3.142-.016,4.692-.016,1.371-2.972,3.322-4.193,5.786-3.653a4.876,4.876,0,0,1,3.886,4.77,4.907,4.907,0,0,1-3.789,4.716c-2.569.552-4.532-.644-5.869-3.612-1.6,0-3.214,0-4.832,0-1.956,0-2.9-.937-2.9-2.892q-.007-4.477,0-8.954v-.862Zm-6.57-10.379a15.223,15.223,0,0,1-1.893,1.179,2.3,2.3,0,0,1-1.352.084c-.576-.129-1.1-.462-1.671-.649a1.391,1.391,0,0,1-1.011-1.113c-.149-.692-.315-1.38-.474-2.07h-2.315c-.146.668-.307,1.315-.424,1.97a1.459,1.459,0,0,1-1.1,1.273,7.61,7.61,0,0,0-1.461.624,1.422,1.422,0,0,1-1.619-.09c-.568-.384-1.162-.729-1.816-1.135-.459.489-.909.923-1.3,1.408a.7.7,0,0,0-.028.628c.285.527.628,1.023.963,1.522a1.289,1.289,0,0,1,.082,1.373,12.032,12.032,0,0,0-.656,1.6,1.44,1.44,0,0,1-1.2,1.089c-.671.132-1.335.305-1.994.458V59c.7.15,1.369.306,2.046.438a1.4,1.4,0,0,1,1.172,1.032,10.033,10.033,0,0,0,.649,1.526,1.416,1.416,0,0,1-.069,1.563c-.392.588-.749,1.2-1.146,1.839.474.456.884.9,1.351,1.272a.761.761,0,0,0,.677.065,16.585,16.585,0,0,0,1.523-.96,1.283,1.283,0,0,1,1.372-.075,11.658,11.658,0,0,0,1.6.656,1.449,1.449,0,0,1,1.084,1.21c.135.671.3,1.334.456,1.986h2.317c.156-.724.309-1.42.454-2.117a1.349,1.349,0,0,1,.952-1.082,12.6,12.6,0,0,0,1.592-.671,1.414,1.414,0,0,1,1.561.074c.587.393,1.2.749,1.718,1.07l1.71-1.587c-.38-.592-.719-1.168-1.106-1.709a1.481,1.481,0,0,1-.09-1.74,6.665,6.665,0,0,0,.567-1.41,1.423,1.423,0,0,1,1.207-1.085c.67-.137,1.335-.3,1.991-.456V56.525c-.695-.152-1.366-.311-2.042-.442a1.39,1.39,0,0,1-1.176-1.025,8.921,8.921,0,0,0-.65-1.525,1.428,1.428,0,0,1,.1-1.62c.385-.567.729-1.162,1.058-1.692Zm20,9.221a2.616,2.616,0,0,0,2.632,2.637,2.656,2.656,0,0,0,2.626-2.66,2.668,2.668,0,0,0-2.685-2.607A2.626,2.626,0,0,0-333.244,57.753Zm2.627-10.111A2.632,2.632,0,0,0-327.988,45a2.678,2.678,0,0,0-2.682-2.613,2.638,2.638,0,0,0-2.575,2.63A2.591,2.591,0,0,0-330.617,47.642Zm-.025,20.233a2.592,2.592,0,0,0-2.6,2.583,2.643,2.643,0,0,0,2.6,2.678,2.68,2.68,0,0,0,2.658-2.639A2.643,2.643,0,0,0-330.642,67.874Z" transform="translate(-64.455 0)" fill="#6836bf"/>
      <path id="Trazado_189819" data-name="Trazado 189819" d="M-401.429,255.07a1.121,1.121,0,0,1-1.077,1.193,1.159,1.159,0,0,1-1.137-1.152,1.127,1.127,0,0,1,1.1-1.179A1.086,1.086,0,0,1-401.429,255.07Z" transform="translate(-40.946 -174.108)" fill="#6836bf"/>
      <path id="Trazado_189820" data-name="Trazado 189820" d="M-327.432,100.017a6.5,6.5,0,0,1,6.423,6.551,6.505,6.505,0,0,1-6.563,6.414,6.526,6.526,0,0,1-6.4-6.519A6.518,6.518,0,0,1-327.432,100.017Zm4.207,6.479a4.288,4.288,0,0,0-4.3-4.259,4.291,4.291,0,0,0-4.224,4.264,4.3,4.3,0,0,0,4.3,4.258A4.284,4.284,0,0,0-323.225,106.5Z" transform="translate(-97.697 -48.738)" fill="#6836bf"/>
    </g>
  </g>
</svg>
