<svg xmlns="http://www.w3.org/2000/svg" xmlns:xlink="http://www.w3.org/1999/xlink" width="190" height="113" viewBox="0 0 190 113">
  <defs>
    <linearGradient id="linear-gradient" x1="0.5" x2="0.5" y2="1" gradientUnits="objectBoundingBox">
      <stop offset="0" stop-color="#f7ca2e" stop-opacity="0"/>
      <stop offset="0.091" stop-color="#f7ca2e" stop-opacity="0.129"/>
      <stop offset="0.283" stop-color="#f7ca2e" stop-opacity="0.388"/>
      <stop offset="0.465" stop-color="#f7ca2e" stop-opacity="0.612"/>
      <stop offset="0.633" stop-color="#f7ca2e" stop-opacity="0.78"/>
      <stop offset="0.784" stop-color="#f7ca2e" stop-opacity="0.902"/>
      <stop offset="0.911" stop-color="#f7ca2e" stop-opacity="0.969"/>
      <stop offset="1" stop-color="#f7ca2e"/>
    </linearGradient>
    <linearGradient id="linear-gradient-2" x1="0.5" x2="0.5" y2="1" gradientUnits="objectBoundingBox">
      <stop offset="0" stop-color="#b13e8d" stop-opacity="0"/>
      <stop offset="0.091" stop-color="#b13e8d" stop-opacity="0.129"/>
      <stop offset="0.283" stop-color="#b13e8d" stop-opacity="0.388"/>
      <stop offset="0.465" stop-color="#b13e8d" stop-opacity="0.612"/>
      <stop offset="0.633" stop-color="#b13e8d" stop-opacity="0.78"/>
      <stop offset="0.784" stop-color="#b13e8d"/>
      <stop offset="0.911" stop-color="#b13e8d" stop-opacity="0.969"/>
      <stop offset="1" stop-color="#b13e8d"/>
    </linearGradient>
    <filter id="Rectángulo_40719" x="41" y="5" width="108" height="108" filterUnits="userSpaceOnUse">
      <feOffset dy="3" input="SourceAlpha"/>
      <feGaussianBlur stdDeviation="3" result="blur"/>
      <feFlood flood-opacity="0.161"/>
      <feComposite operator="in" in2="blur"/>
      <feComposite in="SourceGraphic"/>
    </filter>
  </defs>
  <g id="Grupo_133102" data-name="Grupo 133102" transform="translate(6736 8753)">
    <g id="Grupo_128646" data-name="Grupo 128646" transform="translate(-6920 -9657)">
      <rect id="Rectángulo_40586" data-name="Rectángulo 40586" width="190" height="20" transform="translate(184 950)" fill="none"/>
      <g id="Grupo_108405" data-name="Grupo 108405" transform="translate(213.5 968)">
        <path id="Rectángulo_5242" data-name="Rectángulo 5242" d="M0,0H12a0,0,0,0,1,0,0V43.333a3,3,0,0,1-3,3H3a3,3,0,0,1-3-3V0A0,0,0,0,1,0,0Z" transform="translate(0 0)" fill="url(#linear-gradient)"/>
      </g>
      <g id="Grupo_108406" data-name="Grupo 108406" transform="translate(344 956) rotate(180)">
        <path id="Rectángulo_5242-2" data-name="Rectángulo 5242" d="M0,0H12a0,0,0,0,1,0,0V49a3,3,0,0,1-3,3H3a3,3,0,0,1-3-3V0A0,0,0,0,1,0,0Z" transform="translate(0 0)" fill="url(#linear-gradient-2)"/>
      </g>
      <g id="Grupo_128318" data-name="Grupo 128318">
        <g transform="matrix(1, 0, 0, 1, 184, 904)" filter="url(#Rectángulo_40719)">
          <path id="Rectángulo_40719-2" data-name="Rectángulo 40719" d="M10,0H80A10,10,0,0,1,90,10V90a0,0,0,0,1,0,0H10A10,10,0,0,1,0,80V10A10,10,0,0,1,10,0Z" transform="translate(50 11)" fill="#f6f6f6"/>
        </g>
      </g>
    </g>
    <g id="Grupo_133066" data-name="Grupo 133066" transform="translate(-6136.315 -8727.095)">
      <path id="Trazado_189838" data-name="Trazado 189838" d="M-541.624,44.05c.76-.87,1.1-.923,2.154-.325.584.333,1.175.656,1.746,1.011a1.157,1.157,0,0,1,.522,1.6,1.144,1.144,0,0,1-1.682.381c-.934-.566-1.829-1.2-2.74-1.8Z" transform="translate(0 -40.473)" fill="#6836bf"/>
      <path id="Trazado_189839" data-name="Trazado 189839" d="M-443.372,156.691c-.928.774-1.724,1.425-2.505,2.094a1.273,1.273,0,0,1-1.446.339,1.234,1.234,0,0,1-.675-1.316c.021-.692.005-1.385.005-1.98-1.825-.347-3.6-.552-5.3-1.032-4.379-1.239-7.811-3.695-9.473-8.108a11.456,11.456,0,0,1,.687-9.619,1.189,1.189,0,0,1,1.253-.775,1.188,1.188,0,0,1,1.039,1.045c.084.349.2.691.319,1.032a9.553,9.553,0,0,0,8.074,6.617c1.085.18,2.188.251,3.4.384,0-.839.017-1.576-.006-2.311a1.238,1.238,0,0,1,.616-1.282,1.3,1.3,0,0,1,1.467.251c.8.605,1.611,1.186,2.544,1.868v-.91q0-15.219,0-30.439c0-1.367.329-1.7,1.706-1.7q14.678,0,29.357-.009a2.226,2.226,0,0,1,1.73.7q2.595,2.658,5.251,5.255a1.987,1.987,0,0,1,.635,1.531q-.019,20.2-.01,40.393c0,1.228-.359,1.588-1.585,1.588h-35.488c-1.241,0-1.593-.35-1.6-1.573C-443.374,158.112-443.372,157.49-443.372,156.691Zm2.309,1.249h34V119.057h-.83c-1.25,0-2.5.011-3.75-.005a1.147,1.147,0,0,1-1.266-1.249c-.022-.624-.006-1.25-.006-1.875q0-1.354,0-2.71H-441.02a2.231,2.231,0,0,0-.039.27q0,15.831.013,31.662a1.1,1.1,0,0,0,.415.74c1.3.992,2.629,1.941,3.942,2.914.974.721,1,1.436.064,2.228-1.339,1.134-2.7,2.247-4.03,3.387a1.042,1.042,0,0,0-.39.62C-441.087,155.995-441.063,156.953-441.063,157.939Zm-4.623-12.869c0,.452,0,.754,0,1.055-.009,1.124-.393,1.538-1.526,1.488a40.794,40.794,0,0,1-4.3-.319,11.907,11.907,0,0,1-8.865-5.515c-.173-.28-.339-.564-.508-.846a10.981,10.981,0,0,0-.125,3.346c.665,3.758,3.063,6.14,6.442,7.634a19.012,19.012,0,0,0,7.509,1.464c.945.014,1.352.432,1.376,1.369.006.241,0,.482,0,.864l6.711-5.622Zm35.114-28.384h1.489l-1.489-1.5Z" transform="translate(-63.053 -94.975)" fill="#6836bf"/>
      <path id="Trazado_189840" data-name="Trazado 189840" d="M-500.257,65.31a13.345,13.345,0,0,1-1.719-.12,2.857,2.857,0,0,1-2.362-2.933,1.137,1.137,0,0,0-.581-1.159,2.725,2.725,0,0,1-1.279-2.583.943.943,0,0,0-.522-.969,2.882,2.882,0,0,1-1.352-2.7,17.443,17.443,0,0,0-1.177-7.268,26.9,26.9,0,0,0-1.555-3,11.531,11.531,0,0,1,.023-12.379,11.709,11.709,0,0,1,10.943-5.988A12.15,12.15,0,0,1-489.53,44.1a18.321,18.321,0,0,0-2.6,6.2,40.554,40.554,0,0,0-.363,4.441,3.324,3.324,0,0,1-1.44,2.895.779.779,0,0,0-.3.566,3.225,3.225,0,0,1-1.629,3.148.647.647,0,0,0-.237.452c-.225,2.658-1.11,3.474-3.794,3.474h-.36Zm-.724-25.421h1.445c0-.494-.019-.945,0-1.4a3.734,3.734,0,0,1,4.744-3.559,3.734,3.734,0,0,1,2.7,4.015,3.707,3.707,0,0,1-3.548,3.277c-.515.023-1.032,0-1.55,0v9.865h2.477a18.969,18.969,0,0,1,3.038-8.883,9.079,9.079,0,0,0,1.207-6.232,9.982,9.982,0,0,0-10.817-8.433,10,10,0,0,0-8.9,10.923A11.116,11.116,0,0,0-508.458,44a17.67,17.67,0,0,1,2.333,6.085c.121.677.21,1.36.309,2.013h2.406V42.227c-.564,0-1.068.021-1.569,0a3.72,3.72,0,0,1-3.534-3.6,3.741,3.741,0,0,1,3.182-3.783,3.664,3.664,0,0,1,4.174,2.909A19.415,19.415,0,0,1-500.982,39.889Zm0,2.386V52.1h1.376V42.275Zm-4.732,12.22c-.1,1.054.08,1.265,1.053,1.266q4.353,0,8.705,0c1.026,0,1.21-.218,1.061-1.267Zm9.12,3.624h-7.275c-.058,1.07.1,1.242,1.091,1.244q2.551,0,5.1,0C-496.689,59.36-496.528,59.178-496.594,58.118Zm-.6-18.2c.538,0,1.014.027,1.485-.006a1.374,1.374,0,0,0,1.327-1.409,1.394,1.394,0,0,0-1.286-1.38,1.347,1.347,0,0,0-1.515,1.2A12.908,12.908,0,0,0-497.2,39.919Zm-6.109-.011a12.009,12.009,0,0,0-.177-1.884,1.306,1.306,0,0,0-1.6-.88,1.421,1.421,0,0,0-1.123,1.389A1.374,1.374,0,0,0-504.98,39.9C-504.466,39.947-503.944,39.908-503.307,39.908Zm1.321,21.789c-.106,1.077.053,1.266,1.027,1.272q.718,0,1.436,0c1.017,0,1.2-.235,1.013-1.272Z" transform="translate(-23.434 -26.653)" fill="#6836bf"/>
      <path id="Trazado_189841" data-name="Trazado 189841" d="M-454.771-4.36c0-.455-.029-.912.007-1.365a1.13,1.13,0,0,1,1.128-1.083,1.115,1.115,0,0,1,1.154,1.124c.03.885.029,1.773,0,2.658a1.116,1.116,0,0,1-1.087,1.119A1.156,1.156,0,0,1-454.771-3a1.228,1.228,0,0,1-.006-.143q0-.611,0-1.222Z" transform="translate(-70.104)" fill="#6836bf"/>
      <path id="Trazado_189842" data-name="Trazado 189842" d="M-409.983,11.117c-1.025-.032-1.582-.853-1.22-1.589a23.826,23.826,0,0,1,1.428-2.486,1.035,1.035,0,0,1,1.457-.333,1.063,1.063,0,0,1,.483,1.471,23.943,23.943,0,0,1-1.4,2.42A2.155,2.155,0,0,1-409.983,11.117Z" transform="translate(-105.194 -10.782)" fill="#6836bf"/>
      <path id="Trazado_189843" data-name="Trazado 189843" d="M-501.253,10.007c-.286.312-.527.8-.87.888a1.451,1.451,0,0,1-1.256-.317A16.593,16.593,0,0,1-504.9,7.988a.994.994,0,0,1,.432-1.312.95.95,0,0,1,1.369.1c.636.916,1.142,1.923,1.7,2.9a.538.538,0,0,1,.019.213Z" transform="translate(-29.558 -10.693)" fill="#6836bf"/>
      <path id="Trazado_189844" data-name="Trazado 189844" d="M-378.1,46.967c-.316-.284-.812-.522-.9-.866a1.445,1.445,0,0,1,.311-1.257,16.414,16.414,0,0,1,2.588-1.527,1,1,0,0,1,1.318.422.956.956,0,0,1-.093,1.371c-.914.639-1.921,1.147-2.893,1.7a.569.569,0,0,1-.212.025Z" transform="translate(-131.248 -40.376)" fill="#6836bf"/>
      <path id="Trazado_189845" data-name="Trazado 189845" d="M-311.952,157.989c0,1.008.012,2.017,0,3.025-.014.875-.4,1.29-1.276,1.3q-3.025.03-6.051,0c-.9-.008-1.3-.432-1.312-1.352q-.024-2.953,0-5.907c.008-.954.414-1.371,1.366-1.381q2.953-.03,5.907,0c.995.01,1.361.414,1.37,1.435C-311.945,156.068-311.952,157.028-311.952,157.989Zm-2.37,1.981v-3.938h-3.92v3.938Z" transform="translate(-178.418 -129.538)" fill="#6836bf"/>
      <path id="Trazado_189846" data-name="Trazado 189846" d="M-308.584,254.734q-5.045,0-10.091,0a5.69,5.69,0,0,1-.791-.029,1.046,1.046,0,0,1-.969-1.074,1.046,1.046,0,0,1,.885-1.145,3.718,3.718,0,0,1,.787-.057q10.235,0,20.469,0a3.245,3.245,0,0,1,.855.082,1.031,1.031,0,0,1,.794,1.139,1.037,1.037,0,0,1-.915,1.045,4.576,4.576,0,0,1-.79.037Q-303.467,254.735-308.584,254.734Z" transform="translate(-178.556 -209.269)" fill="#6836bf"/>
      <path id="Trazado_189847" data-name="Trazado 189847" d="M-308.528,287.608q-5.118,0-10.235,0a5,5,0,0,1-.719-.023,1.045,1.045,0,0,1-.953-1.013,1.04,1.04,0,0,1,.755-1.168,2.552,2.552,0,0,1,.78-.1q10.343-.008,20.687,0a2.552,2.552,0,0,1,.849.113,1.038,1.038,0,0,1,.708,1.2,1.036,1.036,0,0,1-.917.967,4.294,4.294,0,0,1-.719.028Q-303.411,287.609-308.528,287.608Z" transform="translate(-178.551 -235.807)" fill="#6836bf"/>
      <path id="Trazado_189848" data-name="Trazado 189848" d="M-308.635,320.538q-5.046,0-10.091,0a4.7,4.7,0,0,1-.791-.032,1.05,1.05,0,0,1-.926-1.04,1.029,1.029,0,0,1,.721-1.122,2.68,2.68,0,0,1,.849-.108q10.343-.008,20.686,0a3.713,3.713,0,0,1,.432.01,1.159,1.159,0,0,1,1.114,1.187,1.123,1.123,0,0,1-1.183,1.1c-.936.025-1.874.01-2.811.01Z" transform="translate(-178.548 -262.389)" fill="#6836bf"/>
      <path id="Trazado_189849" data-name="Trazado 189849" d="M-308.522,221.794q-5.153,0-10.307,0c-.286,0-.661.063-.84-.087a2.1,2.1,0,0,1-.737-1.035.939.939,0,0,1,.745-1.084,3.409,3.409,0,0,1,.925-.1q10.2-.008,20.4,0c.12,0,.241,0,.36,0,.855.038,1.362.478,1.356,1.174s-.507,1.128-1.378,1.129Q-303.261,221.8-308.522,221.794Z" transform="translate(-178.564 -182.677)" fill="#6836bf"/>
      <path id="Trazado_189850" data-name="Trazado 189850" d="M-254.814,188.914c-1.609,0-3.219.012-4.828,0-.862-.009-1.345-.46-1.328-1.175.016-.683.487-1.111,1.315-1.12,1.657-.018,3.315-.007,4.972-.007,1.585,0,3.171-.017,4.756.008,1,.016,1.57.818,1.193,1.631a1.22,1.22,0,0,1-1.251.669Q-252.4,188.91-254.814,188.914Z" transform="translate(-226.56 -156.132)" fill="#6836bf"/>
      <path id="Trazado_189851" data-name="Trazado 189851" d="M-256.127,155.981c-1.175,0-2.35.011-3.525,0-.828-.011-1.3-.423-1.319-1.106-.02-.712.461-1.182,1.318-1.189q3.525-.028,7.049,0c.87.006,1.355.448,1.356,1.153s-.488,1.135-1.355,1.145C-253.777,155.992-254.953,155.982-256.127,155.981Z" transform="translate(-226.559 -129.547)" fill="#6836bf"/>
    </g>
  </g>
</svg>
