<svg xmlns="http://www.w3.org/2000/svg" xmlns:xlink="http://www.w3.org/1999/xlink" width="190" height="113" viewBox="0 0 190 113">
  <defs>
    <linearGradient id="linear-gradient" x1="0.5" x2="0.5" y2="1" gradientUnits="objectBoundingBox">
      <stop offset="0" stop-color="#f7ca2e" stop-opacity="0"/>
      <stop offset="0.091" stop-color="#f7ca2e" stop-opacity="0.129"/>
      <stop offset="0.283" stop-color="#f7ca2e" stop-opacity="0.388"/>
      <stop offset="0.465" stop-color="#f7ca2e" stop-opacity="0.612"/>
      <stop offset="0.633" stop-color="#f7ca2e" stop-opacity="0.78"/>
      <stop offset="0.784" stop-color="#f7ca2e" stop-opacity="0.902"/>
      <stop offset="0.911" stop-color="#f7ca2e" stop-opacity="0.969"/>
      <stop offset="1" stop-color="#f7ca2e"/>
    </linearGradient>
    <linearGradient id="linear-gradient-2" x1="0.5" x2="0.5" y2="1" gradientUnits="objectBoundingBox">
      <stop offset="0" stop-color="#b13e8d" stop-opacity="0"/>
      <stop offset="0.091" stop-color="#b13e8d" stop-opacity="0.129"/>
      <stop offset="0.283" stop-color="#b13e8d" stop-opacity="0.388"/>
      <stop offset="0.465" stop-color="#b13e8d" stop-opacity="0.612"/>
      <stop offset="0.633" stop-color="#b13e8d" stop-opacity="0.78"/>
      <stop offset="0.784" stop-color="#b13e8d"/>
      <stop offset="0.911" stop-color="#b13e8d" stop-opacity="0.969"/>
      <stop offset="1" stop-color="#b13e8d"/>
    </linearGradient>
    <filter id="Rectángulo_40719" x="41" y="5" width="108" height="108" filterUnits="userSpaceOnUse">
      <feOffset dy="3" input="SourceAlpha"/>
      <feGaussianBlur stdDeviation="3" result="blur"/>
      <feFlood flood-opacity="0.161"/>
      <feComposite operator="in" in2="blur"/>
      <feComposite in="SourceGraphic"/>
    </filter>
  </defs>
  <g id="Grupo_133103" data-name="Grupo 133103" transform="translate(6736 8478)">
    <g id="Grupo_128647" data-name="Grupo 128647" transform="translate(-6920 -9382)">
      <rect id="Rectángulo_40586" data-name="Rectángulo 40586" width="190" height="20" transform="translate(184 950)" fill="none"/>
      <g id="Grupo_108405" data-name="Grupo 108405" transform="translate(213.5 968)">
        <path id="Rectángulo_5242" data-name="Rectángulo 5242" d="M0,0H12a0,0,0,0,1,0,0V43.333a3,3,0,0,1-3,3H3a3,3,0,0,1-3-3V0A0,0,0,0,1,0,0Z" transform="translate(0 0)" fill="url(#linear-gradient)"/>
      </g>
      <g id="Grupo_108406" data-name="Grupo 108406" transform="translate(344 956) rotate(180)">
        <path id="Rectángulo_5242-2" data-name="Rectángulo 5242" d="M0,0H12a0,0,0,0,1,0,0V49a3,3,0,0,1-3,3H3a3,3,0,0,1-3-3V0A0,0,0,0,1,0,0Z" transform="translate(0 0)" fill="url(#linear-gradient-2)"/>
      </g>
      <g id="Grupo_128318" data-name="Grupo 128318">
        <g transform="matrix(1, 0, 0, 1, 184, 904)" filter="url(#Rectángulo_40719)">
          <path id="Rectángulo_40719-2" data-name="Rectángulo 40719" d="M10,0H80A10,10,0,0,1,90,10V90a0,0,0,0,1,0,0H10A10,10,0,0,1,0,80V10A10,10,0,0,1,10,0Z" transform="translate(50 11)" fill="#f6f6f6"/>
        </g>
      </g>
    </g>
    <g id="Grupo_133068" data-name="Grupo 133068" transform="translate(-6494.364 -8838.416)">
      <path id="Trazado_189852" data-name="Trazado 189852" d="M-157.353,389.466c0-1.24,0-2.428,0-3.616a5.949,5.949,0,0,1,6.189-6.189q17.645-.009,35.289,0a5.937,5.937,0,0,1,6.169,6.133q.016,12.914,0,25.828a5.94,5.94,0,0,1-6.155,6.147q-13.29.011-26.579-.008a1.856,1.856,0,0,0-1.524.56,5.086,5.086,0,0,1-1.209.983,23.611,23.611,0,0,0-4.6,3.61,1.484,1.484,0,0,0-.418.92,3.365,3.365,0,0,0,1.661,3.193.842.842,0,0,0,.755-.017c4.265-3.051,9-2.784,12.821.75.054.05.115.093.221.178.158-.133.328-.265.486-.41a9.6,9.6,0,0,1,13.375.206,9.556,9.556,0,0,1,.011,13.585c-3.59,3.638-7.226,7.232-10.836,10.851a4.4,4.4,0,0,1-3.272,1.339q-23.935-.013-47.871-.006h-.726c0-.928-.01-1.79,0-2.651a69.338,69.338,0,0,1,.16-7.283,14.743,14.743,0,0,1,9.309-12.392c3.109-1.353,6.317-2.481,9.474-3.725a3.551,3.551,0,0,0,2.482-3.729,1.318,1.318,0,0,0-.385-.789c-.647-.648-1.335-1.257-2.018-1.868a4.8,4.8,0,0,0-.763-.58,16.472,16.472,0,0,1-8.706-14.681,17.778,17.778,0,0,1,.389-4.864,9.3,9.3,0,0,1,6.849-6.786,2.182,2.182,0,0,0,.807-.336A17.659,17.659,0,0,1-157.353,389.466Zm-2.367,35.306a1.3,1.3,0,0,0-.115.245,5.958,5.958,0,0,1-4.055,4.717c-2.894,1.1-5.771,2.238-8.653,3.365a12.522,12.522,0,0,0-8.2,9.191,34.627,34.627,0,0,0-.423,5.907c-.048.955-.008,1.916-.008,2.87h7.165V439.255h2.39v11.8h32.66a2.342,2.342,0,0,0-.607-.721q-4.452-4.439-8.894-8.89a9.21,9.21,0,0,1-2.753-8.55,28.359,28.359,0,0,1,1.307-3.883,5.968,5.968,0,0,1-2.629-4.19.767.767,0,0,0-.209,0C-156.726,426.515-155.591,426.511-159.72,424.771Zm25.014,6.72c-.772-.811-1.392-1.521-2.074-2.167a7.2,7.2,0,0,0-10.126.115A7.139,7.139,0,0,0-147,439.5c3.618,3.715,7.316,7.352,10.991,11.013a1.686,1.686,0,0,0,2.572.013c3.692-3.677,7.41-7.33,11.039-11.068a7.133,7.133,0,0,0-.173-10.061,7.189,7.189,0,0,0-10.015-.131C-133.291,429.927-133.923,430.664-134.706,431.492Zm-23.247-24.753c.261-.1.445-.162.629-.23,2.388-.894,4.768-1.813,7.166-2.678a5.182,5.182,0,0,1,7.025,4.128,9.228,9.228,0,0,1-.026,2.592c-.2,1.451-.513,2.885-.77,4.28a.484.484,0,0,0,.113-.093c.112-.133.217-.271.32-.411a14.72,14.72,0,0,0,2.825-9.275A13.857,13.857,0,0,0-157.7,391.946a17.253,17.253,0,0,0-6.947,3.863,2.9,2.9,0,0,1-1.173.556,7.158,7.158,0,0,0-5.7,6.044,17.053,17.053,0,0,0,.777,8.429,12.321,12.321,0,0,0,2.433,4.048,21.05,21.05,0,0,1-.965-7.029,5.664,5.664,0,0,1,4.222-5.394,5.576,5.576,0,0,1,6.353,2.835C-158.448,405.753-158.22,406.218-157.953,406.739Zm41.074-19.875h-33.3v2.757c1.385.653,2.763,1.174,4.01,1.916a15.926,15.926,0,0,1,7.135,9.011c.072.218.346.519.535.525,1.335.046,2.673.024,4.04.024l2.942-11.737,6.161,12.3c.1-.117.143-.146.16-.185q.529-1.309,1.053-2.62c.529-1.329.528-1.329,1.977-1.329h5.289Zm-42.24,22.867c-.606-1.191-1.144-2.333-1.758-3.434a3.146,3.146,0,0,0-3.483-1.543,3.231,3.231,0,0,0-2.514,2.878,15.562,15.562,0,0,0,9.82,15.721,2.173,2.173,0,0,0,1.772.012,15.158,15.158,0,0,0,9.308-10.492,17.758,17.758,0,0,0,.509-4.039,2.8,2.8,0,0,0-3.92-2.747C-152.613,407.274-155.829,408.5-159.119,409.73Zm6.532-20.451c0-.825-.008-1.591,0-2.356a2.37,2.37,0,0,1,2.469-2.5q16.6-.011,33.207,0a2.342,2.342,0,0,1,2.438,2.45q.015,11.836.006,23.672a2.035,2.035,0,0,1-.882,1.869,3.9,3.9,0,0,1-1.858.565c-7.346.038-14.692.023-22.039.031-.253,0-.636.015-.738.168-.456.687-.831,1.427-1.27,2.207h.767q12.21,0,24.421,0a3.611,3.611,0,0,0,3.98-3.958q0-12.729,0-25.459a3.6,3.6,0,0,0-3.931-3.931q-6.18,0-12.36,0-11.429,0-22.858,0a3.483,3.483,0,0,0-3.668,3.011,38.245,38.245,0,0,0-.029,4.1Zm27.515,18.276-5.7-11.377c-.565,2.268-1.1,4.3-1.564,6.356-.162.721-.416,1.008-1.213.968-1.6-.08-3.212-.024-4.617-.024-.2,2.432-.39,4.763-.58,7.085h21.855V399.908c-1.626,0-3.209-.016-4.79.022-.178,0-.423.284-.509.49-.574,1.37-1.112,2.756-1.665,4.135C-124.242,405.513-124.633,406.47-125.072,407.555Z" transform="translate(0 0)" fill="#6836bf"/>
      <path id="Trazado_189853" data-name="Trazado 189853" d="M-68.34,485.4v-2.256a4.664,4.664,0,0,1,4.554,3.467,4.476,4.476,0,0,1-.748,4.087c-.755.967-1.675,1.8-2.555,2.734L-68.8,491.6c.553-.51,1.164-1.074,1.775-1.637a2.546,2.546,0,0,0,.952-2.643A2.552,2.552,0,0,0-68.34,485.4Z" transform="translate(-59.199 -53.367)" fill="#6836bf"/>
      <path id="Trazado_189854" data-name="Trazado 189854" d="M-82.764,501.085H-85.04V490.437h2.276Z" transform="translate(-50.823 -57.139)" fill="#6836bf"/>
      <path id="Trazado_189855" data-name="Trazado 189855" d="M-74.4,507.96l-1.528-1.646,1.83-1.81,1.622,1.532Z" transform="translate(-55.522 -64.395)" fill="#6836bf"/>
      <path id="Trazado_189856" data-name="Trazado 189856" d="M-82.755,518.639a1.2,1.2,0,0,1-1.222,1.149,1.2,1.2,0,0,1-1.148-1.222,1.194,1.194,0,0,1,1.221-1.148A1.2,1.2,0,0,1-82.755,518.639Z" transform="translate(-50.779 -71.056)" fill="#6836bf"/>
    </g>
  </g>
</svg>
