<svg xmlns="http://www.w3.org/2000/svg" xmlns:xlink="http://www.w3.org/1999/xlink" width="190" height="112" viewBox="0 0 190 112">
  <defs>
    <linearGradient id="linear-gradient" x1="0.5" x2="0.5" y2="1" gradientUnits="objectBoundingBox">
      <stop offset="0" stop-color="#f7ca2e" stop-opacity="0"/>
      <stop offset="0.091" stop-color="#f7ca2e" stop-opacity="0.129"/>
      <stop offset="0.283" stop-color="#f7ca2e" stop-opacity="0.388"/>
      <stop offset="0.465" stop-color="#f7ca2e" stop-opacity="0.612"/>
      <stop offset="0.633" stop-color="#f7ca2e" stop-opacity="0.78"/>
      <stop offset="0.784" stop-color="#f7ca2e" stop-opacity="0.902"/>
      <stop offset="0.911" stop-color="#f7ca2e" stop-opacity="0.969"/>
      <stop offset="1" stop-color="#f7ca2e"/>
    </linearGradient>
    <linearGradient id="linear-gradient-2" x1="0.5" x2="0.5" y2="1" gradientUnits="objectBoundingBox">
      <stop offset="0" stop-color="#b13e8d" stop-opacity="0"/>
      <stop offset="0.091" stop-color="#b13e8d" stop-opacity="0.129"/>
      <stop offset="0.283" stop-color="#b13e8d" stop-opacity="0.388"/>
      <stop offset="0.465" stop-color="#b13e8d" stop-opacity="0.612"/>
      <stop offset="0.633" stop-color="#b13e8d" stop-opacity="0.78"/>
      <stop offset="0.784" stop-color="#b13e8d"/>
      <stop offset="0.911" stop-color="#b13e8d" stop-opacity="0.969"/>
      <stop offset="1" stop-color="#b13e8d"/>
    </linearGradient>
    <filter id="Rectángulo_40718" x="41" y="4" width="108" height="108" filterUnits="userSpaceOnUse">
      <feOffset dy="3" input="SourceAlpha"/>
      <feGaussianBlur stdDeviation="3" result="blur"/>
      <feFlood flood-opacity="0.161"/>
      <feComposite operator="in" in2="blur"/>
      <feComposite in="SourceGraphic"/>
    </filter>
  </defs>
  <g id="Grupo_133097" data-name="Grupo 133097" transform="translate(-180 -1849)">
    <g id="Grupo_132842" data-name="Grupo 132842" transform="translate(0 20)">
      <g id="Grupo_128316" data-name="Grupo 128316" transform="translate(0 -87)">
        <rect id="Rectángulo_40586" data-name="Rectángulo 40586" width="190" height="20" transform="translate(180 1961)" fill="none"/>
        <g id="Grupo_108405" data-name="Grupo 108405" transform="translate(209.5 1980)">
          <path id="Rectángulo_5242" data-name="Rectángulo 5242" d="M0,0H12a0,0,0,0,1,0,0V43.333a3,3,0,0,1-3,3H3a3,3,0,0,1-3-3V0A0,0,0,0,1,0,0Z" transform="translate(0 0)" fill="url(#linear-gradient)"/>
        </g>
        <g id="Grupo_108406" data-name="Grupo 108406" transform="translate(340 1968) rotate(180)">
          <path id="Rectángulo_5242-2" data-name="Rectángulo 5242" d="M0,0H12a0,0,0,0,1,0,0V49a3,3,0,0,1-3,3H3a3,3,0,0,1-3-3V0A0,0,0,0,1,0,0Z" transform="translate(0 0)" fill="url(#linear-gradient-2)"/>
        </g>
        <g transform="matrix(1, 0, 0, 1, 180, 1916)" filter="url(#Rectángulo_40718)">
          <path id="Rectángulo_40718-2" data-name="Rectángulo 40718" d="M10,0H80A10,10,0,0,1,90,10V90a0,0,0,0,1,0,0H10A10,10,0,0,1,0,80V10A10,10,0,0,1,10,0Z" transform="translate(50 10)" fill="#f6f6f6"/>
        </g>
      </g>
    </g>
    <path id="Trazado_189945" data-name="Trazado 189945" d="M222.374,284.322c-1.9-1.086-2.576-2.408-2.162-4.159a3.282,3.282,0,0,1,2.362-2.5c.248-.078.449-.1.425-.443a18.578,18.578,0,0,1,2.763-11.446c-.772-.142-1.486-.254-2.191-.405a3.359,3.359,0,0,1-2.915-3.354,3.4,3.4,0,0,1,2.83-3.511c.069-.017.138-.031.263-.059a3.515,3.515,0,0,1-1.061-3.638,3.25,3.25,0,0,1,2.525-2.424c.435-.1.556-.267.562-.709a18.591,18.591,0,0,1,.874-5.369c-.619,0-1.183.005-1.747,0a3.437,3.437,0,0,1-3.635-3.2,3.389,3.389,0,0,1,3-3.711c.459-.075.511-.273.558-.631q1.638-12.275,13.416-16.116a.5.5,0,0,0,.426-.542c.041-.975.433-1.332,1.4-1.334q3.227-.008,6.455,0c.968,0,1.354.36,1.407,1.335.015.278.067.44.357.52a18.638,18.638,0,0,1,9.319,6.026c.32-1.12.62-2.161.915-3.2.341-1.206.692-2.41,1.009-3.622a1.282,1.282,0,0,1,1.413-1.062c2.9.014,5.8,0,8.7.006.987,0,1.273.211,1.541,1.164q3.9,13.888,7.791,27.779,4.007,14.309,8,28.622a1.124,1.124,0,0,0,.7.8,3.293,3.293,0,0,1,2.032,3.088c.037,2.3.018,4.593.007,6.89a1.176,1.176,0,0,1-1.306,1.3c-.1,0-.194,0-.29,0h-63.1a3.513,3.513,0,0,1-3.773-3.662A3.677,3.677,0,0,1,222.374,284.322Zm19.395-23.293,0,.012.14.135.013.02a2.2,2.2,0,0,0,3-.082l-.019.014.171-.164-.023.024.152-.177-.01.015.2-.281-.029.029.11-.2.009-.05a.367.367,0,0,0,.13-.38,1.315,1.315,0,0,0,.03-1.053c-.24-.972-.52-1.175-1.507-1.1-.65.051-1.3.145-1.951.143a.957.957,0,0,0-1.03.895,1.848,1.848,0,0,0,.124,1.406.3.3,0,0,0,.133.289v0l.123.194-.028-.027.14.194-.02-.009Zm-2.733,12.428.135.189-.008.017a2.284,2.284,0,0,0,2.8.612,2.23,2.23,0,0,0,1.194-2.463,1.975,1.975,0,0,0-1.532-1.794,2.153,2.153,0,0,0-2.382.592,2.065,2.065,0,0,0-.438,2.386.3.3,0,0,0,.137.3l-.005-.01.125.2Zm3.21-23.613-.029-.021.128.175.011.034a2.3,2.3,0,0,0,2.951.417,2.217,2.217,0,0,0,.9-2.7,1.739,1.739,0,0,0-1.452-1.417c-.948-.136-1.96-.175-2.581.816a2.2,2.2,0,0,0-.063,2.5Zm-7.529,1.968c-.082.155.069.172.14.237.472,1.2.06,1.84-1.226,1.937q-3.743.283-7.484.587c-.49.04-.961.143-1.15.7-.316,1.032.19,1.7,1.3,1.615,3.875-.288,7.747-.6,11.621-.91q7.939-.63,15.878-1.263,4.583-.364,9.166-.726a1.212,1.212,0,0,0,1.146-.744,1.037,1.037,0,0,0-.341-1.284c-.559-.549-1.234-.263-1.853-.222-2.285.154-4.565.364-6.85.525-.966.068-1.285-.214-1.483-1.173a1.332,1.332,0,0,1,1.435-1.149c1.614-.108,3.225-.255,4.839-.359.51-.033.63-.224.408-.666a11.67,11.67,0,0,0-.544-2.217.481.481,0,0,0-.565-.4c-.98.022-1.961.021-2.942.028h-7.99c.047.139.074.226.107.312.043.112.1.221.134.335a4.567,4.567,0,0,1-1.158,4.8,4.3,4.3,0,0,1-4.661,1.126,4.789,4.789,0,0,1-3.216-3.859,5.51,5.51,0,0,1,.492-2.718h-8.067c-.5-.008-1.009-.022-1.514-.023-1.191,0-1.191,0-1.564,1.172a5.763,5.763,0,0,0-.443,2.009,7.761,7.761,0,0,0-.217,2.21c-.127.435.146.405.431.379.738-.068,1.477-.172,2.216-.184,1.324-.021,2.644-.469,3.973-.056Zm21.493,19.318c-1.488-.294-2.975-.594-4.483-.769L244.372,269c.209.308.33.48.445.657a4.686,4.686,0,0,1-2.747,7.044c-2.536.639-4.723-.692-5.654-3.441a4.591,4.591,0,0,1,2.247-5.134c-.066-.057-.1-.106-.135-.113-3.326-.592-6.653-1.177-9.978-1.775a.407.407,0,0,0-.464.237,15.626,15.626,0,0,0-2.76,8.112,10.457,10.457,0,0,0,0,2.274c-.067.42.205.261.4.23,1.421-.235,2.84-.483,4.263-.7.67-.1,1.355-.368,2.009.07.649,1.191.358,1.835-.951,2.1-.141.029-.283.058-.425.082q-3.525.585-7.049,1.17c-.584.1-1.052.346-1.134,1.015.048,1.015.551,1.442,1.544,1.277,2.4-.4,4.8-.814,7.2-1.217q10.131-1.7,20.262-3.39c2.925-.489,5.852-.97,8.776-1.465a1.12,1.12,0,0,0,.815-1.89c-.36-.568-.9-.454-1.425-.365-2.422.408-4.843.827-7.267,1.226-1.133.187-1.582-.168-1.692-1.284a1.315,1.315,0,0,1,1.182-1c1.491-.242,2.983-.476,4.468-.752.318-.059.9.155.893-.4-.007-.522-.581-.339-.915-.445A.2.2,0,0,0,256.209,271.129Zm13.78-36.411h-9.033a19.153,19.153,0,0,1,.844,4.288c.026.367.259.318.494.353a3.431,3.431,0,0,1,2.566,1.7,3.526,3.526,0,0,1,.312,2.9h9.78c-.671-2.4-1.321-4.757-2-7.111-.2-.71-.15-1.722-.7-2.043C271.677,234.467,270.758,234.722,269.989,234.719Zm0,11.607h-7.9c.179.828.371,1.624.517,2.427.075.41.21.58.681.609a3.255,3.255,0,0,1,2.944,2.122,3.35,3.35,0,0,1-.567,3.594c-.119.149-.379.221-.332.484h4.653c2.555.008,5.109.008,7.664.031.436,0,.539-.113.418-.536q-1.186-4.164-2.339-8.338c-.082-.294-.2-.431-.538-.425C273.461,246.32,271.726,246.317,269.99,246.325Zm0-13.976c.407.008.815,0,1.22.028.347.022.484-.081.378-.443q-.8-2.751-1.589-5.506c-.264-1-.534-2-.787-3-.076-.3-.263-.34-.532-.339q-3.334.012-6.668,0c-.274,0-.446.051-.528.346-.682,2.463-1.384,4.92-2.058,7.386-.163.6.472,1.555,1,1.555Q265.207,232.367,269.99,232.349Zm0,34.818h11.461c-.835-3-1.659-5.943-2.472-8.891a.441.441,0,0,0-.508-.375c-2.826.018-5.652.022-8.478.03h-9.282a18.894,18.894,0,0,1,.58,6.557c-.023.26-.008.443.322.527a3.277,3.277,0,0,1,2.232,1.9.448.448,0,0,0,.5.282Q267.166,267.176,269.987,267.167ZM264.492,284.6a3.647,3.647,0,0,1,.7,3.393,1.577,1.577,0,0,0,.811.083q6.778.007,13.556,0,3.625,0,7.249,0c.316,0,.609.062.6-.448-.027-1.764,0-3.528-.018-5.292a1.13,1.13,0,0,0-1.234-1.217c-1.183-.015-2.367.01-3.55.017l-15.345-.024q-2.57,0-5.14,0c-.178,0-.517-.076-.507.1.038.716.162,1.429.272,2.14.006.038.168.07.26.076A3.753,3.753,0,0,1,264.492,284.6Zm-11.931,0c.247-.92.539-1.158,1.465-1.161,1.668-.005,3.336-.01,5,.005.373,0,.482-.077.435-.484a18,18,0,0,0-.671-3.257c-.342-1.115-.369-1.124-1.569-.767-2.834.456-5.666.932-8.505,1.354-.656.1-.814.335-.815,1a4.416,4.416,0,0,1-3.516,4.311,4.572,4.572,0,0,1-5.14-2.2c-.25-.452-.207-1.2-.671-1.337a4.022,4.022,0,0,0-1.626.216l-6.332,1.063a20.708,20.708,0,0,0,2.175.1,1.161,1.161,0,0,1,1.206,1.31c-.088.635-.575,1-1.372,1-2.562.005-5.125,0-7.687,0-.884,0-1.188.272-1.346,1.156.116.864.464,1.16,1.407,1.161q4.672.006,9.344,0h27.162c1.013,0,1.324-.246,1.487-1.163-.117-.86-.458-1.153-1.4-1.155-2.525-.006-5.051,0-7.576,0C253.1,285.759,252.806,285.516,252.562,284.6Zm9.2-16.546c-.112-.6-.552-.786-1.086-.879-2.441-.425-4.88-.866-7.322-1.288-1.212-.209-1.474-.531-1.347-1.741.452-.741,1.138-.674,1.85-.544q2.268.413,4.54.807c.25.043.563.207.593-.31a14.671,14.671,0,0,0-.593-5.617c-.088-.324-.2-.643-.258-.972-.113-.64-.439-.833-1.1-.764-1.9.2-3.8.321-5.7.476-1.211.1-2.423.2-3.663.307.061.205.1.342.143.478a4.465,4.465,0,0,1-1.2,4.719,4.348,4.348,0,0,1-4.674,1.1c-2.029-.626-3.163-2.434-3.172-4.9l.117-.719-3.857.335-6.471.5c1.33.364,2.659.585,3.982.84.813.157,1.218.673,1.112,1.331a1.171,1.171,0,0,1-1.512.944c-.5-.077-1-.162-1.5-.25-2.018-.356-4.034-.722-6.054-1.07-.9-.155-1.259.052-1.573.842-.07.861.221,1.286,1.04,1.433,2.233.4,4.47.785,6.705,1.177q10.985,1.925,21.97,3.852c2.544.447,5.086.908,7.631,1.345A1.129,1.129,0,0,0,261.761,268.056Zm-16.165-38c.007-2.174.008-4.347.029-6.521,0-.343-.091-.456-.444-.451q-1.884.029-3.768,0c-.353-.006-.447.108-.444.451.021,2.174.022,4.347.029,6.521a1.277,1.277,0,0,1-.5.928,1.147,1.147,0,0,1-1.235.079,1.163,1.163,0,0,1-.611-1.144q0-2.456,0-4.906a.806.806,0,0,0-.2-.018c-.093.022-.183.058-.275.089a15.863,15.863,0,0,0-6.846,4.445,15.211,15.211,0,0,0-3.853,7.491,9.23,9.23,0,0,0-.338,1.768c-.089.463.034.571.491.564,1.692-.026,3.384-.019,5.077-.006A1.176,1.176,0,0,1,234,240.647c-.088.636-.576,1.008-1.37,1.01-2.562.006-5.125,0-7.687,0-.883,0-1.188.272-1.346,1.156.118.886.463,1.162,1.481,1.162h30.149c2.15,0,4.3.007,6.45,0,.959,0,1.345-.437,1.291-1.39-.145-.742-.666-.931-1.336-.929q-3.8.008-7.61,0c-.94,0-1.213-.226-1.457-1.158.244-.935.515-1.158,1.454-1.161,1.667-.005,3.334,0,5,0,.267,0,.511.054.461-.394a14.438,14.438,0,0,0-1.506-5.316,15.233,15.233,0,0,0-4.815-6,11.621,11.621,0,0,0-3.291-1.963,7.021,7.021,0,0,0-1.9-.7v3.205c-.008.525-.019,1.05-.025,1.575-.01.9-.352,1.38-1.045,1.452C246.239,231.264,245.815,230.891,245.6,230.053Zm23.955,39.486c-1.422-.008-2.846.013-4.267-.036-.8-.028-1.447.005-1.838.907a2.951,2.951,0,0,1-1.727,1.29,3.44,3.44,0,0,1,1.884,3.68,3.274,3.274,0,0,1-2.455,2.828c-.172.053-.332.079-.294.317a.3.3,0,0,0,.356.272l.649-.025q11.2.012,22.4.032c.409,0,.42-.15.327-.479q-1.187-4.175-2.344-8.357c-.093-.339-.224-.463-.584-.461C277.621,269.527,273.586,269.53,269.552,269.538Zm-26.423,13.887a2.354,2.354,0,0,0,2.488-2.161c0-.278,0-.455-.384-.382-1.251.237-2.506.462-3.767.641-.473.067-.417.276-.276.57A2.234,2.234,0,0,0,243.129,283.425Z" transform="translate(21.671 1648.583)" fill="#6836bf"/>
  </g>
</svg>
