<svg xmlns="http://www.w3.org/2000/svg" width="100" height="100" viewBox="0 0 100 100">
  <g id="equipo_1_" data-name="equipo (1)" transform="translate(0 0)">
    <path id="Trazado_189545" data-name="Trazado 189545" d="M100,41.935H96.375l-5.4,2.842a8.018,8.018,0,0,0-1.922-.791l-6.795-1.7v-.773a11.327,11.327,0,0,0,4.84-9.256V29.439A11.588,11.588,0,0,0,76.153,17.747c-.306-.008-.608,0-.911.018L77,13.64,68.462,5.1,63.427,8.379a27.282,27.282,0,0,0-6.037-2.5L56.147,0H43.854L42.611,5.876a27.251,27.251,0,0,0-6.037,2.5L31.539,5.1,23,13.637l1.732,4.128c-.066,0-.129-.015-.2-.017A11.295,11.295,0,0,0,12.9,29.032v3.226a11.322,11.322,0,0,0,4.839,9.254v.774l-4.432,1.108L5.276,38.71H0V72.131l15.868,5.288h3.09l.386-1.351,4.864,2.919a5.022,5.022,0,0,0,4.843,4.865,5.021,5.021,0,0,0,4.839,4.839,5.021,5.021,0,0,0,4.839,4.839,5.016,5.016,0,0,0,7.843,3.983L48,98.775A4.911,4.911,0,0,0,51.245,100h.3a4.911,4.911,0,0,0,4.9-4.845,4.906,4.906,0,0,0,4.839-4.839,4.906,4.906,0,0,0,4.839-4.843,4.96,4.96,0,0,0,4.845-4.949,4.722,4.722,0,0,0-.024-.484L100,65.513Zm-16.129-12.5v2.819a8.1,8.1,0,0,1-4.037,6.979l-.806.466.006,5.1,8.058,2.013L69.355,56.156V51.811a8.025,8.025,0,0,0-2.31-5.621l5.536-1.383V39.7l-.8-.465a8.087,8.087,0,0,1-4.034-6.976V29.032a8.064,8.064,0,0,1,8.314-8.06,8.339,8.339,0,0,1,7.815,8.466ZM52.432,54.888l-7.3-2.334A19.918,19.918,0,0,0,34.8,52.084l-.925.2v-.477a4.835,4.835,0,0,1,3.664-4.7l9.239-2.308V39.7l-.8-.465a8.087,8.087,0,0,1-4.034-6.976V29.032a8.064,8.064,0,0,1,8.314-8.06,8.339,8.339,0,0,1,7.815,8.466v2.819a8.1,8.1,0,0,1-4.037,6.979l-.806.466.006,5.1,9.237,2.308a4.835,4.835,0,0,1,3.664,4.7v6.044l-.4.209h-.988l-9.916-2.834a10.167,10.167,0,0,0-2.394-.343ZM34.232,24.14A17.73,17.73,0,0,1,65.7,24.01a11.217,11.217,0,0,0-1.185,5.022v3.226a11.322,11.322,0,0,0,4.839,9.254v.774L62.9,43.9,56.45,42.286v-.773a11.327,11.327,0,0,0,4.84-9.256V29.438A11.588,11.588,0,0,0,50.346,17.746,11.292,11.292,0,0,0,38.709,29.032v3.226a11.322,11.322,0,0,0,4.839,9.254v.774L37.1,43.9l-6.453-1.615v-.773a11.326,11.326,0,0,0,4.84-9.256V29.438a11.888,11.888,0,0,0-1.251-5.3Zm-7.418-9.755,5.153-5.153L36.5,12.184l.868-.532a24.068,24.068,0,0,1,6.984-2.9l.992-.238,1.122-5.292h7.063l1.119,5.29.992.237a24.092,24.092,0,0,1,6.984,2.9l.868.532,4.535-2.952,5.147,5.148-1.829,4.283a11.274,11.274,0,0,0-3.4,2.263c-.066.065-.123.134-.187.2a20.946,20.946,0,0,0-35.574.1A11.377,11.377,0,0,0,28.624,18.7ZM20.967,44.808V39.7l-.8-.465a8.087,8.087,0,0,1-4.034-6.976V29.032a8.064,8.064,0,0,1,8.314-8.06,8.339,8.339,0,0,1,7.815,8.466v2.819a8.1,8.1,0,0,1-4.037,6.979l-.806.466.006,5.1,5.534,1.383a8.025,8.025,0,0,0-2.31,5.621v1.195l-5.031,1.118.131-.457.061-2.981L17.3,45.724ZM3.226,41.935H4.4L16,48.7,10.148,72.113,3.226,69.8ZM16.39,74.193l-3.175-1.058L18.9,50.394l3.679,2.145V53L16.526,74.193Zm11.029,4.643a1.821,1.821,0,0,1,.529-1.279l2.835-2.835a1.809,1.809,0,0,1,2.558,2.558l-2.835,2.835a1.809,1.809,0,0,1-3.087-1.279Zm4.839,4.839a1.821,1.821,0,0,1,.529-1.279l2.835-2.835a1.809,1.809,0,0,1,2.558,2.558l-2.835,2.835a1.809,1.809,0,0,1-3.087-1.279ZM37.1,88.514a1.821,1.821,0,0,1,.529-1.279L40.461,84.4a1.809,1.809,0,0,1,2.558,2.558l-2.835,2.835A1.809,1.809,0,0,1,37.1,88.514Zm6.647,6.647a1.809,1.809,0,0,1-1.279-3.087L45.3,89.239A1.809,1.809,0,0,1,47.858,91.8l-2.835,2.835A1.821,1.821,0,0,1,43.743,95.161Zm7.8,1.613h-.3a1.671,1.671,0,0,1-1.111-.421l-1.207-1.064,1.211-1.211a5.015,5.015,0,0,0,1.016-1.5L52.621,93.8a1.683,1.683,0,0,1-1.077,2.975ZM66.007,82.258h-.279a1.73,1.73,0,0,1-1.11-.4l-8.747-7.289-2.067,2.479L62.3,84.122A1.683,1.683,0,0,1,61.221,87.1h-.352a1.682,1.682,0,0,1-1.076-.391l-8.761-7.3-2.067,2.479,8.494,7.078a1.681,1.681,0,0,1-1.077,2.972,2.664,2.664,0,0,1-1.7-.614l-3.6-3A5.017,5.017,0,0,0,46.754,85.5a5.021,5.021,0,0,0-4.839-4.839,5.021,5.021,0,0,0-4.839-4.839A5.022,5.022,0,0,0,28.5,72.442l-2.835,2.835a4.971,4.971,0,0,0-.452.552l-4.954-2.973,4.343-15.2,10.889-2.421a16.616,16.616,0,0,1,8.654.391l2.376.76-8.055,4.028a5.376,5.376,0,0,0-2.984,4.832v.319A5.4,5.4,0,0,0,43.666,70.2l6.006-3.6a3.329,3.329,0,0,1,3.868.373L67.168,79.232a1.736,1.736,0,0,1-1.16,3.026ZM96.774,63.519,69.6,77.107c-.088-.094-.18-.183-.277-.269L55.7,64.573a6.491,6.491,0,0,0-7.687-.743L42,67.432a2.175,2.175,0,0,1-3.294-1.868v-.319a2.164,2.164,0,0,1,1.2-1.947l9-4.5a7.01,7.01,0,0,1,5.027-.466l10.136,2.9,2.455.061,30.247-15.92Zm0,0" transform="translate(0)" fill="#6836bf"/>
  </g>
</svg>
