<svg xmlns="http://www.w3.org/2000/svg" xmlns:xlink="http://www.w3.org/1999/xlink" width="190" height="113" viewBox="0 0 190 113">
  <defs>
    <linearGradient id="linear-gradient" x1="0.5" x2="0.5" y2="1" gradientUnits="objectBoundingBox">
      <stop offset="0" stop-color="#f7ca2e" stop-opacity="0"/>
      <stop offset="0.091" stop-color="#f7ca2e" stop-opacity="0.129"/>
      <stop offset="0.283" stop-color="#f7ca2e" stop-opacity="0.388"/>
      <stop offset="0.465" stop-color="#f7ca2e" stop-opacity="0.612"/>
      <stop offset="0.633" stop-color="#f7ca2e" stop-opacity="0.78"/>
      <stop offset="0.784" stop-color="#f7ca2e" stop-opacity="0.902"/>
      <stop offset="0.911" stop-color="#f7ca2e" stop-opacity="0.969"/>
      <stop offset="1" stop-color="#f7ca2e"/>
    </linearGradient>
    <linearGradient id="linear-gradient-2" x1="0.5" x2="0.5" y2="1" gradientUnits="objectBoundingBox">
      <stop offset="0" stop-color="#b13e8d" stop-opacity="0"/>
      <stop offset="0.091" stop-color="#b13e8d" stop-opacity="0.129"/>
      <stop offset="0.283" stop-color="#b13e8d" stop-opacity="0.388"/>
      <stop offset="0.465" stop-color="#b13e8d" stop-opacity="0.612"/>
      <stop offset="0.633" stop-color="#b13e8d" stop-opacity="0.78"/>
      <stop offset="0.784" stop-color="#b13e8d"/>
      <stop offset="0.911" stop-color="#b13e8d" stop-opacity="0.969"/>
      <stop offset="1" stop-color="#b13e8d"/>
    </linearGradient>
    <filter id="Rectángulo_40719" x="41" y="5" width="108" height="108" filterUnits="userSpaceOnUse">
      <feOffset dy="3" input="SourceAlpha"/>
      <feGaussianBlur stdDeviation="3" result="blur"/>
      <feFlood flood-opacity="0.161"/>
      <feComposite operator="in" in2="blur"/>
      <feComposite in="SourceGraphic"/>
    </filter>
  </defs>
  <g id="Grupo_128319" data-name="Grupo 128319" transform="translate(-184 -904)">
    <rect id="Rectángulo_40586" data-name="Rectángulo 40586" width="190" height="20" transform="translate(184 950)" fill="none"/>
    <g id="Grupo_108405" data-name="Grupo 108405" transform="translate(213.5 968)">
      <path id="Rectángulo_5242" data-name="Rectángulo 5242" d="M0,0H12a0,0,0,0,1,0,0V43.333a3,3,0,0,1-3,3H3a3,3,0,0,1-3-3V0A0,0,0,0,1,0,0Z" transform="translate(0 0)" fill="url(#linear-gradient)"/>
    </g>
    <g id="Grupo_108406" data-name="Grupo 108406" transform="translate(344 956) rotate(180)">
      <path id="Rectángulo_5242-2" data-name="Rectángulo 5242" d="M0,0H12a0,0,0,0,1,0,0V49a3,3,0,0,1-3,3H3a3,3,0,0,1-3-3V0A0,0,0,0,1,0,0Z" transform="translate(0 0)" fill="url(#linear-gradient-2)"/>
    </g>
    <g id="Grupo_128318" data-name="Grupo 128318">
      <g transform="matrix(1, 0, 0, 1, 184, 904)" filter="url(#Rectángulo_40719)">
        <path id="Rectángulo_40719-2" data-name="Rectángulo 40719" d="M10,0H80A10,10,0,0,1,90,10V90a0,0,0,0,1,0,0H10A10,10,0,0,1,0,80V10A10,10,0,0,1,10,0Z" transform="translate(50 11)" fill="#f6f6f6"/>
      </g>
      <g id="obediente" transform="translate(82.728 836.516)">
        <path id="Trazado_189511" data-name="Trazado 189511" d="M77.362,68.673h-2.2V55.8h2.2a1.083,1.083,0,1,0,0-2.166H55.637V50.759A3.566,3.566,0,0,0,52.07,47.2H50.124V44.968A3.979,3.979,0,0,0,46.257,41V23.532a1.086,1.086,0,0,0-2.171,0V41H40.458V15.97h3.629v2.509a1.086,1.086,0,0,0,2.171,0v-2.87a1.809,1.809,0,0,0-1.809-1.8H43.357V10.133a5.146,5.146,0,0,0,3.936-3.925H60.6V8.182L49.984,28.3a1.513,1.513,0,0,0-1.156,2.263l2.608,4.5a1.525,1.525,0,0,0,1.316.758h10.22a1.083,1.083,0,1,0,0-2.166H53.128l-1.855-3.2H72.1l-1.855,3.2h-2.2a1.083,1.083,0,1,0,0,2.166h2.58a1.525,1.525,0,0,0,1.316-.758l2.608-4.5A1.513,1.513,0,0,0,73.387,28.3L62.771,8.182V6.207h4.064a1.083,1.083,0,1,0,0-2.166H47.293a5.141,5.141,0,0,0-10.043,0H17.708a1.083,1.083,0,1,0,0,2.166h4.064V8.182L11.157,28.3A1.513,1.513,0,0,0,10,30.561h0l2.608,4.5a1.525,1.525,0,0,0,1.316.758H31.791a1.525,1.525,0,0,0,1.316-.758l2.608-4.5A1.513,1.513,0,0,0,34.559,28.3L23.944,8.182V6.207H37.25a5.146,5.146,0,0,0,3.936,3.925V13.8H40.1a1.809,1.809,0,0,0-1.809,1.8V41a3.979,3.979,0,0,0-3.867,3.967V47.2H32.473a3.566,3.566,0,0,0-3.567,3.557v2.874H14.722a8.6,8.6,0,1,0,0,17.2H20.81V72.4a1.52,1.52,0,0,0,2.385,1.246l2.654-1.832L28.5,73.646A1.52,1.52,0,0,0,30.887,72.4V70.838H77.362a1.083,1.083,0,1,0,0-2.165ZM60.6,28.287H52.443L60.6,12.832Zm2.171-15.456,8.156,15.456H62.771Zm-41,0V28.287H13.616Zm9.643,20.826H14.3l-1.855-3.2H33.271Zm.685-5.37H23.944V12.832ZM39.3,5.124a2.967,2.967,0,1,1,2.967,2.959A2.966,2.966,0,0,1,39.3,5.124ZM36.591,44.968a1.809,1.809,0,0,1,1.809-1.8h7.743a1.809,1.809,0,0,1,1.809,1.8V47.2H36.591Zm-21.869,23.7a6.437,6.437,0,1,1,0-12.874h1.511a4.9,4.9,0,0,0-.857,2.773V65.9a4.9,4.9,0,0,0,.857,2.773ZM28.716,71.16l-2.25-1.553a1.088,1.088,0,0,0-1.236,0l-2.25,1.553V60.619h5.735ZM72.989,58.454H49.522a1.083,1.083,0,1,0,0,2.166H72.989v3.233H49.522a1.083,1.083,0,1,0,0,2.166H72.989v2.655h-42.1V60.619h9.161a1.083,1.083,0,1,0,0-2.166H20.328a1.083,1.083,0,1,0,0,2.166h.481v8.054h-.481A2.78,2.78,0,0,1,17.547,65.9V58.573A2.78,2.78,0,0,1,20.328,55.8H37.784a1.083,1.083,0,1,0,0-2.166H31.078V50.759a1.4,1.4,0,0,1,1.4-1.392h19.6a1.4,1.4,0,0,1,1.4,1.392v2.874H42.851a1.083,1.083,0,1,0,0,2.166H72.989Z" transform="translate(154 86.526)" fill="#6836bf"/>
      </g>
    </g>
  </g>
</svg>
