<svg xmlns="http://www.w3.org/2000/svg" width="45.635" height="70" viewBox="0 0 45.635 70">
  <g id="Grupo_128121" data-name="Grupo 128121" transform="translate(-109.981 -116.83)" style="isolation: isolate">
    <path id="Trazado_187919" data-name="Trazado 187919" d="M127.867,186.83a5.755,5.755,0,0,1-2.6-1.4,5.219,5.219,0,0,1-1.331-2.643,1.142,1.142,0,0,0-.446-.654,3.043,3.043,0,0,1-1.494-2.674c0-2.984-.009-5.969.007-8.953a.9.9,0,0,0-.451-.884,3.423,3.423,0,0,1-1.559-2.68,24.594,24.594,0,0,0-3.892-10.672c-.818-1.34-1.68-2.652-2.507-3.986a23.113,23.113,0,0,1,6.27-31.4,22.141,22.141,0,0,1,10.754-3.941,4.4,4.4,0,0,0,.526-.114h3.411c1.357.253,2.731.438,4.067.774a22.009,22.009,0,0,1,9.441,5.1c.7.627.824,1.185.382,1.7s-1.033.473-1.721-.146a20.732,20.732,0,0,0-34.294,11.463,21.742,21.742,0,0,0,2.961,15.592c1.634,2.729,3.269,5.463,4.739,8.281A18.994,18.994,0,0,1,122,166.537a1.659,1.659,0,0,0,1.879,1.7q8.9.006,17.8,0c1.214,0,1.773-.473,1.895-1.666a27.044,27.044,0,0,1,4.13-11.311,58.551,58.551,0,0,0,3.93-6.776,20.656,20.656,0,0,0-1.809-20.724,1.579,1.579,0,0,1-.344-1.042,1.21,1.21,0,0,1,.773-.793,1.379,1.379,0,0,1,1.076.482,19.729,19.729,0,0,1,2.995,5.717A23.514,23.514,0,0,1,151.88,152.5c-1.409,2.335-2.848,4.657-4.141,7.057a19.447,19.447,0,0,0-2.129,7.363,3.8,3.8,0,0,1-1.577,2.757,1.183,1.183,0,0,0-.405.82c-.029,2.847-.04,5.7-.008,8.542a3.2,3.2,0,0,1-1.684,3.18.639.639,0,0,0-.27.416,4.643,4.643,0,0,1-3.675,4.082.6.6,0,0,0-.162.111Zm-3.8-10.714h17.453v-1.847H130.987a4.684,4.684,0,0,1-.681-.019,1.006,1.006,0,0,1-.167-1.954,2.537,2.537,0,0,1,.739-.073q4.945-.007,9.89,0h.742v-1.887H124.086v1.887c.724,0,1.4-.009,2.082,0,.75.013,1.187.4,1.188,1.024s-.419,1.009-1.18,1.021c-.7.011-1.393,0-2.111,0Zm0,2.114c-.012.161-.025.27-.028.38-.044,1.709.082,1.841,1.763,1.841h14.25a1.64,1.64,0,0,0,.738-.041c.285-.163.637-.419.709-.7a6.179,6.179,0,0,0,.032-1.478Zm1.963,4.311a2.528,2.528,0,0,0,2.4,2.222q4.363.054,8.728,0a2.477,2.477,0,0,0,2.389-2.223Z" transform="translate(0 0)" fill="#6836bf"/>
    <path id="Trazado_187920" data-name="Trazado 187920" d="M192.033,221.427a8.345,8.345,0,0,1-1.635-.971.952.952,0,0,0-1.353-.18,7.686,7.686,0,0,1-1.5.63.632.632,0,0,0-.5.682c-.056,1.983-.891,2.772-2.887,2.773-.25,0-.5,0-.75,0a2.377,2.377,0,0,1-2.578-2.539.787.787,0,0,0-.665-.911,9.744,9.744,0,0,1-1.693-.707.628.628,0,0,0-.836.124c-1.38,1.3-2.541,1.264-3.9-.088-.242-.241-.489-.477-.721-.728a2.294,2.294,0,0,1,.02-3.359.933.933,0,0,0,.2-1.343,7.708,7.708,0,0,1-.63-1.579.619.619,0,0,0-.681-.5c-1.882-.061-2.705-.932-2.709-2.825,0-.273,0-.547,0-.82A2.378,2.378,0,0,1,171.8,206.5a.807.807,0,0,0,.918-.665c.176-.561.5-1.076.67-1.637a1,1,0,0,0-.109-.816c-1.359-1.55-1.345-2.6.116-4.066A3.512,3.512,0,0,1,175.33,198a2.361,2.361,0,0,1,2.254.853c.351.417.7.54,1.168.214a.76.76,0,0,1,.246-.116c1.193-.3,1.994-.788,1.952-2.289-.029-1.016,1.076-1.742,2.171-1.789.477-.021.955-.011,1.432,0a2.33,2.33,0,0,1,2.474,2.487,1.192,1.192,0,0,0,.889,1.326c1.109.481,1.983.845,2.994-.312.663-.759,2-.509,2.8.214.4.366.788.758,1.161,1.156a2.259,2.259,0,0,1-.022,3.3c-.664.612-.779,1.134-.274,1.837a.182.182,0,0,1,.031.061c.253,1.053.693,1.687,2,1.622a2.159,2.159,0,0,1,2.028,2.259c.017.5.014,1,0,1.5a2.293,2.293,0,0,1-2.362,2.387c-.841-.019-1.117.306-1.418,1.04-.434,1.058-.771,1.882.288,2.846a1.815,1.815,0,0,1,.056,2.412,11.587,11.587,0,0,1-1.915,1.918,3.442,3.442,0,0,1-1.132.4Zm-16.326-21.492c-.34.329-.625.647-.953.911-.474.382-.433.673,0,1.093a2.4,2.4,0,0,1,.478,3.213,6.8,6.8,0,0,0-.522,1.183,2.6,2.6,0,0,1-2.908,2.2c-.375-.025-.547.157-.542.526,0,.228,0,.456,0,.683,0,.916,0,.916.884.944a2.377,2.377,0,0,1,2.347,1.73c.24.66.509,1.312.8,1.952a2.3,2.3,0,0,1-.411,2.774c-.772.787-.565.754.043,1.38a2.688,2.688,0,0,1,.239.243c.373.5.692.489,1.141.024a2.284,2.284,0,0,1,2.976-.467,15.6,15.6,0,0,0,1.567.659,2.42,2.42,0,0,1,2,2.689c.019.468.186.673.653.637a3,3,0,0,1,.613,0c.669.087.927-.15.9-.865a2.318,2.318,0,0,1,1.71-2.422c.551-.208,1.1-.426,1.63-.686a2.406,2.406,0,0,1,3.26.5c.4.409.7.432,1.041-.017a3.163,3.163,0,0,1,.287-.292c.689-.69.689-.69.025-1.379a2.38,2.38,0,0,1-.5-2.932c.216-.475.428-.955.6-1.448.551-1.6,1.124-2.052,2.844-2.07.544-.006.751-.2.69-.729a3.618,3.618,0,0,1,0-.41c0-1.012,0-1.012-.99-1.024a2.394,2.394,0,0,1-2.509-1.795c-.212-.574-.46-1.136-.714-1.694a2.369,2.369,0,0,1,.44-2.831,3.577,3.577,0,0,1,.338-.338c.378-.31.434-.615.022-.946a5.014,5.014,0,0,1-.387-.385c-.655-.656-.655-.656-1.322-.006a2.426,2.426,0,0,1-3.153.515c-.573-.272-1.171-.49-1.761-.726A2.313,2.313,0,0,1,185,198.14a4.8,4.8,0,0,1,0-.615c.034-.434-.142-.644-.589-.611-.181.013-.364,0-.546,0-.989,0-.989,0-1.014,1.011a2.367,2.367,0,0,1-1.8,2.43,15.6,15.6,0,0,0-1.455.574,2.457,2.457,0,0,1-3.37-.551C176.086,200.243,175.928,200.123,175.707,199.935Z" transform="translate(-51.13 -67.36)" fill="#6836bf"/>
    <path id="Trazado_187921" data-name="Trazado 187921" d="M222.34,255.528a7.464,7.464,0,1,1,7.488,7.458A7.5,7.5,0,0,1,222.34,255.528Zm2.048-.1a5.417,5.417,0,1,0,5.5-5.357A5.444,5.444,0,0,0,224.388,255.427Z" transform="translate(-96.997 -113.252)" fill="#6836bf"/>
  </g>
</svg>
