<svg xmlns="http://www.w3.org/2000/svg" width="113.548" height="128" viewBox="0 0 113.548 128">
  <g id="Accept" transform="translate(-40 -8)">
    <path id="Trazado_189896" data-name="Trazado 189896" d="M76.387,464H66.065a2.065,2.065,0,1,0,0,4.129H76.387a2.065,2.065,0,0,0,0-4.129Z" transform="translate(-17.806 -338.323)" fill="#6836bf"/>
    <path id="Trazado_189897" data-name="Trazado 189897" d="M132.129,464h-2.065a2.065,2.065,0,1,0,0,4.129h2.065a2.065,2.065,0,0,0,0-4.129Z" transform="translate(-65.29 -338.323)" fill="#6836bf"/>
    <path id="Trazado_189898" data-name="Trazado 189898" d="M82.065,116.387h66.065a2.065,2.065,0,0,0,2.065-2.065v-8.258A2.065,2.065,0,0,0,148.129,104H82.065A2.065,2.065,0,0,0,80,106.065v8.258A2.065,2.065,0,0,0,82.065,116.387Zm2.065-8.258h61.935v4.129H84.129Z" transform="translate(-29.677 -71.226)" fill="#6836bf"/>
    <path id="Trazado_189899" data-name="Trazado 189899" d="M82.065,180.387h66.065a2.065,2.065,0,0,0,2.065-2.065v-8.258A2.065,2.065,0,0,0,148.129,168H82.065A2.065,2.065,0,0,0,80,170.065v8.258A2.065,2.065,0,0,0,82.065,180.387Zm2.065-8.258h61.935v4.129H84.129Z" transform="translate(-29.677 -118.71)" fill="#6836bf"/>
    <path id="Trazado_189900" data-name="Trazado 189900" d="M82.065,244.387h66.065a2.065,2.065,0,0,0,2.065-2.065v-8.258A2.065,2.065,0,0,0,148.129,232H82.065A2.065,2.065,0,0,0,80,234.065v8.258A2.065,2.065,0,0,0,82.065,244.387Zm2.065-8.258h61.935v4.129H84.129Z" transform="translate(-29.677 -166.194)" fill="#6836bf"/>
    <path id="Trazado_189901" data-name="Trazado 189901" d="M121.29,296H82.065a2.065,2.065,0,1,0,0,4.129H121.29a2.065,2.065,0,1,0,0-4.129Z" transform="translate(-29.677 -213.677)" fill="#6836bf"/>
    <path id="Trazado_189902" data-name="Trazado 189902" d="M108.9,320H82.065a2.065,2.065,0,1,0,0,4.129H108.9a2.065,2.065,0,0,0,0-4.129Z" transform="translate(-29.677 -231.484)" fill="#6836bf"/>
    <path id="Trazado_189903" data-name="Trazado 189903" d="M86.194,348.129a2.065,2.065,0,0,0,0-4.129H82.065a2.065,2.065,0,1,0,0,4.129Z" transform="translate(-29.677 -249.29)" fill="#6836bf"/>
    <path id="Trazado_189904" data-name="Trazado 189904" d="M124.129,348.129a2.065,2.065,0,0,0,0-4.129h-2.065a2.065,2.065,0,0,0,0,4.129Z" transform="translate(-59.355 -249.29)" fill="#6836bf"/>
    <path id="Trazado_189905" data-name="Trazado 189905" d="M153.548,105.032a24.807,24.807,0,0,0-22.71-24.687V26.581a2.065,2.065,0,0,0-.6-1.46L113.718,8.6a2.065,2.065,0,0,0-1.46-.6H42.065A2.065,2.065,0,0,0,40,10.065V133.935A2.065,2.065,0,0,0,42.065,136h86.71a2.065,2.065,0,0,0,2.065-2.065V129.72A24.807,24.807,0,0,0,153.548,105.032ZM114.323,15.049l9.468,9.468h-9.468ZM44.129,131.871V12.129h66.065V26.581a2.065,2.065,0,0,0,2.065,2.065H126.71v51.7a24.774,24.774,0,0,0,0,49.375v2.151Zm84.645-6.194a20.645,20.645,0,1,1,20.645-20.645A20.645,20.645,0,0,1,128.774,125.677Z" fill="#6836bf"/>
    <path id="Trazado_189906" data-name="Trazado 189906" d="M364.3,352.6a2.065,2.065,0,0,0-2.92,0l-13.312,13.312-8.94-5.364A2.065,2.065,0,0,0,337,364.093l10.323,6.194a2.065,2.065,0,0,0,2.522-.31L364.3,355.525A2.064,2.064,0,0,0,364.3,352.6Z" transform="translate(-219.612 -255.226)" fill="#6836bf"/>
  </g>
</svg>
