<svg xmlns="http://www.w3.org/2000/svg" width="99.609" height="100" viewBox="0 0 99.609 100">
  <g id="Grupo_133154" data-name="Grupo 133154" transform="translate(-4242 11013.879)">
    <g id="riesgo-aceptable" transform="translate(4241 -11013.879)">
      <path id="Trazado_189973" data-name="Trazado 189973" d="M139.575,228.644a8.789,8.789,0,0,0-15.391,0L102.859,267.3a8.789,8.789,0,0,0,7.7,13.035H153.2a8.789,8.789,0,0,0,7.7-13.035Zm16.153,44.387a2.882,2.882,0,0,1-2.523,1.44H110.554a2.93,2.93,0,0,1-2.565-4.345l21.325-38.652a2.93,2.93,0,0,1,5.13,0l21.325,38.652A2.882,2.882,0,0,1,155.728,273.031Z" transform="translate(-81.075 -180.331)" fill="#6836bf"/>
      <path id="Trazado_189974" data-name="Trazado 189974" d="M243.93,307a2.93,2.93,0,0,0-2.93,2.93v12.7a2.93,2.93,0,0,0,5.859,0v-12.7A2.93,2.93,0,0,0,243.93,307Z" transform="translate(-193.125 -247.039)" fill="#6836bf"/>
      <path id="Trazado_189975" data-name="Trazado 189975" d="M86.022,14.588A49.8,49.8,0,0,0,1,49.8a2.93,2.93,0,0,0,2.93,2.93H29.32a2.93,2.93,0,0,0,2.93-2.93,18.555,18.555,0,0,1,37.109,0,2.93,2.93,0,0,0,2.93,2.93H97.68a2.93,2.93,0,0,0,2.93-2.93A49.478,49.478,0,0,0,86.022,14.588ZM26.565,46.875H6.956A43.767,43.767,0,0,1,17.744,20.887L31.6,34.745A24.3,24.3,0,0,0,26.565,46.875Zm21.31-21.309A24.3,24.3,0,0,0,35.745,30.6L21.888,16.745A43.761,43.761,0,0,1,47.875,5.959ZM65.864,30.6a24.3,24.3,0,0,0-12.13-5.036V5.959A43.762,43.762,0,0,1,79.722,16.745Zm9.179,16.273a24.3,24.3,0,0,0-5.036-12.13L83.865,20.887A43.767,43.767,0,0,1,94.653,46.875Z" fill="#6836bf"/>
      <path id="Trazado_189976" data-name="Trazado 189976" d="M243.93,422a2.93,2.93,0,1,0,2.93,2.93A2.93,2.93,0,0,0,243.93,422Z" transform="translate(-193.125 -339.578)" fill="#6836bf"/>
    </g>
  </g>
</svg>
