<svg xmlns="http://www.w3.org/2000/svg" width="134.987" height="134.977" viewBox="0 0 134.987 134.977">
  <g id="Grupo_133080" data-name="Grupo 133080" transform="translate(138.752 558.662)">
    <path id="Trazado_189907" data-name="Trazado 189907" d="M-3.765-439.507v4.481c-.207.044-.231.208-.283.38-2.3,7.554-6.9,10.958-14.814,10.958H-124.55c-.4,0-.791.01-1.186,0a4.342,4.342,0,0,1-4.3-4.271c-.04-1.229-.011-2.46-.01-3.689,0-3.43,1.655-5.1,5.073-5.1,3.778-.007,7.556-.025,11.333.017.8.009,1.037-.18,1.026-1.007-.048-3.645-.057-7.291,0-10.936.016-.946-.255-1.141-1.161-1.134-5.974.043-11.948.033-17.922.019-4.346-.011-7.055-2.737-7.055-7.083q0-34.325,0-68.651a8.54,8.54,0,0,1,.12-1.7c.691-3.366,3.311-5.319,7.123-5.32q35.976,0,71.952,0h1.5c-.2-.4-.322-.628-.434-.856A17.392,17.392,0,0,1-47.741-558a7.113,7.113,0,0,0,2.321-.661h4.746c.046.211.2.237.387.255a14.907,14.907,0,0,1,6.15,2.148,17.371,17.371,0,0,1,.781,29.489,1.742,1.742,0,0,0-.925,1.673c.055,2.941.042,5.884.008,8.826-.009.779.079,1.223,1.04,1.146a27,27,0,0,1,3.423,0,4.267,4.267,0,0,1,4.234,4.185c.069,1.621.067,3.251-.015,4.871a3.953,3.953,0,0,1-3.228,3.816c-1.044.192-1.072.694-1.069,1.506q.032,10.341,0,20.682a3.692,3.692,0,0,0,.714,2.3q9.743,13.737,19.433,27.511C-7.371-446.891-4.645-443.712-3.765-439.507Zm-47.824-86.61c-.064.313-.1.438-.114.566a6.485,6.485,0,0,1-7.228,6.017,6.432,6.432,0,0,1-5.631-7.747c.182-.963-.208-.891-.833-.89q-7.249.012-14.5,0-25.768,0-51.535,0c-2.194,0-2.948.631-2.949,2.589q-.018,26.49-.026,52.98c0,.853.293,1.006,1.063,1q16.344-.032,32.687.007c.983,0,1.145-.354,1.131-1.219-.047-2.855-.018-5.711-.018-8.566,0-3.357,0-3.331,3.381-3.27.745.013.966.208.955.958-.041,2.943-.017,5.887-.017,8.83,0,3.3,0,3.263,3.265,3.271.962,0,1.152-.325,1.144-1.208-.041-4.393-.019-8.786-.019-13.179,0-3.074,0-3.017,3.072-3.084,1.107-.025,1.276.373,1.265,1.345-.047,4.261-.02,8.522-.02,12.784,0,3.468,0,3.441,3.462,3.338.773-.023.967-.279.944-1-.046-1.492-.014-2.987-.014-4.481,0-3.388,0-3.357,3.4-3.278.8.019.951.3.931,1.006-.041,1.492-.012,2.987-.012,4.481,0,3.362,0,3.331,3.4,3.275.834-.014,1.023-.286,1.012-1.066-.041-2.987-.017-5.974-.017-8.961,0-3.029,0-2.99,3.09-3.033.953-.013,1.271.186,1.251,1.209-.07,3.557-.033,7.116-.018,10.675,0,.366-.188.811.227,1.087.737.488,3.529-.1,4.057-.845,1.292-1.828,2.564-3.67,3.879-5.481a2.71,2.71,0,0,0,.543-1.7q-.026-10.609.006-21.218c0-.78-.178-1.127-1-1.317a4.117,4.117,0,0,1-3.318-4.175c-.028-1.186-.008-2.372-.007-3.558,0-3.539,1.62-5.175,5.122-5.181q3.822-.006,7.645,0,6.129,0,12.258,0c.547,0,1.133.174,1.113-.787-.055-2.591-.026-5.183-.013-7.775,0-.5-.091-.684-.669-.56a19.448,19.448,0,0,1-2.862.4A17.442,17.442,0,0,1-51.588-526.117Zm6.52,76.323c-9.709,0-19.418.019-29.126-.028a2.218,2.218,0,0,0-2.124,1.134c-1.183,1.795-2.437,3.545-3.709,5.28-2.366,3.229-2.876,6.685-1.026,10.262s4.966,5.121,8.975,5.092c6.765-.049,13.531-.013,20.3-.013q17,0,34,0A9.022,9.022,0,0,0-9.2-433.154a9.05,9.05,0,0,0-.743-9.83c-1.342-1.954-2.759-3.856-4.078-5.825a2.02,2.02,0,0,0-1.918-1.007C-25.65-449.781-35.359-449.795-45.068-449.795Zm27.092-4.391a4.227,4.227,0,0,0-.233-.5q-7.279-10.329-14.549-20.666a1.371,1.371,0,0,0-1.335-.576c-3.295.011-6.589.006-9.884.006-3.366,0-3.321,0-3.343-3.311-.007-1,.36-1.128,1.218-1.113,2.855.049,5.71.018,8.566.018,3.465,0,3.446,0,3.287-3.485-.028-.619-.18-.839-.818-.822-1.537.04-3.075.013-4.612.013-3.451,0-3.423,0-3.317-3.486.024-.789.3-.953,1.012-.932,1.492.043,2.987.013,4.48.013,3.355,0,3.327,0,3.26-3.383-.015-.765-.245-.95-.974-.941-2.943.038-5.886.016-8.829.016-3.322,0-3.295,0-3.264-3.39.007-.791.187-1.051,1.02-1.036,2.986.053,5.974.021,8.961.021,3.1,0,3.061,0,3.09-3.158.008-.926-.24-1.164-1.162-1.158q-9.62.062-19.24,0c-1.062-.009-1.39.2-1.381,1.336.059,7.379.021,14.758.044,22.137a3.316,3.316,0,0,1-.651,2.057q-7.468,10.519-14.881,21.077c-.258.366-.663.676-.676,1.264,2.294,0,4.532-.028,6.77.015.746.014.912-.294,1.059-.969a15.188,15.188,0,0,1,25.1-8.108,1.672,1.672,0,0,0,1.388.513c5.764-.527,10.11,2.3,11.906,7.764.181.552.358.8.958.8C-22.726-454.2-20.444-454.185-17.976-454.185Zm-50.615-12.951a5.162,5.162,0,0,0-.571-.086q-32.149,0-64.3-.026c-.9,0-.977.367-.97,1.089.029,2.942.009,5.885.013,8.827,0,2.555.623,3.174,3.188,3.175q16.141,0,32.281,0,10.014,0,20.028,0c.549,0,1.115.129,1.534-.47C-74.5-458.76-71.594-462.873-68.592-467.136Zm25.574-87.122A12.97,12.97,0,0,0-55.977-541.15,13.057,13.057,0,0,0-42.955-528.2,13.112,13.112,0,0,0-29.9-541.278,13.035,13.035,0,0,0-43.018-554.258ZM-80.863-449.794c-9.049,0-17.822.007-26.595-.013-.669,0-.8.259-.794.853.02,3.732.034,7.465-.009,11.2-.01.853.317,1.005,1.075,1q9.815-.036,19.63,0c.764,0,1.055-.152,1.069-1a13.616,13.616,0,0,1,2.664-7.847C-82.881-446.913-81.958-448.241-80.863-449.794Zm-2.116,21.629a12.5,12.5,0,0,1-2-3.053c-.36-1.052-1.018-1.173-1.985-1.17q-17.9.043-35.8.019c-2.877,0-2.819,0-2.9,2.839-.032,1.144.252,1.466,1.437,1.462,13.295-.047,26.59-.029,39.885-.032C-83.963-428.1-83.583-428.136-82.979-428.166Zm37.843-78.287H-32.88c2.992,0,2.925,0,3.015-2.976.036-1.179-.386-1.323-1.411-1.318-8.654.039-17.308.022-25.963.022-3.165,0-3.129,0-3.156,3.118-.008.909.219,1.186,1.156,1.176C-54.538-506.479-49.837-506.453-45.136-506.453Zm2.211,45.74c-.719-.41-1.272-.767-1.858-1.054a10.881,10.881,0,0,0-15,6.306c-.317.964-.194,1.3.914,1.277,3.64-.06,7.281-.021,10.922-.025.424,0,.83.08,1-.553A11.167,11.167,0,0,1-42.925-460.714Zm12.587,6.506a6.379,6.379,0,0,0-5.475-4.245A6.2,6.2,0,0,0-42-455.264c-.3.475-.738,1.066.4,1.062C-37.909-454.216-34.227-454.208-30.339-454.208Zm-27.853-73.92a2.137,2.137,0,0,0-2.167,2.151,2.183,2.183,0,0,0,2.094,2.108,2.187,2.187,0,0,0,2.234-2.1A2.138,2.138,0,0,0-58.191-528.128Z" fill="#6836bf"/>
    <path id="Trazado_189908" data-name="Trazado 189908" d="M212.369-467.913c-.407.175-.307.6-.412.907a8.759,8.759,0,0,1-10.056,5.892,8.775,8.775,0,0,1-6.924-9.244,8.749,8.749,0,0,1,8.321-8,8.766,8.766,0,0,1,8.605,5.884c.134.378-.007.9.466,1.139Zm-13.018-1.811a4.333,4.333,0,0,0,4.273,4.412,4.325,4.325,0,0,0,4.338-4.21,4.275,4.275,0,0,0-4.2-4.454A4.285,4.285,0,0,0,199.351-469.724Z" transform="translate(-216.134 -51.997)" fill="#6836bf"/>
    <path id="Trazado_189921" data-name="Trazado 189921" d="M-101.081-459.887c1.14-.012,2.284.025,3.42-.053.828-.057.924.321.888,1a14.867,14.867,0,0,1-4.61,10.035c-.756.751-.779,1.123-.015,1.914,6.278,6.494,6.282,15.515.014,22.042-.743.774-.789,1.144-.007,1.915a15.034,15.034,0,0,1,4.607,9.636c.089,1.015-.049,1.566-1.264,1.421a28.315,28.315,0,0,0-3.023-.054,11.743,11.743,0,0,0-3.769-8.381c-.49-.485-.755-.49-1.243,0a11.44,11.44,0,0,0-3.74,8.379,24.182,24.182,0,0,0-3.022.06c-1.337.186-1.4-.478-1.3-1.5a15.255,15.255,0,0,1,4.745-9.711c.674-.66.6-.969-.013-1.613-6.454-6.736-6.453-15.592.006-22.333.625-.653.665-.959,0-1.611a15.25,15.25,0,0,1-4.749-9.846c-.077-.922,0-1.5,1.181-1.358a30.728,30.728,0,0,0,3.155.061,11.385,11.385,0,0,0,3.735,8.37c.485.487.751.49,1.241,0A11.692,11.692,0,0,0-101.081-459.887Zm-4.506,26.072h1.449c3.145,0,3.384-.309,2.927-3.5-.088-.614-.3-.808-.9-.8-2.24.028-4.482.046-6.721-.006-.876-.02-.944.5-.887,1.085.1,1.085-.589,2.33.586,3.2.143.106.429.02.648.02Zm2.248-8.762c-.785-.905-1.315-2.147-2.139-2.084s-1.494,1.136-1.951,2.084Zm-.155,13.185h-4.037c2.376,2.971,1.834,2.736,3.954.31A1.527,1.527,0,0,0-103.495-429.392Z" transform="translate(-15.868 -63.922)" fill="#6836bf"/>
    <path id="Trazado_189922" data-name="Trazado 189922" d="M-32.626-459.914c6.057,0,12.114.041,18.169-.034,1.219-.015,1.427.36,1.405,1.465-.07,3.509-.058,7.022,0,10.531.014.933-.271,1.164-1.18,1.162q-18.433-.043-36.866,0c-.966,0-1.154-.333-1.144-1.208.042-3.6.051-7.2-.005-10.8-.015-.956.3-1.148,1.193-1.142C-44.914-459.9-38.77-459.914-32.626-459.914Zm-.015,4.415H-44.883c-3.023,0-2.976,0-3.033,3.082-.019,1,.248,1.222,1.226,1.217,8.732-.041,17.464-.024,26.2-.024,3.12,0,3.081,0,3.109-3.136.008-.929-.259-1.168-1.171-1.159C-23.25-455.475-27.945-455.5-32.641-455.5Z" transform="translate(-56.024 -63.934)" fill="#6836bf"/>
    <path id="Trazado_189923" data-name="Trazado 189923" d="M-32.635-381.371c-6.107,0-12.215-.028-18.321.026-1.067.01-1.311-.315-1.3-1.327.045-3.1,0-3.1,3.049-3.1,11.6,0,23.2.017,34.8-.027,1.123,0,1.378.319,1.354,1.391-.066,3.039-.017,3.04-3.107,3.04Z" transform="translate(-56.022 -111.957)" fill="#6836bf"/>
    <path id="Trazado_189924" data-name="Trazado 189924" d="M-2.107-410.464c3.95,0,7.9.019,11.85-.016.808-.007,1.136.143,1.139,1.06.013,3.358.052,3.358-3.31,3.358-7.2,0-14.4-.017-21.593.02-.935,0-1.29-.163-1.276-1.2.043-3.217-.006-3.218,3.184-3.218Z" transform="translate(-79.958 -95.973)" fill="#6836bf"/>
    <path id="Trazado_189927" data-name="Trazado 189927" d="M-47.938-410.486c1.094,0,2.194.065,3.282-.019.968-.075,1.149.315,1.146,1.2-.012,3.226.019,3.226-3.172,3.226-1.488,0-2.979-.044-4.464.017-.83.034-1.124-.178-1.13-1.069-.023-3.351-.057-3.351,3.289-3.351Z" transform="translate(-56.004 -95.95)" fill="#6836bf"/>
    <path id="Trazado_189928" data-name="Trazado 189928" d="M-39.864-284.614c0-2.173,0-2.173,2.2-2.173,2.142,0,2.142,0,2.142,2.122,0,2.224,0,2.224-2.285,2.224C-39.864-282.441-39.864-282.441-39.864-284.614Z" transform="translate(-64.047 -176.085)" fill="#6836bf"/>
    <path id="Trazado_189929" data-name="Trazado 189929" d="M-10.8-284.537c0,2.1,0,2.1-2.151,2.1-2.2,0-2.2,0-2.2-2.17s0-2.177,2.206-2.177C-10.8-286.787-10.8-286.787-10.8-284.537Z" transform="translate(-80.051 -176.085)" fill="#6836bf"/>
    <path id="Trazado_189930" data-name="Trazado 189930" d="M13.916-284.593c0,2.152,0,2.152-2.227,2.152-2.127,0-2.127,0-2.127-2.116,0-2.23,0-2.23,2.287-2.23C13.916-286.787,13.916-286.787,13.916-284.593Z" transform="translate(-96.059 -176.085)" fill="#6836bf"/>
    <path id="Trazado_189931" data-name="Trazado 189931" d="M139.242-525.377a10.213,10.213,0,0,0-1.181.008c-.645.074-.883-.174-1.02-.822a4.164,4.164,0,0,0-3.5-3.451c-.729-.148-1.167-2.339-.76-3.949.242-.957.99-.46,1.493-.367a8.717,8.717,0,0,1,7.1,6.858c.324,1.639.261,1.719-1.342,1.721Z" transform="translate(-175.764 -15.864)" fill="#6836bf"/>
  </g>
</svg>
