<svg xmlns="http://www.w3.org/2000/svg" xmlns:xlink="http://www.w3.org/1999/xlink" width="190" height="112" viewBox="0 0 190 112">
  <defs>
    <linearGradient id="linear-gradient" x1="0.5" x2="0.5" y2="1" gradientUnits="objectBoundingBox">
      <stop offset="0" stop-color="#f7ca2e" stop-opacity="0"/>
      <stop offset="0.091" stop-color="#f7ca2e" stop-opacity="0.129"/>
      <stop offset="0.283" stop-color="#f7ca2e" stop-opacity="0.388"/>
      <stop offset="0.465" stop-color="#f7ca2e" stop-opacity="0.612"/>
      <stop offset="0.633" stop-color="#f7ca2e" stop-opacity="0.78"/>
      <stop offset="0.784" stop-color="#f7ca2e" stop-opacity="0.902"/>
      <stop offset="0.911" stop-color="#f7ca2e" stop-opacity="0.969"/>
      <stop offset="1" stop-color="#f7ca2e"/>
    </linearGradient>
    <linearGradient id="linear-gradient-2" x1="0.5" x2="0.5" y2="1" gradientUnits="objectBoundingBox">
      <stop offset="0" stop-color="#b13e8d" stop-opacity="0"/>
      <stop offset="0.091" stop-color="#b13e8d" stop-opacity="0.129"/>
      <stop offset="0.283" stop-color="#b13e8d" stop-opacity="0.388"/>
      <stop offset="0.465" stop-color="#b13e8d" stop-opacity="0.612"/>
      <stop offset="0.633" stop-color="#b13e8d" stop-opacity="0.78"/>
      <stop offset="0.784" stop-color="#b13e8d"/>
      <stop offset="0.911" stop-color="#b13e8d" stop-opacity="0.969"/>
      <stop offset="1" stop-color="#b13e8d"/>
    </linearGradient>
    <filter id="Rectángulo_40716" x="41" y="4" width="108" height="108" filterUnits="userSpaceOnUse">
      <feOffset dy="3" input="SourceAlpha"/>
      <feGaussianBlur stdDeviation="3" result="blur"/>
      <feFlood flood-opacity="0.161"/>
      <feComposite operator="in" in2="blur"/>
      <feComposite in="SourceGraphic"/>
    </filter>
  </defs>
  <g id="Grupo_133097" data-name="Grupo 133097" transform="translate(-180 -1568.85)">
    <g id="Grupo_132902" data-name="Grupo 132902" transform="translate(0 303.85)">
      <g id="Grupo_128678" data-name="Grupo 128678" transform="translate(-4 -75)">
        <rect id="Rectángulo_40586" data-name="Rectángulo 40586" width="190" height="20" transform="translate(184 1385)" fill="none"/>
        <g id="Grupo_108405" data-name="Grupo 108405" transform="translate(213.5 1404)">
          <path id="Rectángulo_5242" data-name="Rectángulo 5242" d="M0,0H12a0,0,0,0,1,0,0V43.333a3,3,0,0,1-3,3H3a3,3,0,0,1-3-3V0A0,0,0,0,1,0,0Z" transform="translate(0 0)" fill="url(#linear-gradient)"/>
        </g>
        <g id="Grupo_108406" data-name="Grupo 108406" transform="translate(344 1392) rotate(180)">
          <path id="Rectángulo_5242-2" data-name="Rectángulo 5242" d="M0,0H12a0,0,0,0,1,0,0V49a3,3,0,0,1-3,3H3a3,3,0,0,1-3-3V0A0,0,0,0,1,0,0Z" transform="translate(0 0)" fill="url(#linear-gradient-2)"/>
        </g>
        <g transform="matrix(1, 0, 0, 1, 184, 1340)" filter="url(#Rectángulo_40716)">
          <path id="Rectángulo_40716-2" data-name="Rectángulo 40716" d="M10,0H80A10,10,0,0,1,90,10V90a0,0,0,0,1,0,0H10A10,10,0,0,1,0,80V10A10,10,0,0,1,10,0Z" transform="translate(50 10)" fill="#f6f6f6"/>
        </g>
      </g>
    </g>
    <g id="Grupo_133081" data-name="Grupo 133081" transform="translate(-134.892 2060.613)">
      <path id="Trazado_189935" data-name="Trazado 189935" d="M399.1-469.4a15.256,15.256,0,0,1,2.007.608,7.281,7.281,0,0,1,4.522,6.656c.022.378,0,.758,0,1.2h13.743v31.731h16.875a1.893,1.893,0,0,0-1.46-1.98,4.28,4.28,0,0,0-1.014-.106c-2.307-.009-4.614.023-6.92-.015a4.141,4.141,0,0,1-4.241-4.175h2c.577,1.758,1.044,2.091,2.924,2.091,1.965,0,3.934.083,5.894-.02a4.459,4.459,0,0,1,5.058,4.228,4.109,4.109,0,0,1,3.28,1.683,12.405,12.405,0,0,1,.918,1.947v1.282c-1.1,2.88-2.131,3.581-5.284,3.581H419.374v16.9H377.092v-57.164H390.8c0-.337,0-.612,0-.887a7.44,7.44,0,0,1,5.16-7.193c.441-.144.9-.246,1.344-.367Zm-15.65,14.868v44.368h29.572v-10.526c-1.353,0-2.672.015-3.99-.011a1.91,1.91,0,0,1-.9-.241c-2.079-1.223-4.143-2.47-6.21-3.713a4.907,4.907,0,0,1-.407-.31c1.619-.972,3.229-1.827,4.713-2.862a6.859,6.859,0,0,1,4.9-1.342,16.322,16.322,0,0,0,1.883.011v-25.356H408.8v4.147h-4.168v-2.108h2v-6.285H389.782v6.3H402.4v2.084H387.637v-4.155Zm31.693,46.508H381.328v-48.686h6.261v-2.045h-8.362v52.817H417.25v-14.7h-2.106Zm-9.563-16.909c1.054.633,2.024,1.244,3.024,1.8a2.322,2.322,0,0,0,1.075.293q9.262.026,18.524.011c.227,0,.453-.02.693-.032v-4.161c-.184-.016-.329-.039-.473-.039q-9.455,0-18.909,0a1.141,1.141,0,0,0-.553.105C407.859-426.311,406.768-425.647,405.581-424.934Zm3.268-31.745h6.318V-429.2h2.08v-29.542h-8.4Zm-15.884-4.29h10.5a5.362,5.362,0,0,0-2.285-5.375,4.993,4.993,0,0,0-5.73-.117C393.44-465.223,392.787-463.3,392.965-460.969Zm42.343,33.94v4.2c1.075,0,2.114.021,3.153-.005a2.049,2.049,0,0,0,2.09-1.986,2.006,2.006,0,0,0-1.873-2.186C437.581-427.1,436.471-427.029,435.308-427.029Zm-2.187,4.163v-4.159h-2.034v4.159Z" transform="translate(0)" fill="#6836bf"/>
      <path id="Trazado_189936" data-name="Trazado 189936" d="M428.1-328.773H453.41v14.728H428.1Zm2.135,12.637h21.1v-5.213a2.907,2.907,0,0,0-.394-.055c-2.711,0-5.422-.014-8.133.016a1.024,1.024,0,0,0-.684.426c-.794,1.132-1.549,2.292-2.358,3.5l-3.175-4.221-2.174,3.235c-.716-1.073-1.463-2.043-2.042-3.1a1.64,1.64,0,0,0-2.137-.846Zm6.248-9.207,3.176,4.222c.446-.668.872-1.255,1.241-1.875a.979.979,0,0,1,.973-.533c2.924.023,5.849.012,8.773.012h.678v-3.144H430.25v2.1c.758,0,1.462-.033,2.159.018a1.1,1.1,0,0,1,.706.379c.453.586.842,1.221,1.3,1.905Z" transform="translate(-42.545 -117.294)" fill="#6836bf"/>
      <path id="Trazado_189937" data-name="Trazado 189937" d="M440.922-224.625v-2.019h12.635v2.019Z" transform="translate(-53.239 -202.477)" fill="#6836bf"/>
      <path id="Trazado_189938" data-name="Trazado 189938" d="M440.876-173.583V-175.6h12.64v2.014Z" transform="translate(-53.201 -245.054)" fill="#6836bf"/>
      <path id="Trazado_189939" data-name="Trazado 189939" d="M490.721-199.067H485.5v-2.017h5.22Z" transform="translate(-90.421 -223.796)" fill="#6836bf"/>
      <path id="Trazado_189940" data-name="Trazado 189940" d="M446.139-199.093H440.93v-2.021h5.209Z" transform="translate(-53.246 -223.771)" fill="#6836bf"/>
      <path id="Trazado_189941" data-name="Trazado 189941" d="M504.625-148.063v-2.013h2.062v2.013Z" transform="translate(-106.372 -266.341)" fill="#6836bf"/>
      <path id="Trazado_189942" data-name="Trazado 189942" d="M440.989-150.164h2v2.035h-2Z" transform="translate(-53.295 -266.267)" fill="#6836bf"/>
      <path id="Trazado_189943" data-name="Trazado 189943" d="M472.8-150.191h2.015v2.023H472.8Z" transform="translate(-79.829 -266.245)" fill="#6836bf"/>
    </g>
  </g>
</svg>
