<svg xmlns="http://www.w3.org/2000/svg" xmlns:xlink="http://www.w3.org/1999/xlink" width="190" height="113" viewBox="0 0 190 113">
  <defs>
    <linearGradient id="linear-gradient" x1="0.5" x2="0.5" y2="1" gradientUnits="objectBoundingBox">
      <stop offset="0" stop-color="#f7ca2e" stop-opacity="0"/>
      <stop offset="0.091" stop-color="#f7ca2e" stop-opacity="0.129"/>
      <stop offset="0.283" stop-color="#f7ca2e" stop-opacity="0.388"/>
      <stop offset="0.465" stop-color="#f7ca2e" stop-opacity="0.612"/>
      <stop offset="0.633" stop-color="#f7ca2e" stop-opacity="0.78"/>
      <stop offset="0.784" stop-color="#f7ca2e" stop-opacity="0.902"/>
      <stop offset="0.911" stop-color="#f7ca2e" stop-opacity="0.969"/>
      <stop offset="1" stop-color="#f7ca2e"/>
    </linearGradient>
    <linearGradient id="linear-gradient-2" x1="0.5" x2="0.5" y2="1" gradientUnits="objectBoundingBox">
      <stop offset="0" stop-color="#b13e8d" stop-opacity="0"/>
      <stop offset="0.091" stop-color="#b13e8d" stop-opacity="0.129"/>
      <stop offset="0.283" stop-color="#b13e8d" stop-opacity="0.388"/>
      <stop offset="0.465" stop-color="#b13e8d" stop-opacity="0.612"/>
      <stop offset="0.633" stop-color="#b13e8d" stop-opacity="0.78"/>
      <stop offset="0.784" stop-color="#b13e8d"/>
      <stop offset="0.911" stop-color="#b13e8d" stop-opacity="0.969"/>
      <stop offset="1" stop-color="#b13e8d"/>
    </linearGradient>
    <filter id="Rectángulo_40719" x="41" y="5" width="108" height="108" filterUnits="userSpaceOnUse">
      <feOffset dy="3" input="SourceAlpha"/>
      <feGaussianBlur stdDeviation="3" result="blur"/>
      <feFlood flood-opacity="0.161"/>
      <feComposite operator="in" in2="blur"/>
      <feComposite in="SourceGraphic"/>
    </filter>
  </defs>
  <g id="Grupo_133097" data-name="Grupo 133097" transform="translate(6736 10115)">
    <g id="Grupo_128641" data-name="Grupo 128641" transform="translate(-6920 -11019)">
      <rect id="Rectángulo_40586" data-name="Rectángulo 40586" width="190" height="20" transform="translate(184 950)" fill="none"/>
      <g id="Grupo_108405" data-name="Grupo 108405" transform="translate(213.5 968)">
        <path id="Rectángulo_5242" data-name="Rectángulo 5242" d="M0,0H12a0,0,0,0,1,0,0V43.333a3,3,0,0,1-3,3H3a3,3,0,0,1-3-3V0A0,0,0,0,1,0,0Z" transform="translate(0 0)" fill="url(#linear-gradient)"/>
      </g>
      <g id="Grupo_108406" data-name="Grupo 108406" transform="translate(344 956) rotate(180)">
        <path id="Rectángulo_5242-2" data-name="Rectángulo 5242" d="M0,0H12a0,0,0,0,1,0,0V49a3,3,0,0,1-3,3H3a3,3,0,0,1-3-3V0A0,0,0,0,1,0,0Z" transform="translate(0 0)" fill="url(#linear-gradient-2)"/>
      </g>
      <g id="Grupo_128318" data-name="Grupo 128318">
        <g transform="matrix(1, 0, 0, 1, 184, 904)" filter="url(#Rectángulo_40719)">
          <path id="Rectángulo_40719-2" data-name="Rectángulo 40719" d="M10,0H80A10,10,0,0,1,90,10V90a0,0,0,0,1,0,0H10A10,10,0,0,1,0,80V10A10,10,0,0,1,10,0Z" transform="translate(50 11)" fill="#f6f6f6"/>
        </g>
      </g>
    </g>
    <g id="Grupo_133058" data-name="Grupo 133058" transform="translate(-6184.748 -10326.867)">
      <path id="Trazado_189512" data-name="Trazado 189512" d="M-489,235.618a3.68,3.68,0,0,1,2.813-2.81,5.019,5.019,0,0,1,1.026-.084q19-.006,38-.009a5.077,5.077,0,0,1,3.772,1.552c2.285,2.3,4.565,4.6,6.88,6.87a5.383,5.383,0,0,1,1.685,4.068c-.02,5.1,0,10.2-.019,15.307,0,.5.1.817.6,1a3.122,3.122,0,0,1,.826.492,3.2,3.2,0,0,0,2.465.623,3.676,3.676,0,0,1,4.206,2.36,3.756,3.756,0,0,0,2.028,2.025,3.56,3.56,0,0,1,2.371,3.938,4.354,4.354,0,0,0,.843,3.086,3.6,3.6,0,0,1-.026,4.542,4.15,4.15,0,0,0-.818,2.955,3.6,3.6,0,0,1-2.421,4.04,3.568,3.568,0,0,0-1.971,1.992,4.335,4.335,0,0,1-1.886,2.125.943.943,0,0,0-.319.71c-.02,3.332-.056,6.666.006,10a2.751,2.751,0,0,1-1.831,2.96h-1.1c-1.216-.714-2.442-1.413-3.644-2.151a.822.822,0,0,0-.99,0c-1.2.736-2.429,1.436-3.645,2.15H-486.1a3.955,3.955,0,0,1-2.9-2.9Zm42.379-.547h-38.337c-1.332,0-1.69.352-1.69,1.66q0,31.309,0,62.618c0,1.283.365,1.654,1.628,1.654h41.952c0-3.686,0-7.269-.012-10.851a.631.631,0,0,0-.285-.462,4.246,4.246,0,0,1-1.973-2.221,3.414,3.414,0,0,0-1.893-1.884,3.63,3.63,0,0,1-2.444-4.1,4.04,4.04,0,0,0-.8-2.892,3.608,3.608,0,0,1-.063-4.543,4.332,4.332,0,0,0,.85-3.151,3.528,3.528,0,0,1,2.233-3.821,4.182,4.182,0,0,0,2.254-2.263,3.626,3.626,0,0,1,3.965-2.224,3.433,3.433,0,0,0,2.725-.656,3.48,3.48,0,0,1,.832-.482.718.718,0,0,0,.5-.783q-.019-7.758,0-15.517c0-.552-.181-.7-.714-.689-1.77.028-3.541.035-5.311,0a3.375,3.375,0,0,1-3.313-2.859,14.142,14.142,0,0,1-.094-2.2C-446.63,237.991-446.621,236.572-446.621,235.071Zm-.766,46.449c-.315.963.386,1.67,1.59,2.164a4.757,4.757,0,0,1,2.484,2.56c.621,1.335.814,1.468,2.28,1.343a5.4,5.4,0,0,1,3.817,1.071,1.62,1.62,0,0,0,2.423-.01,5.415,5.415,0,0,1,3.955-1.055c1.193.13,1.573-.091,2.037-1.185a5.109,5.109,0,0,1,2.944-2.921,1.635,1.635,0,0,0,1.177-1.92,5.315,5.315,0,0,1,1.138-4.2,1.613,1.613,0,0,0-.009-2.2,5.238,5.238,0,0,1-1.131-4.133,1.722,1.722,0,0,0-1.241-2.019,5.111,5.111,0,0,1-2.82-2.778c-.561-1.248-.824-1.388-2.181-1.263a5.375,5.375,0,0,1-3.77-1.007c-1.158-.832-1.472-.828-2.643.008a5.342,5.342,0,0,1-3.7,1c-1.431-.126-1.67,0-2.243,1.267a5.347,5.347,0,0,1-2.752,2.763c-1.279.586-1.391.754-1.282,2.173a5.5,5.5,0,0,1-1.037,3.829c-.774,1.056-.762,1.458,0,2.528A5.188,5.188,0,0,1-447.388,281.521Zm6.73,8.473v10.964c1.159-.694,2.24-1.338,3.317-1.989a2.377,2.377,0,0,1,2.6-.028c.455.267.906.541,1.359.812l2.024,1.206V289.993a2.348,2.348,0,0,0-1.961.5c-2.09,1.431-3.324,1.428-5.41,0A2.287,2.287,0,0,0-440.657,289.993Zm-3.608-53.036c0,1.315-.011,2.619,0,3.923.008.61.295,1.16.918,1.193,1.426.074,2.859.023,4.234.023Z" transform="translate(0 0)" fill="#6836bf"/>
      <path id="Trazado_189513" data-name="Trazado 189513" d="M-425.314,282.93c-5.057,0-10.114.009-15.171,0a3.465,3.465,0,0,1-3.671-3.862,3.291,3.291,0,0,1,1.9-2.769.714.714,0,0,0,.445-.734,15.188,15.188,0,0,1,11.368-14.477,1.053,1.053,0,0,0,.594-.537,3.586,3.586,0,0,1,3.418-2.332c.736-.009,1.472-.021,2.207,0a3.578,3.578,0,0,1,3.376,2.3,1.139,1.139,0,0,0,.64.573,15.279,15.279,0,0,1,11.345,14.378c.012.344,0,.614.414.828a3.444,3.444,0,0,1,1.824,3.991,3.515,3.515,0,0,1-3.516,2.641h-15.171Zm13.9-9.41c-1.072,0-2.013,0-2.955,0-2.51,0-3.916-1.411-3.924-3.938-.005-1.563.011-3.127-.014-4.69a.883.883,0,0,0-.29-.674c-.625-.313-1.295-.535-2.057-.835,0,.38,0,.625,0,.87,0,2.644.006,5.288-.005,7.931,0,.836-.462,1.331-1.167,1.329s-1.148-.512-1.182-1.334c-.009-.207,0-.414,0-.621,0-3.2,0-6.391,0-9.586,0-.97-.424-1.388-1.381-1.406-.552-.011-1.1,0-1.656,0-1.3,0-1.668.37-1.668,1.694,0,3.265.007,6.529-.013,9.793a1.456,1.456,0,0,1-.283,1.007,1.751,1.751,0,0,1-1.214.374,1.066,1.066,0,0,1-.841-1.186c0-1.586,0-3.173,0-4.759,0-1.329,0-2.657,0-4.093-.681.262-1.27.506-1.871.716a.679.679,0,0,0-.49.773q.031,2.586,0,5.172a3.445,3.445,0,0,1-2.408,3.273,5.754,5.754,0,0,1-1.494.182c-.979.027-1.959.008-2.978.008l-.189,2.294h28.311C-411.264,275.025-411.335,274.3-411.411,273.52Zm-13.916,7.056h1.725q6.692,0,13.384,0a1.2,1.2,0,0,0,1.351-1.155,1.23,1.23,0,0,0-1.332-1.193c-.092,0-.184,0-.276,0q-14.868,0-29.735,0c-.294,0-.677-.035-.862.125a1.767,1.767,0,0,0-.7,1.047,1.757,1.757,0,0,0,.675,1.062c.179.16.569.11.863.111Q-432.778,280.58-425.327,280.576Zm-13.249-9.411c.953,0,1.82.03,2.684-.01a1.054,1.054,0,0,0,1.092-1.034c.052-1.36.016-2.724.016-4.224A12.688,12.688,0,0,0-438.576,271.165Zm22.688-5.126c0,1.417-.031,2.806.015,4.193a.957.957,0,0,0,.971.911c.9.051,1.805.014,2.731.014A11,11,0,0,0-415.887,266.039Z" transform="translate(-36.567 -20.79)" fill="#6836bf"/>
      <path id="Trazado_189514" data-name="Trazado 189514" d="M-451.306,517.04c-1.271.79-2.453,1.577-3.687,2.274-.917.518-1.622.332-1.945-.375s.01-1.217.894-1.728c1.1-.639,2.159-1.366,3.235-2.055-.455-1-.907-1.825-1.212-2.7a12.453,12.453,0,0,1-.795-3.045,3.906,3.906,0,0,1,4.9-4.181,3.518,3.518,0,0,1,2.4,3.564,10.066,10.066,0,0,1-1.947,5.852.647.647,0,0,0,.11,1.025c1.4,1.3,2.459,1.38,3.962.215.725-.562,1.4-1.185,2.085-1.8,1.734-1.569,3.025-1.74,5.051-.556,1.089.637,2.114,1.381,3.184,2.051,1.377.861,1.772.821,2.977-.217a1.189,1.189,0,0,1,1.775-.052c.5.537.422,1.208-.215,1.813-1.755,1.668-3.331,1.882-5.428.653-1.148-.673-2.233-1.451-3.358-2.163-1.11-.7-1.454-.651-2.425.22-.769.69-1.524,1.4-2.348,2.022a4.782,4.782,0,0,1-6.625-.261C-450.939,517.4-451.149,517.188-451.306,517.04Zm-.08-4.12.264-.043a7.618,7.618,0,0,0,1.242-4.213c-.024-.527-.163-1.088-.808-1.22a1.275,1.275,0,0,0-1.488.732,2.057,2.057,0,0,0-.273,1.235C-452.162,510.6-451.749,511.753-451.385,512.92Z" transform="translate(-26.057 -222.158)" fill="#6836bf"/>
      <path id="Trazado_189515" data-name="Trazado 189515" d="M-443.993,471.5q-5.754,0-11.508,0c-.933,0-1.447-.444-1.438-1.2a1.115,1.115,0,0,1,.994-1.129,3.524,3.524,0,0,1,.481-.018h22.878a3.069,3.069,0,0,1,.55.024,1.068,1.068,0,0,1,.941.955,1.053,1.053,0,0,1-.657,1.231,2.569,2.569,0,0,1-.941.137Q-438.342,471.508-443.993,471.5Z" transform="translate(-26.153 -192.858)" fill="#6836bf"/>
      <path id="Trazado_189516" data-name="Trazado 189516" d="M-447.539,445.942c-2.641,0-5.282,0-7.923,0-.954,0-1.466-.418-1.477-1.167a1.1,1.1,0,0,1,.959-1.156,4.509,4.509,0,0,1,.687-.03q7.751,0,15.5,0a4.177,4.177,0,0,1,.687.031,1.06,1.06,0,0,1,.956,1.015,1.067,1.067,0,0,1-.791,1.215,2.728,2.728,0,0,1-.814.091Q-443.646,445.948-447.539,445.942Z" transform="translate(-26.152 -172.007)" fill="#6836bf"/>
      <path id="Trazado_189517" data-name="Trazado 189517" d="M-397.612,417.937c2.231,0,4.462-.023,6.691.021a1.943,1.943,0,0,1,1.22.46,1.107,1.107,0,0,1-.566,1.808,2.906,2.906,0,0,1-.751.071q-6.657.006-13.315,0a3.873,3.873,0,0,1-.414-.012,1.168,1.168,0,0,1-1.145-1.149,1.134,1.134,0,0,1,1.173-1.183c1.195-.037,2.391-.016,3.587-.018Q-399.371,417.934-397.612,417.937Z" transform="translate(-67.793 -151.08)" fill="#6836bf"/>
      <path id="Trazado_189518" data-name="Trazado 189518" d="M-453.462,420.291c-.713,0-1.426.014-2.138,0-.852-.022-1.33-.451-1.339-1.161s.466-1.177,1.308-1.189q2.207-.03,4.414,0a1.194,1.194,0,0,1,1.321,1.192c-.013.685-.527,1.124-1.359,1.161-.046,0-.092,0-.138,0Z" transform="translate(-26.153 -151.073)" fill="#6836bf"/>
      <path id="Trazado_189519" data-name="Trazado 189519" d="M-243.191,417.983a9.407,9.407,0,0,1,9.471,9.3,9.4,9.4,0,0,1-9.3,9.533,9.4,9.4,0,0,1-9.507-9.4A9.408,9.408,0,0,1-243.191,417.983Zm.122,2.366a7.039,7.039,0,0,0-7.1,6.859,7.054,7.054,0,0,0,6.925,7.255,7.056,7.056,0,0,0,7.175-6.867A7.033,7.033,0,0,0-243.069,420.349Z" transform="translate(-192.891 -151.123)" fill="#6836bf"/>
    </g>
  </g>
</svg>
