<svg xmlns="http://www.w3.org/2000/svg" xmlns:xlink="http://www.w3.org/1999/xlink" width="190" height="113" viewBox="0 0 190 113">
  <defs>
    <linearGradient id="linear-gradient" x1="0.5" x2="0.5" y2="1" gradientUnits="objectBoundingBox">
      <stop offset="0" stop-color="#f7ca2e" stop-opacity="0"/>
      <stop offset="0.091" stop-color="#f7ca2e" stop-opacity="0.129"/>
      <stop offset="0.283" stop-color="#f7ca2e" stop-opacity="0.388"/>
      <stop offset="0.465" stop-color="#f7ca2e" stop-opacity="0.612"/>
      <stop offset="0.633" stop-color="#f7ca2e" stop-opacity="0.78"/>
      <stop offset="0.784" stop-color="#f7ca2e" stop-opacity="0.902"/>
      <stop offset="0.911" stop-color="#f7ca2e" stop-opacity="0.969"/>
      <stop offset="1" stop-color="#f7ca2e"/>
    </linearGradient>
    <linearGradient id="linear-gradient-2" x1="0.5" x2="0.5" y2="1" gradientUnits="objectBoundingBox">
      <stop offset="0" stop-color="#b13e8d" stop-opacity="0"/>
      <stop offset="0.091" stop-color="#b13e8d" stop-opacity="0.129"/>
      <stop offset="0.283" stop-color="#b13e8d" stop-opacity="0.388"/>
      <stop offset="0.465" stop-color="#b13e8d" stop-opacity="0.612"/>
      <stop offset="0.633" stop-color="#b13e8d" stop-opacity="0.78"/>
      <stop offset="0.784" stop-color="#b13e8d"/>
      <stop offset="0.911" stop-color="#b13e8d" stop-opacity="0.969"/>
      <stop offset="1" stop-color="#b13e8d"/>
    </linearGradient>
    <filter id="Rectángulo_40719" x="41" y="5" width="108" height="108" filterUnits="userSpaceOnUse">
      <feOffset dy="3" input="SourceAlpha"/>
      <feGaussianBlur stdDeviation="3" result="blur"/>
      <feFlood flood-opacity="0.161"/>
      <feComposite operator="in" in2="blur"/>
      <feComposite in="SourceGraphic"/>
    </filter>
  </defs>
  <g id="Grupo_133099" data-name="Grupo 133099" transform="translate(6736 9564)">
    <g id="Grupo_128643" data-name="Grupo 128643" transform="translate(-6920 -10468)">
      <rect id="Rectángulo_40586" data-name="Rectángulo 40586" width="190" height="20" transform="translate(184 950)" fill="none"/>
      <g id="Grupo_108405" data-name="Grupo 108405" transform="translate(213.5 968)">
        <path id="Rectángulo_5242" data-name="Rectángulo 5242" d="M0,0H12a0,0,0,0,1,0,0V43.333a3,3,0,0,1-3,3H3a3,3,0,0,1-3-3V0A0,0,0,0,1,0,0Z" transform="translate(0 0)" fill="url(#linear-gradient)"/>
      </g>
      <g id="Grupo_108406" data-name="Grupo 108406" transform="translate(344 956) rotate(180)">
        <path id="Rectángulo_5242-2" data-name="Rectángulo 5242" d="M0,0H12a0,0,0,0,1,0,0V49a3,3,0,0,1-3,3H3a3,3,0,0,1-3-3V0A0,0,0,0,1,0,0Z" transform="translate(0 0)" fill="url(#linear-gradient-2)"/>
      </g>
      <g id="Grupo_128318" data-name="Grupo 128318">
        <g transform="matrix(1, 0, 0, 1, 184, 904)" filter="url(#Rectángulo_40719)">
          <path id="Rectángulo_40719-2" data-name="Rectángulo 40719" d="M10,0H80A10,10,0,0,1,90,10V90a0,0,0,0,1,0,0H10A10,10,0,0,1,0,80V10A10,10,0,0,1,10,0Z" transform="translate(50 11)" fill="#f6f6f6"/>
        </g>
      </g>
    </g>
    <g id="Grupo_133060" data-name="Grupo 133060" transform="translate(-6302.356 -9671.513)">
      <path id="Trazado_189802" data-name="Trazado 189802" d="M-205.712,126.919c.443.108.888.209,1.33.324a10.293,10.293,0,0,1,7.72,9.714c.038,1.643.032,3.287,0,4.93a4.571,4.571,0,0,1-3.273,4.351,1.665,1.665,0,0,0-.715.623c-.488.668-.889,1.4-1.406,2.045-.556.69-.475,1.246.336,1.553,1.513.572,3.03,1.13,4.54,1.709a5.738,5.738,0,0,1,3.973,5.74c0,1.871,0,3.743,0,5.664h-27.522v-1.849c0-1.366-.009-2.731,0-4.1A5.709,5.709,0,0,1-217,152.265c1.637-.634,3.287-1.234,4.93-1.853a.847.847,0,0,0,.344-1.359c-.563-.782-1.073-1.6-1.632-2.386a1.191,1.191,0,0,0-.563-.422,4.5,4.5,0,0,1-3.339-4.428,45.772,45.772,0,0,1,.174-6.3,10.1,10.1,0,0,1,8.5-8.464,2.349,2.349,0,0,0,.379-.13Zm6.8,10.7a7.859,7.859,0,0,0-3.575-7.017,7.622,7.622,0,0,0-8.634-.192,7.858,7.858,0,0,0-3.88,7.28,18.552,18.552,0,0,1,2.534-.443,6.914,6.914,0,0,0,4.832-2.1c.219-.221.444-.437.734-.722.279.319.478.575.707.8a6.678,6.678,0,0,0,3.9,1.949C-201.2,137.337-200.087,137.472-198.916,137.622Zm-2.791,23.028c-1.647-.821-3.2-1.582-4.745-2.375a.975.975,0,0,0-1.019,0c-1.552.806-3.126,1.57-4.746,2.376l-2.305-6.88c-.744.295-1.452.518-2.106.848a2.761,2.761,0,0,0-1.631,2.05c-.186,1.523-.174,3.07-.245,4.618h22.955c0-1.44.064-2.828-.021-4.207a2.866,2.866,0,0,0-1.547-2.343,23.688,23.688,0,0,0-2.276-.99Zm-9.841-21.176c0,1.566-.014,3.11,0,4.654a4.6,4.6,0,0,0,4.24,4.58,4.452,4.452,0,0,0,4.825-3.837,47.281,47.281,0,0,0,.041-5.414,9.348,9.348,0,0,1-4.234-1.6.587.587,0,0,0-.532-.034A9.493,9.493,0,0,1-211.548,139.474Zm-.815,13.5,1.49,4.444,2.287-1.152-2.316-3.845Zm7.023,3.3,2.3,1.144,1.473-4.441-1.455-.555Zm.73-5.681a7.509,7.509,0,0,1-4.684.031l2.334,3.885Zm-9.288-10.657a2.086,2.086,0,0,0-1.087,1.944,2.051,2.051,0,0,0,1.087,1.842Zm13.826.013c0,1.194,0,2.3,0,3.4a2.11,2.11,0,0,0,.052.323A2.143,2.143,0,0,0-200.072,139.949Z" transform="translate(-130.307 0)" fill="#6836bf"/>
      <path id="Trazado_189803" data-name="Trazado 189803" d="M-68.066,420.31l-3.466.807,1.727,2.937-6.172,6.188-2.919-1.709-.9,3.411h-8.658l-.9-3.407-3.081,1.8c-1.966-1.972-3.916-3.917-5.84-5.885a.691.691,0,0,1-.022-.633c.475-.869,1-1.713,1.563-2.67l-3.409-.906v-8.652l3.4-.908-1.73-2.939,6.186-6.161,2.925,1.717.9-3.4h8.666l.891,3.4c.943-.554,1.8-1.079,2.682-1.558a.691.691,0,0,1,.632.021c1.968,1.925,3.912,3.875,5.884,5.841l-1.82,3.093,3.458.854Zm-18.612-18.144c-.2.779-.369,1.522-.585,2.251a1,1,0,0,1-.4.581c-1.816.924-1.821.915-3.608-.15a2.119,2.119,0,0,1-.3-.18c-.364-.309-.625-.187-.93.131-.88.919-1.771,1.831-2.7,2.7-.408.38-.449.681-.109,1.1a2.738,2.738,0,0,1,.386,3.547c-.213.328-.353.59-.767.677-.739.156-1.466.372-2.189.561v5.069a3.727,3.727,0,0,0,.686.19,2.679,2.679,0,0,1,2.763,2.331,1.5,1.5,0,0,1-.064.87c-.341.678-.759,1.318-1.124,1.934l3.667,3.614c.617-.365,1.285-.777,1.974-1.153a.874.874,0,0,1,.62-.1c1.93.66,1.927.668,2.444,2.656a2.334,2.334,0,0,1,.088.335c.044.427.266.566.7.558,1.272-.026,2.547-.043,3.818.006.575.022.863-.145.915-.721a2.717,2.717,0,0,1,2.257-2.759,1.077,1.077,0,0,1,.947.049c.636.416,1.306.78,1.885,1.121l3.643-3.648c-.362-.612-.774-1.28-1.15-1.967a.87.87,0,0,1-.1-.618c.673-1.949.681-1.947,2.653-2.454a2.1,2.1,0,0,1,.271-.058c.465-.055.653-.275.634-.779-.041-1.132-.013-2.268-.013-3.4,0-1.1.012-1.18-1.036-1.341-1.2-.185-2.072-.635-2.3-1.925-.02-.11-.132-.21-.133-.316a2.007,2.007,0,0,1,.067-.869c.349-.693.773-1.347,1.108-1.915l-3.62-3.638a3.386,3.386,0,0,0-.611.346,2.6,2.6,0,0,1-3.47.286,1.633,1.633,0,0,1-.623-.7c-.25-.715-.405-1.463-.6-2.218Z" transform="translate(-233.639 -233.931)" fill="#6836bf"/>
      <path id="Trazado_189804" data-name="Trazado 189804" d="M-349.921,415.906v29.737h-22.867V415.906Zm-2.3,27.446V418.23h-18.256v25.123Z" transform="translate(0 -247.644)" fill="#6836bf"/>
      <path id="Trazado_189805" data-name="Trazado 189805" d="M-293.3,202.534l5.238,5.209-5.281,5.28-1.645-1.585,2.682-2.484c-1.961,0-3.731-.046-5.494.043-.312.016-.642.561-.872.921-.117.183-.034.5-.034.751q0,9.58,0,19.16v.863h-2.279c-.012-.228-.035-.47-.035-.712q0-9.753,0-19.507a3.513,3.513,0,0,1,3.825-3.855c1.342-.007,2.684,0,4.026,0,.219,0,.438-.022.8-.042l-2.652-2.467Z" transform="translate(-61.5 -64.797)" fill="#6836bf"/>
      <path id="Trazado_189806" data-name="Trazado 189806" d="M-28,253.115l-5.249-5.251,1.621-1.6,2.462,2.632c.027-.4.054-.618.054-.834q0-6.559,0-13.118c0-1.286-.321-1.609-1.587-1.61-1.73,0-3.46,0-5.233,0v-2.316h3.2c.81,0,1.62-.022,2.429.008a3.45,3.45,0,0,1,3.5,3.613c.011,4.442,0,8.884,0,13.326v.906l2.393-2.631,1.61,1.688Z" transform="translate(-288.664 -89.204)" fill="#6836bf"/>
      <path id="Trazado_189807" data-name="Trazado 189807" d="M-202.371,481.508l2.467,2.318-1.588,1.532-5.218-5.234,5.263-5.263,1.547,1.58-2.519,2.346.091.172h8.455V481.3h-8.416Z" transform="translate(-142.319 -298.166)" fill="#6836bf"/>
      <path id="Trazado_189808" data-name="Trazado 189808" d="M-34.047,456.835a9.16,9.16,0,0,1-9.213,9.143,9.19,9.19,0,0,1-9.14-9.232,9.228,9.228,0,0,1,9.195-9.124A9.189,9.189,0,0,1-34.047,456.835Zm-16.038-.064a6.89,6.89,0,0,0,6.85,6.924,6.919,6.919,0,0,0,6.906-6.881,6.887,6.887,0,0,0-6.828-6.874A6.856,6.856,0,0,0-50.085,456.77Z" transform="translate(-274.552 -274.823)" fill="#6836bf"/>
      <path id="Trazado_189809" data-name="Trazado 189809" d="M-340.8,450.11v-2.228h13.668v2.228Z" transform="translate(-27.412 -275.046)" fill="#6836bf"/>
      <path id="Trazado_189810" data-name="Trazado 189810" d="M-327.1,512.167v2.214H-340.8v-2.214Z" transform="translate(-27.413 -330.134)" fill="#6836bf"/>
      <path id="Trazado_189811" data-name="Trazado 189811" d="M-340.811,546.376v-2.218h13.7v2.218Z" transform="translate(-27.402 -357.548)" fill="#6836bf"/>
      <path id="Trazado_189812" data-name="Trazado 189812" d="M-299.5,480.056v2.222h-9.082v-2.222Z" transform="translate(-55.021 -302.617)" fill="#6836bf"/>
      <path id="Trazado_189813" data-name="Trazado 189813" d="M-331.693,576.347v2.209H-340.8v-2.209Z" transform="translate(-27.412 -385.132)" fill="#6836bf"/>
      <path id="Trazado_189814" data-name="Trazado 189814" d="M-340.655,479.921h2.193v2.239h-2.193Z" transform="translate(-27.536 -302.501)" fill="#6836bf"/>
      <path id="Trazado_189815" data-name="Trazado 189815" d="M-260.505,578.473v-2.226h2.195v2.226Z" transform="translate(-96.22 -385.046)" fill="#6836bf"/>
      <path id="Trazado_189816" data-name="Trazado 189816" d="M-11.132,484.334a4.547,4.547,0,0,1-4.6,4.562,4.59,4.59,0,0,1-4.565-4.55,4.631,4.631,0,0,1,4.588-4.616A4.587,4.587,0,0,1-11.132,484.334Zm-6.858-.026a2.289,2.289,0,0,0,2.269,2.311,2.325,2.325,0,0,0,2.313-2.281,2.3,2.3,0,0,0-2.282-2.3A2.27,2.27,0,0,0-17.99,484.309Z" transform="translate(-302.06 -302.337)" fill="#6836bf"/>
    </g>
  </g>
</svg>
