<svg xmlns="http://www.w3.org/2000/svg" xmlns:xlink="http://www.w3.org/1999/xlink" width="190" height="113" viewBox="0 0 190 113">
  <defs>
    <linearGradient id="linear-gradient" x1="0.5" x2="0.5" y2="1" gradientUnits="objectBoundingBox">
      <stop offset="0" stop-color="#f7ca2e" stop-opacity="0"/>
      <stop offset="0.091" stop-color="#f7ca2e" stop-opacity="0.129"/>
      <stop offset="0.283" stop-color="#f7ca2e" stop-opacity="0.388"/>
      <stop offset="0.465" stop-color="#f7ca2e" stop-opacity="0.612"/>
      <stop offset="0.633" stop-color="#f7ca2e" stop-opacity="0.78"/>
      <stop offset="0.784" stop-color="#f7ca2e" stop-opacity="0.902"/>
      <stop offset="0.911" stop-color="#f7ca2e" stop-opacity="0.969"/>
      <stop offset="1" stop-color="#f7ca2e"/>
    </linearGradient>
    <linearGradient id="linear-gradient-2" x1="0.5" x2="0.5" y2="1" gradientUnits="objectBoundingBox">
      <stop offset="0" stop-color="#b13e8d" stop-opacity="0"/>
      <stop offset="0.091" stop-color="#b13e8d" stop-opacity="0.129"/>
      <stop offset="0.283" stop-color="#b13e8d" stop-opacity="0.388"/>
      <stop offset="0.465" stop-color="#b13e8d" stop-opacity="0.612"/>
      <stop offset="0.633" stop-color="#b13e8d" stop-opacity="0.78"/>
      <stop offset="0.784" stop-color="#b13e8d"/>
      <stop offset="0.911" stop-color="#b13e8d" stop-opacity="0.969"/>
      <stop offset="1" stop-color="#b13e8d"/>
    </linearGradient>
    <filter id="Rectángulo_40719" x="41" y="5" width="108" height="108" filterUnits="userSpaceOnUse">
      <feOffset dy="3" input="SourceAlpha"/>
      <feGaussianBlur stdDeviation="3" result="blur"/>
      <feFlood flood-opacity="0.161"/>
      <feComposite operator="in" in2="blur"/>
      <feComposite in="SourceGraphic"/>
    </filter>
  </defs>
  <g id="Grupo_133101" data-name="Grupo 133101" transform="translate(6736 9006)">
    <g id="Grupo_128645" data-name="Grupo 128645" transform="translate(-6920 -9910)">
      <rect id="Rectángulo_40586" data-name="Rectángulo 40586" width="190" height="20" transform="translate(184 950)" fill="none"/>
      <g id="Grupo_108405" data-name="Grupo 108405" transform="translate(213.5 968)">
        <path id="Rectángulo_5242" data-name="Rectángulo 5242" d="M0,0H12a0,0,0,0,1,0,0V43.333a3,3,0,0,1-3,3H3a3,3,0,0,1-3-3V0A0,0,0,0,1,0,0Z" transform="translate(0 0)" fill="url(#linear-gradient)"/>
      </g>
      <g id="Grupo_108406" data-name="Grupo 108406" transform="translate(344 956) rotate(180)">
        <path id="Rectángulo_5242-2" data-name="Rectángulo 5242" d="M0,0H12a0,0,0,0,1,0,0V49a3,3,0,0,1-3,3H3a3,3,0,0,1-3-3V0A0,0,0,0,1,0,0Z" transform="translate(0 0)" fill="url(#linear-gradient-2)"/>
      </g>
      <g id="Grupo_128318" data-name="Grupo 128318">
        <g transform="matrix(1, 0, 0, 1, 184, 904)" filter="url(#Rectángulo_40719)">
          <path id="Rectángulo_40719-2" data-name="Rectángulo 40719" d="M10,0H80A10,10,0,0,1,90,10V90a0,0,0,0,1,0,0H10A10,10,0,0,1,0,80V10A10,10,0,0,1,10,0Z" transform="translate(50 11)" fill="#f6f6f6"/>
        </g>
      </g>
    </g>
    <g id="Grupo_133065" data-name="Grupo 133065" transform="translate(-6198.105 -9087.315)">
      <path id="Trazado_189821" data-name="Trazado 189821" d="M-381.737,267.218c-3.958-2.733-3.5-6.969-1.536-9.153a5.956,5.956,0,0,1,8.643-.251c2.049,2.02,2.891,6.48-1.272,9.4l3.4.573c.267.045.533.1.8.138a1.249,1.249,0,0,1,1.16,1.222q.647,5.322,1.32,10.642a.669.669,0,0,0,.188.419,2.75,2.75,0,0,0,.079-.375q.378-5.24.749-10.48c.069-.978.339-1.276,1.328-1.442,1.142-.192,2.284-.382,3.425-.578.181-.031.356-.1.574-.155-3.987-2.862-3.234-7.185-1.274-9.228a5.831,5.831,0,0,1,8.4-.093c2.642,2.684,2.218,6.2-1.188,9.361,1.357.231,2.661.447,3.962.677,1.084.192,1.306.458,1.385,1.554q.561,7.749,1.13,15.5c.115,1.564-.226,1.945-1.8,1.945h-2.024c-.248,2.367-.519,4.667-.724,6.973-.217,2.436-.259,2.5-2.672,2.5q-2.7,0-5.4,0c-1.108,0-1.465-.319-1.579-1.4-.283-2.671-.563-5.343-.847-8.045h-2.815c.038.293.078.551.1.812a1.225,1.225,0,0,1-1.342,1.519c-1.157.014-2.315,0-3.539,0-.243,1.462-.48,2.89-.718,4.319-.093.559-.192,1.117-.283,1.677a1.175,1.175,0,0,1-1.254,1.106c-2.319.01-4.637.014-6.956,0-.818-.006-1.213-.435-1.287-1.3q-.428-5.05-.855-10.1c-.01-.12-.029-.239-.054-.436-.425,0-.838.007-1.251,0-.928-.019-1.378-.441-1.379-1.354q-.012-6.92,0-13.841a1.212,1.212,0,0,1,1.2-1.4C-384.582,267.7-383.225,267.471-381.737,267.218Zm11.021,19.677c-.153-1.237-.293-2.386-.437-3.535-.532-4.232-1.076-8.463-1.587-12.7a.617.617,0,0,0-.627-.636c-.877-.13-1.746-.326-2.626-.427a19.8,19.8,0,0,0-3.717-.285c-1.684.13-3.347.534-5.025.822v12.02c.348,0,.662,0,.975,0,1.1.006,1.459.3,1.564,1.41.2,2.112.359,4.227.538,6.34.114,1.345.232,2.689.349,4.047h5.006c.329-1.959.643-3.879.975-5.8.169-.975.513-1.258,1.487-1.263C-372.81,286.89-371.78,286.894-370.716,286.894Zm13.31,7.072c.271-2.681.529-5.279.8-7.877.129-1.251.469-1.561,1.668-1.564.659,0,1.317,0,1.97,0a1.566,1.566,0,0,0,.052-.289c-.313-4.549-.621-9.1-.969-13.644-.015-.2-.363-.493-.6-.542-1.156-.241-2.324-.427-3.492-.608a8.4,8.4,0,0,0-2.185-.244c-1.734.2-3.449.561-5.176.835-.441.07-.6.26-.63.717-.22,3.345-.473,6.687-.709,10.03-.086,1.221-.156,2.444-.239,3.746.838,0,1.6-.013,2.354,0a1.159,1.159,0,0,1,1.288,1.136c.113.8.182,1.616.268,2.424.207,1.952.413,3.905.621,5.877ZM-375.3,262a3.565,3.565,0,0,0-3.607-3.529,3.56,3.56,0,0,0-3.489,3.569,3.565,3.565,0,0,0,3.606,3.53A3.562,3.562,0,0,0-375.3,262Zm15.375-3.527a3.563,3.563,0,0,0-3.521,3.539,3.565,3.565,0,0,0,3.577,3.561,3.562,3.562,0,0,0,3.521-3.539A3.564,3.564,0,0,0-359.927,258.47Z" transform="translate(-72.124 -124.414)" fill="#6836bf"/>
      <path id="Trazado_189822" data-name="Trazado 189822" d="M-198.833,284.434c-.49,0-.954.018-1.416,0a1.178,1.178,0,0,1-1.214-1.219c-.014-.246,0-.493,0-.74,0-.887,0-1.773,0-2.716h2.356v2.313c.467,0,.855-.009,1.242,0a1.162,1.162,0,0,1,1.318,1.185c.252,2.751.476,5.5.711,8.256.065.76.129,1.521.2,2.341h4.92c.1-1.155.213-2.326.31-3.5.171-2.065.35-4.129.494-6.2.131-1.873.306-2.065,2.14-2.091.144,0,.288-.013.488-.023.012-.262.033-.5.033-.738,0-3.5-.017-7.008.019-10.511.007-.645-.2-.823-.805-.907-1.586-.217-3.153-.576-4.741-.765a7.683,7.683,0,0,0-2.038.209c-1.409.221-2.814.472-4.272.719v2.5h-2.34c0-1.25-.071-2.526.048-3.785.032-.334.607-.783,1.007-.883,1.143-.287,2.325-.421,3.491-.618.235-.04.467-.092.743-.147-3.43-3.129-3.9-6.629-1.3-9.327a5.912,5.912,0,0,1,8.485-.053c2.65,2.694,2.2,6.2-1.249,9.386,1.377.234,2.709.448,4.037.689,1.01.183,1.283.525,1.284,1.551q0,6.773,0,13.546c0,1.116-.4,1.519-1.507,1.528-.365,0-.731,0-1.151,0l-.595,7.122c-.1,1.18-.188,2.36-.3,3.539a1.162,1.162,0,0,1-1.256,1.177q-3.478.024-6.956,0c-.811-.006-1.2-.44-1.273-1.318q-.424-5.013-.849-10.027C-198.787,284.786-198.808,284.644-198.833,284.434Zm5.7-18.956a3.562,3.562,0,0,0,3.5-3.558,3.564,3.564,0,0,0-3.6-3.541,3.56,3.56,0,0,0-3.5,3.557A3.565,3.565,0,0,0-193.133,265.477Z" transform="translate(-221.082 -124.325)" fill="#6836bf"/>
      <path id="Trazado_189823" data-name="Trazado 189823" d="M-474.581,270.051v12.021c.364,0,.7,0,1.038,0,1.014.009,1.405.321,1.5,1.319.249,2.726.466,5.455.7,8.183.064.756.134,1.512.2,2.3h4.91c.1-1.165.214-2.334.311-3.505.171-2.065.343-4.129.5-6.2.113-1.511.093-2.24,2.2-2.107.12.008.242-.011.442-.022v-2.3h2.351c0,1.252.054,2.524-.025,3.789a1.035,1.035,0,0,1-1.11.9c-.465.02-.932,0-1.48,0-.151,1.748-.3,3.458-.445,5.168-.153,1.819-.3,3.638-.452,5.457a1.178,1.178,0,0,1-1.293,1.219q-3.441.021-6.883,0c-.854-.005-1.237-.429-1.315-1.354-.291-3.465-.582-6.929-.882-10.487-.477,0-.939.015-1.4,0a1.164,1.164,0,0,1-1.251-1.254q-.018-7.032,0-14.064a1.17,1.17,0,0,1,1.088-1.267q1.75-.291,3.5-.586c.23-.039.458-.094.736-.151-3.456-3.008-3.92-6.681-1.243-9.383a5.918,5.918,0,0,1,8.636.234c2.061,2.295,2.311,6.545-1.527,9.146l3.461.591c.292.05.584.094.874.151a1.169,1.169,0,0,1,1.047,1.232c.013,1.133,0,2.266,0,3.456h-2.367c0-.65-.019-1.307.007-1.964.015-.386-.091-.574-.5-.639-1.728-.271-3.449-.588-5.178-.853a3.36,3.36,0,0,0-1.021.1C-471.161,269.466-472.858,269.758-474.581,270.051Zm9.439-8.083a3.564,3.564,0,0,0-3.552-3.584,3.559,3.559,0,0,0-3.545,3.513,3.565,3.565,0,0,0,3.551,3.586A3.562,3.562,0,0,0-465.142,261.968Z" transform="translate(-0.048 -124.33)" fill="#6836bf"/>
      <path id="Trazado_189824" data-name="Trazado 189824" d="M-333.044,106.806v-2.35h30.756c0-.754.011-1.458,0-2.162-.012-.565.132-1.12.693-1.251a1.834,1.834,0,0,1,1.346.216c3.066,2.24,6.1,4.53,9.128,6.817a1.212,1.212,0,0,1,.021,2.18q-4.546,3.432-9.109,6.842c-.444.334-.969.583-1.415.194a2.16,2.16,0,0,1-.633-1.219,14.543,14.543,0,0,1-.027-2.14h-4.7v-2.389h1.575q1.924,0,3.848,0c1.269,0,1.631.36,1.641,1.616,0,.2,0,.39,0,.752l6.312-4.734-6.314-4.745c0,.464.013.79,0,1.116a1.2,1.2,0,0,1-1.258,1.255c-.1.005-.2,0-.3,0h-31.566Z" transform="translate(-115.524)" fill="#6836bf"/>
      <path id="Trazado_189825" data-name="Trazado 189825" d="M-473.859,174.485l6.307,4.733c0-.413,0-.675,0-.936.016-.98.428-1.424,1.383-1.424q15.724-.006,31.448,0c.072,0,.145.016.272.031v2.32h-30.736a14.943,14.943,0,0,1-.028,2.2,2.161,2.161,0,0,1-.652,1.207c-.417.367-.929.145-1.352-.173q-4.584-3.443-9.167-6.887a1.194,1.194,0,0,1,0-2.129q4.576-3.453,9.166-6.887c.422-.317.931-.549,1.351-.184a2.145,2.145,0,0,1,.657,1.2,14.613,14.613,0,0,1,.029,2.176h4.684v2.37c-2.014,0-4.028.031-6.04-.019a1.058,1.058,0,0,1-1-1.1c-.027-.357,0-.719,0-1.232Z" transform="translate(0 -52.279)" fill="#6836bf"/>
      <path id="Trazado_189826" data-name="Trazado 189826" d="M-333.295,154.575v2.283h-23.591v-2.283Z" transform="translate(-96.396 -42.981)" fill="#6836bf"/>
      <path id="Trazado_189827" data-name="Trazado 189827" d="M-333.386,184.545v2.277H-357v-2.277Z" transform="translate(-96.301 -67.025)" fill="#6836bf"/>
      <path id="Trazado_189828" data-name="Trazado 189828" d="M-402.546,118.691v2.251h-2.3v-2.251Z" transform="translate(-57.916 -14.192)" fill="#6836bf"/>
      <path id="Trazado_189829" data-name="Trazado 189829" d="M-381,120.908v-2.286h2.3v2.286Z" transform="translate(-77.051 -14.136)" fill="#6836bf"/>
      <path id="Trazado_189830" data-name="Trazado 189830" d="M-354.614,118.638v2.279h-2.277v-2.279Z" transform="translate(-96.392 -14.149)" fill="#6836bf"/>
      <path id="Trazado_189831" data-name="Trazado 189831" d="M-222.852,156.891h-2.264v-2.3h2.264Z" transform="translate(-202.112 -42.991)" fill="#6836bf"/>
      <path id="Trazado_189832" data-name="Trazado 189832" d="M-380.987,186.815v-2.282h2.294v2.282Z" transform="translate(-77.06 -67.015)" fill="#6836bf"/>
      <path id="Trazado_189833" data-name="Trazado 189833" d="M-246.887,222.707h-2.271v-2.3h2.271Z" transform="translate(-182.824 -95.793)" fill="#6836bf"/>
      <path id="Trazado_189834" data-name="Trazado 189834" d="M-222.878,220.444v2.269h-2.282v-2.269Z" transform="translate(-202.077 -95.826)" fill="#6836bf"/>
      <path id="Trazado_189835" data-name="Trazado 189835" d="M-198.926,220.434v2.273h-2.285v-2.273Z" transform="translate(-221.291 -95.818)" fill="#6836bf"/>
      <path id="Trazado_189836" data-name="Trazado 189836" d="M-404.822,352.176h2.271v2.3h-2.271Z" transform="translate(-57.938 -201.512)" fill="#6836bf"/>
      <path id="Trazado_189837" data-name="Trazado 189837" d="M-201.254,352.192h2.276v2.29h-2.276Z" transform="translate(-221.256 -201.524)" fill="#6836bf"/>
    </g>
  </g>
</svg>
